<?xml version="1.0" encoding="utf-8" standalone="no"?>
<!DOCTYPE svg PUBLIC "-//W3C//DTD SVG 1.1//EN"
  "http://www.w3.org/Graphics/SVG/1.1/DTD/svg11.dtd">
<svg xmlns:xlink="http://www.w3.org/1999/xlink" width="597.6pt" height="432pt" viewBox="0 0 597.6 432" xmlns="http://www.w3.org/2000/svg" version="1.1">
 <metadata>
  <rdf:RDF xmlns:dc="http://purl.org/dc/elements/1.1/" xmlns:cc="http://creativecommons.org/ns#" xmlns:rdf="http://www.w3.org/1999/02/22-rdf-syntax-ns#">
   <cc:Work>
    <dc:type rdf:resource="http://purl.org/dc/dcmitype/StillImage"/>
    <dc:date>2023-02-24T18:18:29.269342</dc:date>
    <dc:format>image/svg+xml</dc:format>
    <dc:creator>
     <cc:Agent>
      <dc:title>Matplotlib v3.7.0, https://matplotlib.org/</dc:title>
     </cc:Agent>
    </dc:creator>
   </cc:Work>
  </rdf:RDF>
 </metadata>
 <defs>
  <style type="text/css">*{stroke-linejoin: round; stroke-linecap: butt}</style>
 </defs>
 <g id="figure_1">
  <g id="patch_1">
   <path d="M 0 432 
L 597.6 432 
L 597.6 0 
L 0 0 
z
" style="fill: #ffffff"/>
  </g>
  <g id="axes_1">
   <g id="patch_2">
    <path d="M 74.7 307.520246 
L 537.84 307.520246 
L 537.84 51.84 
L 74.7 51.84 
z
" style="fill: #ffffff"/>
   </g>
   <g id="PathCollection_1">
    <defs>
     <path id="m716ecffe71" d="M -3 3 
L 3 3 
L 3 -3 
L -3 -3 
z
" style="stroke: #000000"/>
    </defs>
    <g clip-path="url(#p55e2d4584c)">
     <use xlink:href="#m716ecffe71" x="112.411536" y="98.939993" style="stroke: #000000"/>
     <use xlink:href="#m716ecffe71" x="124.989333" y="108.244668" style="stroke: #000000"/>
     <use xlink:href="#m716ecffe71" x="125.600766" y="111.242602" style="stroke: #000000"/>
     <use xlink:href="#m716ecffe71" x="117.645492" y="114.790966" style="stroke: #000000"/>
     <use xlink:href="#m716ecffe71" x="114.217502" y="115.35359" style="stroke: #000000"/>
     <use xlink:href="#m716ecffe71" x="122.702481" y="136.206415" style="stroke: #000000"/>
     <use xlink:href="#m716ecffe71" x="126.439184" y="136.357971" style="stroke: #000000"/>
     <use xlink:href="#m716ecffe71" x="123.245807" y="157.040394" style="stroke: #000000"/>
     <use xlink:href="#m716ecffe71" x="108.965457" y="145.020575" style="stroke: #000000"/>
     <use xlink:href="#m716ecffe71" x="123.356848" y="168.741209" style="stroke: #000000"/>
     <use xlink:href="#m716ecffe71" x="117.73681" y="172.437804" style="stroke: #000000"/>
     <use xlink:href="#m716ecffe71" x="122.40837" y="172.44889" style="stroke: #000000"/>
     <use xlink:href="#m716ecffe71" x="125.054497" y="172.740548" style="stroke: #000000"/>
     <use xlink:href="#m716ecffe71" x="136.285856" y="167.630373" style="stroke: #000000"/>
     <use xlink:href="#m716ecffe71" x="147.962032" y="168.371529" style="stroke: #000000"/>
     <use xlink:href="#m716ecffe71" x="151.697645" y="168.808462" style="stroke: #000000"/>
     <use xlink:href="#m716ecffe71" x="136.950031" y="197.596777" style="stroke: #000000"/>
     <use xlink:href="#m716ecffe71" x="133.05434" y="198.300981" style="stroke: #000000"/>
     <use xlink:href="#m716ecffe71" x="133.040718" y="201.86819" style="stroke: #000000"/>
     <use xlink:href="#m716ecffe71" x="136.93314" y="202.020116" style="stroke: #000000"/>
     <use xlink:href="#m716ecffe71" x="129.305105" y="201.431256" style="stroke: #000000"/>
     <use xlink:href="#m716ecffe71" x="138.003011" y="207.302173" style="stroke: #000000"/>
     <use xlink:href="#m716ecffe71" x="149.668835" y="210.754407" style="stroke: #000000"/>
     <use xlink:href="#m716ecffe71" x="137.208072" y="211.580976" style="stroke: #000000"/>
     <use xlink:href="#m716ecffe71" x="139.058171" y="216.436815" style="stroke: #000000"/>
     <use xlink:href="#m716ecffe71" x="143.688868" y="227.149528" style="stroke: #000000"/>
     <use xlink:href="#m716ecffe71" x="146.958415" y="227.299976" style="stroke: #000000"/>
     <use xlink:href="#m716ecffe71" x="148.648981" y="233.154264" style="stroke: #000000"/>
     <use xlink:href="#m716ecffe71" x="145.834058" y="236.286756" style="stroke: #000000"/>
     <use xlink:href="#m716ecffe71" x="149.104151" y="236.294516" style="stroke: #000000"/>
     <use xlink:href="#m716ecffe71" x="153.930884" y="236.44866" style="stroke: #000000"/>
     <use xlink:href="#m716ecffe71" x="155.592574" y="249.865431" style="stroke: #000000"/>
     <use xlink:href="#m716ecffe71" x="152.318668" y="250.856489" style="stroke: #000000"/>
     <use xlink:href="#m716ecffe71" x="161.142871" y="264.432947" style="stroke: #000000"/>
     <use xlink:href="#m716ecffe71" x="164.570316" y="264.013011" style="stroke: #000000"/>
     <use xlink:href="#m716ecffe71" x="161.807154" y="253.590109" style="stroke: #000000"/>
     <use xlink:href="#m716ecffe71" x="164.925342" y="252.598681" style="stroke: #000000"/>
     <use xlink:href="#m716ecffe71" x="191.461699" y="276.633515" style="stroke: #000000"/>
     <use xlink:href="#m716ecffe71" x="191.270565" y="285.907889" style="stroke: #000000"/>
     <use xlink:href="#m716ecffe71" x="201.279058" y="274.801846" style="stroke: #000000"/>
     <use xlink:href="#m716ecffe71" x="204.625429" y="254.833235" style="stroke: #000000"/>
    </g>
   </g>
   <g id="PathCollection_2">
    <defs>
     <path id="mc1ee126140" d="M -3 3 
L 3 -3 
M -3 -3 
L 3 3 
" style="stroke: #000000; stroke-width: 1.5"/>
    </defs>
    <g clip-path="url(#p55e2d4584c)">
     <use xlink:href="#mc1ee126140" x="170.135542" y="193.109458" style="stroke: #000000; stroke-width: 1.5"/>
     <use xlink:href="#mc1ee126140" x="185.122565" y="223.965988" style="stroke: #000000; stroke-width: 1.5"/>
     <use xlink:href="#mc1ee126140" x="183.33447" y="243.652918" style="stroke: #000000; stroke-width: 1.5"/>
     <use xlink:href="#mc1ee126140" x="179.439869" y="244.071745" style="stroke: #000000; stroke-width: 1.5"/>
     <use xlink:href="#mc1ee126140" x="177.860343" y="249.918273" style="stroke: #000000; stroke-width: 1.5"/>
     <use xlink:href="#mc1ee126140" x="182.016255" y="262.627514" style="stroke: #000000; stroke-width: 1.5"/>
     <use xlink:href="#mc1ee126140" x="170.171284" y="265.310509" style="stroke: #000000; stroke-width: 1.5"/>
     <use xlink:href="#mc1ee126140" x="241.131704" y="237.083657" style="stroke: #000000; stroke-width: 1.5"/>
     <use xlink:href="#mc1ee126140" x="243.754403" y="243.510916" style="stroke: #000000; stroke-width: 1.5"/>
     <use xlink:href="#mc1ee126140" x="264.007637" y="240.990563" style="stroke: #000000; stroke-width: 1.5"/>
     <use xlink:href="#mc1ee126140" x="261.563432" y="269.380005" style="stroke: #000000; stroke-width: 1.5"/>
     <use xlink:href="#mc1ee126140" x="270.596204" y="269.11606" style="stroke: #000000; stroke-width: 1.5"/>
     <use xlink:href="#mc1ee126140" x="256.747595" y="266.372094" style="stroke: #000000; stroke-width: 1.5"/>
     <use xlink:href="#mc1ee126140" x="252.862801" y="264.22253" style="stroke: #000000; stroke-width: 1.5"/>
     <use xlink:href="#mc1ee126140" x="245.682307" y="268.77156" style="stroke: #000000; stroke-width: 1.5"/>
     <use xlink:href="#mc1ee126140" x="236.828682" y="262.900274" style="stroke: #000000; stroke-width: 1.5"/>
     <use xlink:href="#mc1ee126140" x="229.668892" y="262.027146" style="stroke: #000000; stroke-width: 1.5"/>
     <use xlink:href="#mc1ee126140" x="228.756374" y="256.317394" style="stroke: #000000; stroke-width: 1.5"/>
     <use xlink:href="#mc1ee126140" x="224.23454" y="257.87625" style="stroke: #000000; stroke-width: 1.5"/>
     <use xlink:href="#mc1ee126140" x="218.122282" y="268.135401" style="stroke: #000000; stroke-width: 1.5"/>
     <use xlink:href="#mc1ee126140" x="225.707274" y="279.996642" style="stroke: #000000; stroke-width: 1.5"/>
     <use xlink:href="#mc1ee126140" x="227.405469" y="283.853293" style="stroke: #000000; stroke-width: 1.5"/>
     <use xlink:href="#mc1ee126140" x="223.042622" y="284.556388" style="stroke: #000000; stroke-width: 1.5"/>
     <use xlink:href="#mc1ee126140" x="233.476317" y="284.438457" style="stroke: #000000; stroke-width: 1.5"/>
     <use xlink:href="#mc1ee126140" x="238.144608" y="285.305673" style="stroke: #000000; stroke-width: 1.5"/>
     <use xlink:href="#mc1ee126140" x="243.753204" y="284.605534" style="stroke: #000000; stroke-width: 1.5"/>
     <use xlink:href="#mc1ee126140" x="238.286161" y="289.01594" style="stroke: #000000; stroke-width: 1.5"/>
     <use xlink:href="#mc1ee126140" x="235.492487" y="286.583587" style="stroke: #000000; stroke-width: 1.5"/>
    </g>
   </g>
   <g id="PathCollection_3">
    <defs>
     <path id="mcb03b3f97d" d="M 0 0 
L 0 3 
M 0 0 
L 2.4 -1.5 
M 0 0 
L -2.4 -1.5 
" style="stroke: #000000; stroke-width: 1.5"/>
    </defs>
    <g clip-path="url(#p55e2d4584c)">
     <use xlink:href="#mcb03b3f97d" x="307.838029" y="262.640711" style="stroke: #000000; stroke-width: 1.5"/>
     <use xlink:href="#mcb03b3f97d" x="281.941873" y="274.85057" style="stroke: #000000; stroke-width: 1.5"/>
     <use xlink:href="#mcb03b3f97d" x="288.908349" y="285.568826" style="stroke: #000000; stroke-width: 1.5"/>
     <use xlink:href="#mcb03b3f97d" x="293.89843" y="283.725702" style="stroke: #000000; stroke-width: 1.5"/>
     <use xlink:href="#mcb03b3f97d" x="313.554942" y="274.35483" style="stroke: #000000; stroke-width: 1.5"/>
     <use xlink:href="#mcb03b3f97d" x="313.686142" y="280.776175" style="stroke: #000000; stroke-width: 1.5"/>
     <use xlink:href="#mcb03b3f97d" x="318.835756" y="277.934602" style="stroke: #000000; stroke-width: 1.5"/>
     <use xlink:href="#mcb03b3f97d" x="318.851556" y="273.79664" style="stroke: #000000; stroke-width: 1.5"/>
     <use xlink:href="#mcb03b3f97d" x="323.520937" y="274.378479" style="stroke: #000000; stroke-width: 1.5"/>
     <use xlink:href="#mcb03b3f97d" x="323.694091" y="269.812821" style="stroke: #000000; stroke-width: 1.5"/>
     <use xlink:href="#mcb03b3f97d" x="318.572265" y="265.377287" style="stroke: #000000; stroke-width: 1.5"/>
     <use xlink:href="#mcb03b3f97d" x="315.780226" y="262.516869" style="stroke: #000000; stroke-width: 1.5"/>
     <use xlink:href="#mcb03b3f97d" x="329.140975" y="270.681884" style="stroke: #000000; stroke-width: 1.5"/>
     <use xlink:href="#mcb03b3f97d" x="334.595487" y="269.553311" style="stroke: #000000; stroke-width: 1.5"/>
     <use xlink:href="#mcb03b3f97d" x="339.741286" y="267.710556" style="stroke: #000000; stroke-width: 1.5"/>
     <use xlink:href="#mcb03b3f97d" x="335.550504" y="264.13337" style="stroke: #000000; stroke-width: 1.5"/>
     <use xlink:href="#mcb03b3f97d" x="328.086905" y="261.261866" style="stroke: #000000; stroke-width: 1.5"/>
     <use xlink:href="#mcb03b3f97d" x="319.214755" y="260.241984" style="stroke: #000000; stroke-width: 1.5"/>
     <use xlink:href="#mcb03b3f97d" x="322.489205" y="259.108237" style="stroke: #000000; stroke-width: 1.5"/>
     <use xlink:href="#mcb03b3f97d" x="334.643434" y="256.996735" style="stroke: #000000; stroke-width: 1.5"/>
     <use xlink:href="#mcb03b3f97d" x="339.479431" y="254.725176" style="stroke: #000000; stroke-width: 1.5"/>
     <use xlink:href="#mcb03b3f97d" x="334.6576" y="253.286837" style="stroke: #000000; stroke-width: 1.5"/>
     <use xlink:href="#mcb03b3f97d" x="322.825161" y="252.688" style="stroke: #000000; stroke-width: 1.5"/>
     <use xlink:href="#mcb03b3f97d" x="326.723031" y="251.413043" style="stroke: #000000; stroke-width: 1.5"/>
     <use xlink:href="#mcb03b3f97d" x="323.310297" y="247.980392" style="stroke: #000000; stroke-width: 1.5"/>
     <use xlink:href="#mcb03b3f97d" x="313.206019" y="243.390346" style="stroke: #000000; stroke-width: 1.5"/>
     <use xlink:href="#mcb03b3f97d" x="319.144033" y="237.98223" style="stroke: #000000; stroke-width: 1.5"/>
     <use xlink:href="#mcb03b3f97d" x="310.735769" y="237.819587" style="stroke: #000000; stroke-width: 1.5"/>
    </g>
   </g>
   <g id="PathCollection_4">
    <defs>
     <path id="mdde85ca311" d="M 0 0 
L 0 -3 
M 0 0 
L -2.4 1.5 
M 0 0 
L 2.4 1.5 
" style="stroke: #000000; stroke-width: 1.5"/>
    </defs>
    <g clip-path="url(#p55e2d4584c)">
     <use xlink:href="#mdde85ca311" x="387.170207" y="244.136622" style="stroke: #000000; stroke-width: 1.5"/>
     <use xlink:href="#mdde85ca311" x="431.305062" y="226.833217" style="stroke: #000000; stroke-width: 1.5"/>
     <use xlink:href="#mdde85ca311" x="439.560876" y="226.139359" style="stroke: #000000; stroke-width: 1.5"/>
     <use xlink:href="#mdde85ca311" x="256.402922" y="275.075345" style="stroke: #000000; stroke-width: 1.5"/>
     <use xlink:href="#mdde85ca311" x="280.104306" y="266.712899" style="stroke: #000000; stroke-width: 1.5"/>
     <use xlink:href="#mdde85ca311" x="280.742981" y="262.576414" style="stroke: #000000; stroke-width: 1.5"/>
     <use xlink:href="#mdde85ca311" x="304.038668" y="278.898316" style="stroke: #000000; stroke-width: 1.5"/>
    </g>
   </g>
   <g id="PathCollection_5">
    <defs>
     <path id="m166f82e738" d="M 0 1.5 
C 0.397805 1.5 0.77937 1.341951 1.06066 1.06066 
C 1.341951 0.77937 1.5 0.397805 1.5 0 
C 1.5 -0.397805 1.341951 -0.77937 1.06066 -1.06066 
C 0.77937 -1.341951 0.397805 -1.5 0 -1.5 
C -0.397805 -1.5 -0.77937 -1.341951 -1.06066 -1.06066 
C -1.341951 -0.77937 -1.5 -0.397805 -1.5 0 
C -1.5 0.397805 -1.341951 0.77937 -1.06066 1.06066 
C -0.77937 1.341951 -0.397805 1.5 0 1.5 
z
" style="stroke: #000000"/>
    </defs>
    <g clip-path="url(#p55e2d4584c)">
     <use xlink:href="#m166f82e738" x="280.057012" y="238.317545" style="stroke: #000000"/>
     <use xlink:href="#m166f82e738" x="256.365981" y="243.968912" style="stroke: #000000"/>
     <use xlink:href="#m166f82e738" x="284.740014" y="235.332175" style="stroke: #000000"/>
     <use xlink:href="#m166f82e738" x="290.496701" y="236.630042" style="stroke: #000000"/>
     <use xlink:href="#m166f82e738" x="314.931456" y="240.112578" style="stroke: #000000"/>
     <use xlink:href="#m166f82e738" x="318.851665" y="232.987398" style="stroke: #000000"/>
     <use xlink:href="#m166f82e738" x="325.214337" y="238.710083" style="stroke: #000000"/>
     <use xlink:href="#m166f82e738" x="345.26445" y="248.603249" style="stroke: #000000"/>
     <use xlink:href="#m166f82e738" x="374.065321" y="250.526559" style="stroke: #000000"/>
     <use xlink:href="#m166f82e738" x="367.683035" y="249.940655" style="stroke: #000000"/>
     <use xlink:href="#m166f82e738" x="367.600326" y="230.820045" style="stroke: #000000"/>
     <use xlink:href="#m166f82e738" x="357.56252" y="208.822017" style="stroke: #000000"/>
     <use xlink:href="#m166f82e738" x="354.141068" y="207.672381" style="stroke: #000000"/>
     <use xlink:href="#m166f82e738" x="390.103799" y="250.707308" style="stroke: #000000"/>
     <use xlink:href="#m166f82e738" x="383.209134" y="261.96343" style="stroke: #000000"/>
     <use xlink:href="#m166f82e738" x="401.09782" y="226.190776" style="stroke: #000000"/>
     <use xlink:href="#m166f82e738" x="408.25543" y="227.634657" style="stroke: #000000"/>
     <use xlink:href="#m166f82e738" x="381.156023" y="228.711868" style="stroke: #000000"/>
     <use xlink:href="#m166f82e738" x="403.619285" y="218.348828" style="stroke: #000000"/>
     <use xlink:href="#m166f82e738" x="392.659699" y="193.066751" style="stroke: #000000"/>
     <use xlink:href="#m166f82e738" x="398.791571" y="177.670819" style="stroke: #000000"/>
     <use xlink:href="#m166f82e738" x="441.774173" y="217.440542" style="stroke: #000000"/>
     <use xlink:href="#m166f82e738" x="442.682877" y="224.149113" style="stroke: #000000"/>
     <use xlink:href="#m166f82e738" x="461.754655" y="204.788577" style="stroke: #000000"/>
     <use xlink:href="#m166f82e738" x="484.637671" y="206.840534" style="stroke: #000000"/>
     <use xlink:href="#m166f82e738" x="484.670907" y="198.136543" style="stroke: #000000"/>
     <use xlink:href="#m166f82e738" x="516.788182" y="187.939103" style="stroke: #000000"/>
    </g>
   </g>
   <g id="PathCollection_6">
    <defs>
     <path id="m9f53599a7f" d="M -3 0 
L 3 0 
M 0 3 
L 0 -3 
" style="stroke: #000000; stroke-width: 1.5"/>
    </defs>
    <g clip-path="url(#p55e2d4584c)">
     <use xlink:href="#m9f53599a7f" x="170.594416" y="236.060134" style="stroke: #000000; stroke-width: 1.5"/>
     <use xlink:href="#m9f53599a7f" x="176.200833" y="235.930748" style="stroke: #000000; stroke-width: 1.5"/>
     <use xlink:href="#m9f53599a7f" x="193.768166" y="243.534987" style="stroke: #000000; stroke-width: 1.5"/>
     <use xlink:href="#m9f53599a7f" x="228.964399" y="242.619681" style="stroke: #000000; stroke-width: 1.5"/>
     <use xlink:href="#m9f53599a7f" x="211.029509" y="249.711604" style="stroke: #000000; stroke-width: 1.5"/>
     <use xlink:href="#m9f53599a7f" x="212.21696" y="264.982215" style="stroke: #000000; stroke-width: 1.5"/>
     <use xlink:href="#m9f53599a7f" x="189.539788" y="249.803298" style="stroke: #000000; stroke-width: 1.5"/>
     <use xlink:href="#m9f53599a7f" x="184.334055" y="267.341773" style="stroke: #000000; stroke-width: 1.5"/>
     <use xlink:href="#m9f53599a7f" x="183.49008" y="284.462529" style="stroke: #000000; stroke-width: 1.5"/>
     <use xlink:href="#m9f53599a7f" x="196.568269" y="285.064322" style="stroke: #000000; stroke-width: 1.5"/>
     <use xlink:href="#m9f53599a7f" x="196.425081" y="281.782121" style="stroke: #000000; stroke-width: 1.5"/>
     <use xlink:href="#m9f53599a7f" x="198.91658" y="281.788033" style="stroke: #000000; stroke-width: 1.5"/>
     <use xlink:href="#m9f53599a7f" x="195.671006" y="275.359297" style="stroke: #000000; stroke-width: 1.5"/>
     <use xlink:href="#m9f53599a7f" x="188.976193" y="275.05803" style="stroke: #000000; stroke-width: 1.5"/>
     <use xlink:href="#m9f53599a7f" x="194.759578" y="269.364168" style="stroke: #000000; stroke-width: 1.5"/>
     <use xlink:href="#m9f53599a7f" x="205.795444" y="274.669874" style="stroke: #000000; stroke-width: 1.5"/>
     <use xlink:href="#m9f53599a7f" x="206.023628" y="255.692691" style="stroke: #000000; stroke-width: 1.5"/>
     <use xlink:href="#m9f53599a7f" x="245.109559" y="255.642752" style="stroke: #000000; stroke-width: 1.5"/>
     <use xlink:href="#m9f53599a7f" x="244.721297" y="275.761073" style="stroke: #000000; stroke-width: 1.5"/>
     <use xlink:href="#m9f53599a7f" x="240.954736" y="242.648134" style="stroke: #000000; stroke-width: 1.5"/>
     <use xlink:href="#m9f53599a7f" x="252.027652" y="238.251031" style="stroke: #000000; stroke-width: 1.5"/>
     <use xlink:href="#m9f53599a7f" x="261.686568" y="237.132434" style="stroke: #000000; stroke-width: 1.5"/>
     <use xlink:href="#m9f53599a7f" x="261.806872" y="246.407547" style="stroke: #000000; stroke-width: 1.5"/>
     <use xlink:href="#m9f53599a7f" x="268.509857" y="244.568488" style="stroke: #000000; stroke-width: 1.5"/>
     <use xlink:href="#m9f53599a7f" x="262.955746" y="230.999791" style="stroke: #000000; stroke-width: 1.5"/>
     <use xlink:href="#m9f53599a7f" x="268.867607" y="232.440716" style="stroke: #000000; stroke-width: 1.5"/>
     <use xlink:href="#m9f53599a7f" x="293.286016" y="240.203903" style="stroke: #000000; stroke-width: 1.5"/>
     <use xlink:href="#m9f53599a7f" x="294.360791" y="244.201764" style="stroke: #000000; stroke-width: 1.5"/>
     <use xlink:href="#m9f53599a7f" x="287.643639" y="249.750721" style="stroke: #000000; stroke-width: 1.5"/>
     <use xlink:href="#m9f53599a7f" x="289.797547" y="256.604935" style="stroke: #000000; stroke-width: 1.5"/>
    </g>
   </g>
   <g id="PathCollection_7">
    <defs>
     <path id="m040e9998d4" d="M -0 3 
L 3 -3 
L -3 -3 
z
" style="stroke: #000000"/>
    </defs>
    <g clip-path="url(#p55e2d4584c)">
     <use xlink:href="#m040e9998d4" x="252.676571" y="272.212709" style="stroke: #000000"/>
     <use xlink:href="#m040e9998d4" x="252.385293" y="266.932501" style="stroke: #000000"/>
     <use xlink:href="#m040e9998d4" x="261.894484" y="264.243963" style="stroke: #000000"/>
     <use xlink:href="#m040e9998d4" x="266.567678" y="263.826983" style="stroke: #000000"/>
     <use xlink:href="#m040e9998d4" x="271.562663" y="260.699664" style="stroke: #000000"/>
     <use xlink:href="#m040e9998d4" x="274.345984" y="265.843096" style="stroke: #000000"/>
     <use xlink:href="#m040e9998d4" x="266.527904" y="274.243234" style="stroke: #000000"/>
     <use xlink:href="#m040e9998d4" x="260.753237" y="277.654082" style="stroke: #000000"/>
     <use xlink:href="#m040e9998d4" x="256.235761" y="278.071431" style="stroke: #000000"/>
     <use xlink:href="#m040e9998d4" x="256.378948" y="281.353633" style="stroke: #000000"/>
     <use xlink:href="#m040e9998d4" x="259.165539" y="285.640935" style="stroke: #000000"/>
     <use xlink:href="#m040e9998d4" x="259.804214" y="281.504451" style="stroke: #000000"/>
     <use xlink:href="#m040e9998d4" x="264.315697" y="282.656674" style="stroke: #000000"/>
     <use xlink:href="#m040e9998d4" x="263.359591" y="288.361992" style="stroke: #000000"/>
     <use xlink:href="#m040e9998d4" x="267.740962" y="282.807492" style="stroke: #000000"/>
     <use xlink:href="#m040e9998d4" x="270.543899" y="282.814143" style="stroke: #000000"/>
     <use xlink:href="#m040e9998d4" x="271.652999" y="277.822637" style="stroke: #000000"/>
     <use xlink:href="#m040e9998d4" x="273.227621" y="273.260305" style="stroke: #000000"/>
     <use xlink:href="#m040e9998d4" x="277.118408" y="273.840296" style="stroke: #000000"/>
     <use xlink:href="#m040e9998d4" x="276.947979" y="277.692513" style="stroke: #000000"/>
     <use xlink:href="#m040e9998d4" x="278.798078" y="282.548351" style="stroke: #000000"/>
     <use xlink:href="#m040e9998d4" x="273.503098" y="282.678476" style="stroke: #000000"/>
     <use xlink:href="#m040e9998d4" x="269.586158" y="288.947526" style="stroke: #000000"/>
     <use xlink:href="#m040e9998d4" x="273.013603" y="288.52759" style="stroke: #000000"/>
     <use xlink:href="#m040e9998d4" x="277.839792" y="288.824422" style="stroke: #000000"/>
     <use xlink:href="#m040e9998d4" x="280.807709" y="286.405741" style="stroke: #000000"/>
     <use xlink:href="#m040e9998d4" x="285.007755" y="287.557225" style="stroke: #000000"/>
     <use xlink:href="#m040e9998d4" x="285.356242" y="277.855155" style="stroke: #000000"/>
     <use xlink:href="#m040e9998d4" x="282.269111" y="270.713346" style="stroke: #000000"/>
     <use xlink:href="#m040e9998d4" x="288.503306" y="269.301244" style="stroke: #000000"/>
     <use xlink:href="#m040e9998d4" x="292.851442" y="272.450734" style="stroke: #000000"/>
     <use xlink:href="#m040e9998d4" x="292.992995" y="276.161001" style="stroke: #000000"/>
     <use xlink:href="#m040e9998d4" x="293.135092" y="279.72858" style="stroke: #000000"/>
     <use xlink:href="#m040e9998d4" x="298.434975" y="278.31426" style="stroke: #000000"/>
     <use xlink:href="#m040e9998d4" x="299.536448" y="275.320391" style="stroke: #000000"/>
     <use xlink:href="#m040e9998d4" x="301.552073" y="277.608209" style="stroke: #000000"/>
     <use xlink:href="#m040e9998d4" x="301.736124" y="270.188783" style="stroke: #000000"/>
     <use xlink:href="#m040e9998d4" x="308.117865" y="270.917376" style="stroke: #000000"/>
     <use xlink:href="#m040e9998d4" x="312.013011" y="270.35586" style="stroke: #000000"/>
     <use xlink:href="#m040e9998d4" x="309.813335" y="275.487468" style="stroke: #000000"/>
     <use xlink:href="#m040e9998d4" x="310.574493" y="280.055343" style="stroke: #000000"/>
     <use xlink:href="#m040e9998d4" x="304.807454" y="281.468555" style="stroke: #000000"/>
     <use xlink:href="#m040e9998d4" x="305.024196" y="265.487827" style="stroke: #000000"/>
     <use xlink:href="#m040e9998d4" x="300.824696" y="264.193655" style="stroke: #000000"/>
     <use xlink:href="#m040e9998d4" x="295.981072" y="268.462851" style="stroke: #000000"/>
     <use xlink:href="#m040e9998d4" x="292.562344" y="266.599772" style="stroke: #000000"/>
     <use xlink:href="#m040e9998d4" x="294.910656" y="263.323483" style="stroke: #000000"/>
     <use xlink:href="#m040e9998d4" x="291.491928" y="261.460405" style="stroke: #000000"/>
     <use xlink:href="#m040e9998d4" x="286.968459" y="263.447326" style="stroke: #000000"/>
     <use xlink:href="#m040e9998d4" x="285.584426" y="258.877972" style="stroke: #000000"/>
     <use xlink:href="#m040e9998d4" x="286.068472" y="254.455741" style="stroke: #000000"/>
     <use xlink:href="#m040e9998d4" x="293.224448" y="256.327688" style="stroke: #000000"/>
     <use xlink:href="#m040e9998d4" x="298.670787" y="257.33944" style="stroke: #000000"/>
     <use xlink:href="#m040e9998d4" x="303.811683" y="256.780881" style="stroke: #000000"/>
     <use xlink:href="#m040e9998d4" x="301.337619" y="252.208941" style="stroke: #000000"/>
     <use xlink:href="#m040e9998d4" x="296.353532" y="252.482493" style="stroke: #000000"/>
     <use xlink:href="#m040e9998d4" x="302.910607" y="248.074673" style="stroke: #000000"/>
    </g>
   </g>
   <g id="PathCollection_8">
    <defs>
     <path id="ma86932ec8b" d="M 0 -3 
L -0.673542 -0.927051 
L -2.85317 -0.927051 
L -1.089814 0.354102 
L -1.763356 2.427051 
L -0 1.145898 
L 1.763356 2.427051 
L 1.089814 0.354102 
L 2.85317 -0.927051 
L 0.673542 -0.927051 
z
" style="stroke: #000000"/>
    </defs>
    <g clip-path="url(#p55e2d4584c)">
     <use xlink:href="#ma86932ec8b" x="332.405728" y="231.307286" style="stroke: #000000"/>
     <use xlink:href="#ma86932ec8b" x="336.765305" y="231.460321" style="stroke: #000000"/>
     <use xlink:href="#ma86932ec8b" x="334.100108" y="236.162755" style="stroke: #000000"/>
     <use xlink:href="#ma86932ec8b" x="341.060591" y="248.450583" style="stroke: #000000"/>
     <use xlink:href="#ma86932ec8b" x="355.675916" y="213.526299" style="stroke: #000000"/>
     <use xlink:href="#ma86932ec8b" x="392.929182" y="204.054495" style="stroke: #000000"/>
     <use xlink:href="#ma86932ec8b" x="376.96524" y="225.134681" style="stroke: #000000"/>
     <use xlink:href="#ma86932ec8b" x="389.263201" y="226.162692" style="stroke: #000000"/>
     <use xlink:href="#ma86932ec8b" x="408.987166" y="239.907704" style="stroke: #000000"/>
     <use xlink:href="#ma86932ec8b" x="425.096475" y="221.538966" style="stroke: #000000"/>
     <use xlink:href="#ma86932ec8b" x="422.062195" y="200.556386" style="stroke: #000000"/>
     <use xlink:href="#ma86932ec8b" x="413.548339" y="187.266044" style="stroke: #000000"/>
     <use xlink:href="#ma86932ec8b" x="433.531" y="174.043325" style="stroke: #000000"/>
     <use xlink:href="#ma86932ec8b" x="437.292657" y="208.440459" style="stroke: #000000"/>
     <use xlink:href="#ma86932ec8b" x="444.928866" y="206.888994" style="stroke: #000000"/>
     <use xlink:href="#ma86932ec8b" x="457.87095" y="202.353637" style="stroke: #000000"/>
     <use xlink:href="#ma86932ec8b" x="455.548247" y="198.923573" style="stroke: #000000"/>
     <use xlink:href="#ma86932ec8b" x="459.30293" y="194.366414" style="stroke: #000000"/>
     <use xlink:href="#ma86932ec8b" x="443.991938" y="166.790977" style="stroke: #000000"/>
     <use xlink:href="#ma86932ec8b" x="471.744732" y="157.724696" style="stroke: #000000"/>
     <use xlink:href="#ma86932ec8b" x="496.782201" y="166.48818" style="stroke: #000000"/>
     <use xlink:href="#ma86932ec8b" x="502.371183" y="170.924822" style="stroke: #000000"/>
     <use xlink:href="#ma86932ec8b" x="508.739303" y="175.220623" style="stroke: #000000"/>
     <use xlink:href="#ma86932ec8b" x="506.464546" y="159.233983" style="stroke: #000000"/>
     <use xlink:href="#ma86932ec8b" x="490.508886" y="137.364603" style="stroke: #000000"/>
     <use xlink:href="#ma86932ec8b" x="338.348645" y="224.614975" style="stroke: #000000"/>
    </g>
   </g>
   <g id="matplotlib.axis_1">
    <g id="xtick_1">
     <g id="line2d_1">
      <defs>
       <path id="mf9487eea8a" d="M 0 0 
L 0 3.5 
" style="stroke: #000000; stroke-width: 0.8"/>
      </defs>
      <g>
       <use xlink:href="#mf9487eea8a" x="95.751818" y="307.520246" style="stroke: #000000; stroke-width: 0.8"/>
      </g>
     </g>
     <g id="text_1">
      <!-- 0.0 -->
      <g transform="translate(87.800256 322.118683) scale(0.1 -0.1)">
       <defs>
        <path id="DejaVuSans-30" d="M 2034 4250 
Q 1547 4250 1301 3770 
Q 1056 3291 1056 2328 
Q 1056 1369 1301 889 
Q 1547 409 2034 409 
Q 2525 409 2770 889 
Q 3016 1369 3016 2328 
Q 3016 3291 2770 3770 
Q 2525 4250 2034 4250 
z
M 2034 4750 
Q 2819 4750 3233 4129 
Q 3647 3509 3647 2328 
Q 3647 1150 3233 529 
Q 2819 -91 2034 -91 
Q 1250 -91 836 529 
Q 422 1150 422 2328 
Q 422 3509 836 4129 
Q 1250 4750 2034 4750 
z
" transform="scale(0.015625)"/>
        <path id="DejaVuSans-2e" d="M 684 794 
L 1344 794 
L 1344 0 
L 684 0 
L 684 794 
z
" transform="scale(0.015625)"/>
       </defs>
       <use xlink:href="#DejaVuSans-30"/>
       <use xlink:href="#DejaVuSans-2e" x="63.623047"/>
       <use xlink:href="#DejaVuSans-30" x="95.410156"/>
      </g>
     </g>
    </g>
    <g id="xtick_2">
     <g id="line2d_2">
      <g>
       <use xlink:href="#mf9487eea8a" x="148.36574" y="307.520246" style="stroke: #000000; stroke-width: 0.8"/>
      </g>
     </g>
     <g id="text_2">
      <!-- 0.5 -->
      <g transform="translate(140.414178 322.118683) scale(0.1 -0.1)">
       <defs>
        <path id="DejaVuSans-35" d="M 691 4666 
L 3169 4666 
L 3169 4134 
L 1269 4134 
L 1269 2991 
Q 1406 3038 1543 3061 
Q 1681 3084 1819 3084 
Q 2600 3084 3056 2656 
Q 3513 2228 3513 1497 
Q 3513 744 3044 326 
Q 2575 -91 1722 -91 
Q 1428 -91 1123 -41 
Q 819 9 494 109 
L 494 744 
Q 775 591 1075 516 
Q 1375 441 1709 441 
Q 2250 441 2565 725 
Q 2881 1009 2881 1497 
Q 2881 1984 2565 2268 
Q 2250 2553 1709 2553 
Q 1456 2553 1204 2497 
Q 953 2441 691 2322 
L 691 4666 
z
" transform="scale(0.015625)"/>
       </defs>
       <use xlink:href="#DejaVuSans-30"/>
       <use xlink:href="#DejaVuSans-2e" x="63.623047"/>
       <use xlink:href="#DejaVuSans-35" x="95.410156"/>
      </g>
     </g>
    </g>
    <g id="xtick_3">
     <g id="line2d_3">
      <g>
       <use xlink:href="#mf9487eea8a" x="200.979662" y="307.520246" style="stroke: #000000; stroke-width: 0.8"/>
      </g>
     </g>
     <g id="text_3">
      <!-- 1.0 -->
      <g transform="translate(193.028099 322.118683) scale(0.1 -0.1)">
       <defs>
        <path id="DejaVuSans-31" d="M 794 531 
L 1825 531 
L 1825 4091 
L 703 3866 
L 703 4441 
L 1819 4666 
L 2450 4666 
L 2450 531 
L 3481 531 
L 3481 0 
L 794 0 
L 794 531 
z
" transform="scale(0.015625)"/>
       </defs>
       <use xlink:href="#DejaVuSans-31"/>
       <use xlink:href="#DejaVuSans-2e" x="63.623047"/>
       <use xlink:href="#DejaVuSans-30" x="95.410156"/>
      </g>
     </g>
    </g>
    <g id="xtick_4">
     <g id="line2d_4">
      <g>
       <use xlink:href="#mf9487eea8a" x="253.593584" y="307.520246" style="stroke: #000000; stroke-width: 0.8"/>
      </g>
     </g>
     <g id="text_4">
      <!-- 1.5 -->
      <g transform="translate(245.642021 322.118683) scale(0.1 -0.1)">
       <use xlink:href="#DejaVuSans-31"/>
       <use xlink:href="#DejaVuSans-2e" x="63.623047"/>
       <use xlink:href="#DejaVuSans-35" x="95.410156"/>
      </g>
     </g>
    </g>
    <g id="xtick_5">
     <g id="line2d_5">
      <g>
       <use xlink:href="#mf9487eea8a" x="306.207505" y="307.520246" style="stroke: #000000; stroke-width: 0.8"/>
      </g>
     </g>
     <g id="text_5">
      <!-- 2.0 -->
      <g transform="translate(298.255943 322.118683) scale(0.1 -0.1)">
       <defs>
        <path id="DejaVuSans-32" d="M 1228 531 
L 3431 531 
L 3431 0 
L 469 0 
L 469 531 
Q 828 903 1448 1529 
Q 2069 2156 2228 2338 
Q 2531 2678 2651 2914 
Q 2772 3150 2772 3378 
Q 2772 3750 2511 3984 
Q 2250 4219 1831 4219 
Q 1534 4219 1204 4116 
Q 875 4013 500 3803 
L 500 4441 
Q 881 4594 1212 4672 
Q 1544 4750 1819 4750 
Q 2544 4750 2975 4387 
Q 3406 4025 3406 3419 
Q 3406 3131 3298 2873 
Q 3191 2616 2906 2266 
Q 2828 2175 2409 1742 
Q 1991 1309 1228 531 
z
" transform="scale(0.015625)"/>
       </defs>
       <use xlink:href="#DejaVuSans-32"/>
       <use xlink:href="#DejaVuSans-2e" x="63.623047"/>
       <use xlink:href="#DejaVuSans-30" x="95.410156"/>
      </g>
     </g>
    </g>
    <g id="xtick_6">
     <g id="line2d_6">
      <g>
       <use xlink:href="#mf9487eea8a" x="358.821427" y="307.520246" style="stroke: #000000; stroke-width: 0.8"/>
      </g>
     </g>
     <g id="text_6">
      <!-- 2.5 -->
      <g transform="translate(350.869865 322.118683) scale(0.1 -0.1)">
       <use xlink:href="#DejaVuSans-32"/>
       <use xlink:href="#DejaVuSans-2e" x="63.623047"/>
       <use xlink:href="#DejaVuSans-35" x="95.410156"/>
      </g>
     </g>
    </g>
    <g id="xtick_7">
     <g id="line2d_7">
      <g>
       <use xlink:href="#mf9487eea8a" x="411.435349" y="307.520246" style="stroke: #000000; stroke-width: 0.8"/>
      </g>
     </g>
     <g id="text_7">
      <!-- 3.0 -->
      <g transform="translate(403.483787 322.118683) scale(0.1 -0.1)">
       <defs>
        <path id="DejaVuSans-33" d="M 2597 2516 
Q 3050 2419 3304 2112 
Q 3559 1806 3559 1356 
Q 3559 666 3084 287 
Q 2609 -91 1734 -91 
Q 1441 -91 1130 -33 
Q 819 25 488 141 
L 488 750 
Q 750 597 1062 519 
Q 1375 441 1716 441 
Q 2309 441 2620 675 
Q 2931 909 2931 1356 
Q 2931 1769 2642 2001 
Q 2353 2234 1838 2234 
L 1294 2234 
L 1294 2753 
L 1863 2753 
Q 2328 2753 2575 2939 
Q 2822 3125 2822 3475 
Q 2822 3834 2567 4026 
Q 2313 4219 1838 4219 
Q 1578 4219 1281 4162 
Q 984 4106 628 3988 
L 628 4550 
Q 988 4650 1302 4700 
Q 1616 4750 1894 4750 
Q 2613 4750 3031 4423 
Q 3450 4097 3450 3541 
Q 3450 3153 3228 2886 
Q 3006 2619 2597 2516 
z
" transform="scale(0.015625)"/>
       </defs>
       <use xlink:href="#DejaVuSans-33"/>
       <use xlink:href="#DejaVuSans-2e" x="63.623047"/>
       <use xlink:href="#DejaVuSans-30" x="95.410156"/>
      </g>
     </g>
    </g>
    <g id="xtick_8">
     <g id="line2d_8">
      <g>
       <use xlink:href="#mf9487eea8a" x="464.049271" y="307.520246" style="stroke: #000000; stroke-width: 0.8"/>
      </g>
     </g>
     <g id="text_8">
      <!-- 3.5 -->
      <g transform="translate(456.097708 322.118683) scale(0.1 -0.1)">
       <use xlink:href="#DejaVuSans-33"/>
       <use xlink:href="#DejaVuSans-2e" x="63.623047"/>
       <use xlink:href="#DejaVuSans-35" x="95.410156"/>
      </g>
     </g>
    </g>
    <g id="xtick_9">
     <g id="line2d_9">
      <g>
       <use xlink:href="#mf9487eea8a" x="516.663193" y="307.520246" style="stroke: #000000; stroke-width: 0.8"/>
      </g>
     </g>
     <g id="text_9">
      <!-- 4.0 -->
      <g transform="translate(508.71163 322.118683) scale(0.1 -0.1)">
       <defs>
        <path id="DejaVuSans-34" d="M 2419 4116 
L 825 1625 
L 2419 1625 
L 2419 4116 
z
M 2253 4666 
L 3047 4666 
L 3047 1625 
L 3713 1625 
L 3713 1100 
L 3047 1100 
L 3047 0 
L 2419 0 
L 2419 1100 
L 313 1100 
L 313 1709 
L 2253 4666 
z
" transform="scale(0.015625)"/>
       </defs>
       <use xlink:href="#DejaVuSans-34"/>
       <use xlink:href="#DejaVuSans-2e" x="63.623047"/>
       <use xlink:href="#DejaVuSans-30" x="95.410156"/>
      </g>
     </g>
    </g>
    <g id="text_10">
     <!-- Flächenverhältnis $\frac{A_d}{A_{dm}}$ -->
     <g transform="translate(253.27 338.998371) scale(0.1 -0.1)">
      <defs>
       <path id="DejaVuSans-46" d="M 628 4666 
L 3309 4666 
L 3309 4134 
L 1259 4134 
L 1259 2759 
L 3109 2759 
L 3109 2228 
L 1259 2228 
L 1259 0 
L 628 0 
L 628 4666 
z
" transform="scale(0.015625)"/>
       <path id="DejaVuSans-6c" d="M 603 4863 
L 1178 4863 
L 1178 0 
L 603 0 
L 603 4863 
z
" transform="scale(0.015625)"/>
       <path id="DejaVuSans-e4" d="M 2194 1759 
Q 1497 1759 1228 1600 
Q 959 1441 959 1056 
Q 959 750 1161 570 
Q 1363 391 1709 391 
Q 2188 391 2477 730 
Q 2766 1069 2766 1631 
L 2766 1759 
L 2194 1759 
z
M 3341 1997 
L 3341 0 
L 2766 0 
L 2766 531 
Q 2569 213 2275 61 
Q 1981 -91 1556 -91 
Q 1019 -91 701 211 
Q 384 513 384 1019 
Q 384 1609 779 1909 
Q 1175 2209 1959 2209 
L 2766 2209 
L 2766 2266 
Q 2766 2663 2505 2880 
Q 2244 3097 1772 3097 
Q 1472 3097 1187 3025 
Q 903 2953 641 2809 
L 641 3341 
Q 956 3463 1253 3523 
Q 1550 3584 1831 3584 
Q 2591 3584 2966 3190 
Q 3341 2797 3341 1997 
z
M 2150 4850 
L 2784 4850 
L 2784 4219 
L 2150 4219 
L 2150 4850 
z
M 928 4850 
L 1562 4850 
L 1562 4219 
L 928 4219 
L 928 4850 
z
" transform="scale(0.015625)"/>
       <path id="DejaVuSans-63" d="M 3122 3366 
L 3122 2828 
Q 2878 2963 2633 3030 
Q 2388 3097 2138 3097 
Q 1578 3097 1268 2742 
Q 959 2388 959 1747 
Q 959 1106 1268 751 
Q 1578 397 2138 397 
Q 2388 397 2633 464 
Q 2878 531 3122 666 
L 3122 134 
Q 2881 22 2623 -34 
Q 2366 -91 2075 -91 
Q 1284 -91 818 406 
Q 353 903 353 1747 
Q 353 2603 823 3093 
Q 1294 3584 2113 3584 
Q 2378 3584 2631 3529 
Q 2884 3475 3122 3366 
z
" transform="scale(0.015625)"/>
       <path id="DejaVuSans-68" d="M 3513 2113 
L 3513 0 
L 2938 0 
L 2938 2094 
Q 2938 2591 2744 2837 
Q 2550 3084 2163 3084 
Q 1697 3084 1428 2787 
Q 1159 2491 1159 1978 
L 1159 0 
L 581 0 
L 581 4863 
L 1159 4863 
L 1159 2956 
Q 1366 3272 1645 3428 
Q 1925 3584 2291 3584 
Q 2894 3584 3203 3211 
Q 3513 2838 3513 2113 
z
" transform="scale(0.015625)"/>
       <path id="DejaVuSans-65" d="M 3597 1894 
L 3597 1613 
L 953 1613 
Q 991 1019 1311 708 
Q 1631 397 2203 397 
Q 2534 397 2845 478 
Q 3156 559 3463 722 
L 3463 178 
Q 3153 47 2828 -22 
Q 2503 -91 2169 -91 
Q 1331 -91 842 396 
Q 353 884 353 1716 
Q 353 2575 817 3079 
Q 1281 3584 2069 3584 
Q 2775 3584 3186 3129 
Q 3597 2675 3597 1894 
z
M 3022 2063 
Q 3016 2534 2758 2815 
Q 2500 3097 2075 3097 
Q 1594 3097 1305 2825 
Q 1016 2553 972 2059 
L 3022 2063 
z
" transform="scale(0.015625)"/>
       <path id="DejaVuSans-6e" d="M 3513 2113 
L 3513 0 
L 2938 0 
L 2938 2094 
Q 2938 2591 2744 2837 
Q 2550 3084 2163 3084 
Q 1697 3084 1428 2787 
Q 1159 2491 1159 1978 
L 1159 0 
L 581 0 
L 581 3500 
L 1159 3500 
L 1159 2956 
Q 1366 3272 1645 3428 
Q 1925 3584 2291 3584 
Q 2894 3584 3203 3211 
Q 3513 2838 3513 2113 
z
" transform="scale(0.015625)"/>
       <path id="DejaVuSans-76" d="M 191 3500 
L 800 3500 
L 1894 563 
L 2988 3500 
L 3597 3500 
L 2284 0 
L 1503 0 
L 191 3500 
z
" transform="scale(0.015625)"/>
       <path id="DejaVuSans-72" d="M 2631 2963 
Q 2534 3019 2420 3045 
Q 2306 3072 2169 3072 
Q 1681 3072 1420 2755 
Q 1159 2438 1159 1844 
L 1159 0 
L 581 0 
L 581 3500 
L 1159 3500 
L 1159 2956 
Q 1341 3275 1631 3429 
Q 1922 3584 2338 3584 
Q 2397 3584 2469 3576 
Q 2541 3569 2628 3553 
L 2631 2963 
z
" transform="scale(0.015625)"/>
       <path id="DejaVuSans-74" d="M 1172 4494 
L 1172 3500 
L 2356 3500 
L 2356 3053 
L 1172 3053 
L 1172 1153 
Q 1172 725 1289 603 
Q 1406 481 1766 481 
L 2356 481 
L 2356 0 
L 1766 0 
Q 1100 0 847 248 
Q 594 497 594 1153 
L 594 3053 
L 172 3053 
L 172 3500 
L 594 3500 
L 594 4494 
L 1172 4494 
z
" transform="scale(0.015625)"/>
       <path id="DejaVuSans-69" d="M 603 3500 
L 1178 3500 
L 1178 0 
L 603 0 
L 603 3500 
z
M 603 4863 
L 1178 4863 
L 1178 4134 
L 603 4134 
L 603 4863 
z
" transform="scale(0.015625)"/>
       <path id="DejaVuSans-73" d="M 2834 3397 
L 2834 2853 
Q 2591 2978 2328 3040 
Q 2066 3103 1784 3103 
Q 1356 3103 1142 2972 
Q 928 2841 928 2578 
Q 928 2378 1081 2264 
Q 1234 2150 1697 2047 
L 1894 2003 
Q 2506 1872 2764 1633 
Q 3022 1394 3022 966 
Q 3022 478 2636 193 
Q 2250 -91 1575 -91 
Q 1294 -91 989 -36 
Q 684 19 347 128 
L 347 722 
Q 666 556 975 473 
Q 1284 391 1588 391 
Q 1994 391 2212 530 
Q 2431 669 2431 922 
Q 2431 1156 2273 1281 
Q 2116 1406 1581 1522 
L 1381 1569 
Q 847 1681 609 1914 
Q 372 2147 372 2553 
Q 372 3047 722 3315 
Q 1072 3584 1716 3584 
Q 2034 3584 2315 3537 
Q 2597 3491 2834 3397 
z
" transform="scale(0.015625)"/>
       <path id="DejaVuSans-20" transform="scale(0.015625)"/>
       <path id="DejaVuSans-Oblique-41" d="M 2356 4666 
L 3072 4666 
L 3938 0 
L 3278 0 
L 3084 1197 
L 984 1197 
L 325 0 
L -341 0 
L 2356 4666 
z
M 2584 4044 
L 1275 1722 
L 2988 1722 
L 2584 4044 
z
" transform="scale(0.015625)"/>
       <path id="DejaVuSans-Oblique-64" d="M 2675 525 
Q 2444 222 2128 65 
Q 1813 -91 1428 -91 
Q 903 -91 598 267 
Q 294 625 294 1247 
Q 294 1766 478 2236 
Q 663 2706 1013 3078 
Q 1244 3325 1534 3454 
Q 1825 3584 2144 3584 
Q 2481 3584 2739 3421 
Q 2997 3259 3138 2956 
L 3513 4863 
L 4091 4863 
L 3144 0 
L 2566 0 
L 2675 525 
z
M 891 1350 
Q 891 897 1095 644 
Q 1300 391 1663 391 
Q 1931 391 2161 520 
Q 2391 650 2566 903 
Q 2750 1166 2856 1509 
Q 2963 1853 2963 2188 
Q 2963 2622 2758 2865 
Q 2553 3109 2194 3109 
Q 1922 3109 1687 2981 
Q 1453 2853 1288 2613 
Q 1106 2353 998 2009 
Q 891 1666 891 1350 
z
" transform="scale(0.015625)"/>
       <path id="DejaVuSans-Oblique-6d" d="M 5747 2113 
L 5338 0 
L 4763 0 
L 5166 2094 
Q 5191 2228 5203 2325 
Q 5216 2422 5216 2491 
Q 5216 2772 5059 2928 
Q 4903 3084 4622 3084 
Q 4203 3084 3875 2770 
Q 3547 2456 3450 1953 
L 3066 0 
L 2491 0 
L 2900 2094 
Q 2925 2209 2937 2307 
Q 2950 2406 2950 2484 
Q 2950 2769 2794 2926 
Q 2638 3084 2363 3084 
Q 1938 3084 1609 2770 
Q 1281 2456 1184 1953 
L 800 0 
L 225 0 
L 909 3500 
L 1484 3500 
L 1375 2956 
Q 1609 3263 1923 3423 
Q 2238 3584 2597 3584 
Q 2978 3584 3223 3384 
Q 3469 3184 3519 2828 
Q 3781 3197 4126 3390 
Q 4472 3584 4856 3584 
Q 5306 3584 5551 3325 
Q 5797 3066 5797 2591 
Q 5797 2488 5784 2364 
Q 5772 2241 5747 2113 
z
" transform="scale(0.015625)"/>
      </defs>
      <use xlink:href="#DejaVuSans-46" transform="translate(0 0.987656)"/>
      <use xlink:href="#DejaVuSans-6c" transform="translate(57.519531 0.987656)"/>
      <use xlink:href="#DejaVuSans-e4" transform="translate(85.302734 0.987656)"/>
      <use xlink:href="#DejaVuSans-63" transform="translate(146.582031 0.987656)"/>
      <use xlink:href="#DejaVuSans-68" transform="translate(201.5625 0.987656)"/>
      <use xlink:href="#DejaVuSans-65" transform="translate(264.941406 0.987656)"/>
      <use xlink:href="#DejaVuSans-6e" transform="translate(326.464844 0.987656)"/>
      <use xlink:href="#DejaVuSans-76" transform="translate(389.84375 0.987656)"/>
      <use xlink:href="#DejaVuSans-65" transform="translate(449.023438 0.987656)"/>
      <use xlink:href="#DejaVuSans-72" transform="translate(510.546875 0.987656)"/>
      <use xlink:href="#DejaVuSans-68" transform="translate(551.660156 0.987656)"/>
      <use xlink:href="#DejaVuSans-e4" transform="translate(615.039062 0.987656)"/>
      <use xlink:href="#DejaVuSans-6c" transform="translate(676.318359 0.987656)"/>
      <use xlink:href="#DejaVuSans-74" transform="translate(704.101562 0.987656)"/>
      <use xlink:href="#DejaVuSans-6e" transform="translate(743.310547 0.987656)"/>
      <use xlink:href="#DejaVuSans-69" transform="translate(806.689453 0.987656)"/>
      <use xlink:href="#DejaVuSans-73" transform="translate(834.472656 0.987656)"/>
      <use xlink:href="#DejaVuSans-20" transform="translate(886.572266 0.987656)"/>
      <use xlink:href="#DejaVuSans-Oblique-41" transform="translate(942.359375 56.965625) scale(0.7)"/>
      <use xlink:href="#DejaVuSans-Oblique-64" transform="translate(990.245117 45.48125) scale(0.49)"/>
      <use xlink:href="#DejaVuSans-Oblique-41" transform="translate(918.359375 -37.499844) scale(0.7)"/>
      <use xlink:href="#DejaVuSans-Oblique-64" transform="translate(966.245117 -48.984219) scale(0.49)"/>
      <use xlink:href="#DejaVuSans-Oblique-6d" transform="translate(997.348633 -48.984219) scale(0.49)"/>
      <path d="M 918.359375 19.784531 
L 918.359375 26.034531 
L 1046.994629 26.034531 
L 1046.994629 19.784531 
L 918.359375 19.784531 
z
"/>
     </g>
    </g>
   </g>
   <g id="matplotlib.axis_2">
    <g id="ytick_1">
     <g id="line2d_10">
      <defs>
       <path id="mab03a3a9a4" d="M 0 0 
L -3.5 0 
" style="stroke: #000000; stroke-width: 0.8"/>
      </defs>
      <g>
       <use xlink:href="#mab03a3a9a4" x="74.7" y="302.232853" style="stroke: #000000; stroke-width: 0.8"/>
      </g>
     </g>
     <g id="text_11">
      <!-- 1.00 -->
      <g transform="translate(45.434375 306.032071) scale(0.1 -0.1)">
       <use xlink:href="#DejaVuSans-31"/>
       <use xlink:href="#DejaVuSans-2e" x="63.623047"/>
       <use xlink:href="#DejaVuSans-30" x="95.410156"/>
       <use xlink:href="#DejaVuSans-30" x="159.033203"/>
      </g>
     </g>
    </g>
    <g id="ytick_2">
     <g id="line2d_11">
      <g>
       <use xlink:href="#mab03a3a9a4" x="74.7" y="270.372927" style="stroke: #000000; stroke-width: 0.8"/>
      </g>
     </g>
     <g id="text_12">
      <!-- 1.25 -->
      <g transform="translate(45.434375 274.172146) scale(0.1 -0.1)">
       <use xlink:href="#DejaVuSans-31"/>
       <use xlink:href="#DejaVuSans-2e" x="63.623047"/>
       <use xlink:href="#DejaVuSans-32" x="95.410156"/>
       <use xlink:href="#DejaVuSans-35" x="159.033203"/>
      </g>
     </g>
    </g>
    <g id="ytick_3">
     <g id="line2d_12">
      <g>
       <use xlink:href="#mab03a3a9a4" x="74.7" y="238.513002" style="stroke: #000000; stroke-width: 0.8"/>
      </g>
     </g>
     <g id="text_13">
      <!-- 1.50 -->
      <g transform="translate(45.434375 242.312221) scale(0.1 -0.1)">
       <use xlink:href="#DejaVuSans-31"/>
       <use xlink:href="#DejaVuSans-2e" x="63.623047"/>
       <use xlink:href="#DejaVuSans-35" x="95.410156"/>
       <use xlink:href="#DejaVuSans-30" x="159.033203"/>
      </g>
     </g>
    </g>
    <g id="ytick_4">
     <g id="line2d_13">
      <g>
       <use xlink:href="#mab03a3a9a4" x="74.7" y="206.653077" style="stroke: #000000; stroke-width: 0.8"/>
      </g>
     </g>
     <g id="text_14">
      <!-- 1.75 -->
      <g transform="translate(45.434375 210.452296) scale(0.1 -0.1)">
       <defs>
        <path id="DejaVuSans-37" d="M 525 4666 
L 3525 4666 
L 3525 4397 
L 1831 0 
L 1172 0 
L 2766 4134 
L 525 4134 
L 525 4666 
z
" transform="scale(0.015625)"/>
       </defs>
       <use xlink:href="#DejaVuSans-31"/>
       <use xlink:href="#DejaVuSans-2e" x="63.623047"/>
       <use xlink:href="#DejaVuSans-37" x="95.410156"/>
       <use xlink:href="#DejaVuSans-35" x="159.033203"/>
      </g>
     </g>
    </g>
    <g id="ytick_5">
     <g id="line2d_14">
      <g>
       <use xlink:href="#mab03a3a9a4" x="74.7" y="174.793152" style="stroke: #000000; stroke-width: 0.8"/>
      </g>
     </g>
     <g id="text_15">
      <!-- 2.00 -->
      <g transform="translate(45.434375 178.592371) scale(0.1 -0.1)">
       <use xlink:href="#DejaVuSans-32"/>
       <use xlink:href="#DejaVuSans-2e" x="63.623047"/>
       <use xlink:href="#DejaVuSans-30" x="95.410156"/>
       <use xlink:href="#DejaVuSans-30" x="159.033203"/>
      </g>
     </g>
    </g>
    <g id="ytick_6">
     <g id="line2d_15">
      <g>
       <use xlink:href="#mab03a3a9a4" x="74.7" y="142.933227" style="stroke: #000000; stroke-width: 0.8"/>
      </g>
     </g>
     <g id="text_16">
      <!-- 2.25 -->
      <g transform="translate(45.434375 146.732445) scale(0.1 -0.1)">
       <use xlink:href="#DejaVuSans-32"/>
       <use xlink:href="#DejaVuSans-2e" x="63.623047"/>
       <use xlink:href="#DejaVuSans-32" x="95.410156"/>
       <use xlink:href="#DejaVuSans-35" x="159.033203"/>
      </g>
     </g>
    </g>
    <g id="ytick_7">
     <g id="line2d_16">
      <g>
       <use xlink:href="#mab03a3a9a4" x="74.7" y="111.073302" style="stroke: #000000; stroke-width: 0.8"/>
      </g>
     </g>
     <g id="text_17">
      <!-- 2.50 -->
      <g transform="translate(45.434375 114.87252) scale(0.1 -0.1)">
       <use xlink:href="#DejaVuSans-32"/>
       <use xlink:href="#DejaVuSans-2e" x="63.623047"/>
       <use xlink:href="#DejaVuSans-35" x="95.410156"/>
       <use xlink:href="#DejaVuSans-30" x="159.033203"/>
      </g>
     </g>
    </g>
    <g id="ytick_8">
     <g id="line2d_17">
      <g>
       <use xlink:href="#mab03a3a9a4" x="74.7" y="79.213376" style="stroke: #000000; stroke-width: 0.8"/>
      </g>
     </g>
     <g id="text_18">
      <!-- 2.75 -->
      <g transform="translate(45.434375 83.012595) scale(0.1 -0.1)">
       <use xlink:href="#DejaVuSans-32"/>
       <use xlink:href="#DejaVuSans-2e" x="63.623047"/>
       <use xlink:href="#DejaVuSans-37" x="95.410156"/>
       <use xlink:href="#DejaVuSans-35" x="159.033203"/>
      </g>
     </g>
    </g>
    <g id="text_19">
     <!-- bezogener Umformwiderstand $\frac{k_{wm}}{k_fm}}$ -->
     <g transform="translate(36.134375 264.380123) rotate(-90) scale(0.1 -0.1)">
      <defs>
       <path id="DejaVuSans-62" d="M 3116 1747 
Q 3116 2381 2855 2742 
Q 2594 3103 2138 3103 
Q 1681 3103 1420 2742 
Q 1159 2381 1159 1747 
Q 1159 1113 1420 752 
Q 1681 391 2138 391 
Q 2594 391 2855 752 
Q 3116 1113 3116 1747 
z
M 1159 2969 
Q 1341 3281 1617 3432 
Q 1894 3584 2278 3584 
Q 2916 3584 3314 3078 
Q 3713 2572 3713 1747 
Q 3713 922 3314 415 
Q 2916 -91 2278 -91 
Q 1894 -91 1617 61 
Q 1341 213 1159 525 
L 1159 0 
L 581 0 
L 581 4863 
L 1159 4863 
L 1159 2969 
z
" transform="scale(0.015625)"/>
       <path id="DejaVuSans-7a" d="M 353 3500 
L 3084 3500 
L 3084 2975 
L 922 459 
L 3084 459 
L 3084 0 
L 275 0 
L 275 525 
L 2438 3041 
L 353 3041 
L 353 3500 
z
" transform="scale(0.015625)"/>
       <path id="DejaVuSans-6f" d="M 1959 3097 
Q 1497 3097 1228 2736 
Q 959 2375 959 1747 
Q 959 1119 1226 758 
Q 1494 397 1959 397 
Q 2419 397 2687 759 
Q 2956 1122 2956 1747 
Q 2956 2369 2687 2733 
Q 2419 3097 1959 3097 
z
M 1959 3584 
Q 2709 3584 3137 3096 
Q 3566 2609 3566 1747 
Q 3566 888 3137 398 
Q 2709 -91 1959 -91 
Q 1206 -91 779 398 
Q 353 888 353 1747 
Q 353 2609 779 3096 
Q 1206 3584 1959 3584 
z
" transform="scale(0.015625)"/>
       <path id="DejaVuSans-67" d="M 2906 1791 
Q 2906 2416 2648 2759 
Q 2391 3103 1925 3103 
Q 1463 3103 1205 2759 
Q 947 2416 947 1791 
Q 947 1169 1205 825 
Q 1463 481 1925 481 
Q 2391 481 2648 825 
Q 2906 1169 2906 1791 
z
M 3481 434 
Q 3481 -459 3084 -895 
Q 2688 -1331 1869 -1331 
Q 1566 -1331 1297 -1286 
Q 1028 -1241 775 -1147 
L 775 -588 
Q 1028 -725 1275 -790 
Q 1522 -856 1778 -856 
Q 2344 -856 2625 -561 
Q 2906 -266 2906 331 
L 2906 616 
Q 2728 306 2450 153 
Q 2172 0 1784 0 
Q 1141 0 747 490 
Q 353 981 353 1791 
Q 353 2603 747 3093 
Q 1141 3584 1784 3584 
Q 2172 3584 2450 3431 
Q 2728 3278 2906 2969 
L 2906 3500 
L 3481 3500 
L 3481 434 
z
" transform="scale(0.015625)"/>
       <path id="DejaVuSans-55" d="M 556 4666 
L 1191 4666 
L 1191 1831 
Q 1191 1081 1462 751 
Q 1734 422 2344 422 
Q 2950 422 3222 751 
Q 3494 1081 3494 1831 
L 3494 4666 
L 4128 4666 
L 4128 1753 
Q 4128 841 3676 375 
Q 3225 -91 2344 -91 
Q 1459 -91 1007 375 
Q 556 841 556 1753 
L 556 4666 
z
" transform="scale(0.015625)"/>
       <path id="DejaVuSans-6d" d="M 3328 2828 
Q 3544 3216 3844 3400 
Q 4144 3584 4550 3584 
Q 5097 3584 5394 3201 
Q 5691 2819 5691 2113 
L 5691 0 
L 5113 0 
L 5113 2094 
Q 5113 2597 4934 2840 
Q 4756 3084 4391 3084 
Q 3944 3084 3684 2787 
Q 3425 2491 3425 1978 
L 3425 0 
L 2847 0 
L 2847 2094 
Q 2847 2600 2669 2842 
Q 2491 3084 2119 3084 
Q 1678 3084 1418 2786 
Q 1159 2488 1159 1978 
L 1159 0 
L 581 0 
L 581 3500 
L 1159 3500 
L 1159 2956 
Q 1356 3278 1631 3431 
Q 1906 3584 2284 3584 
Q 2666 3584 2933 3390 
Q 3200 3197 3328 2828 
z
" transform="scale(0.015625)"/>
       <path id="DejaVuSans-66" d="M 2375 4863 
L 2375 4384 
L 1825 4384 
Q 1516 4384 1395 4259 
Q 1275 4134 1275 3809 
L 1275 3500 
L 2222 3500 
L 2222 3053 
L 1275 3053 
L 1275 0 
L 697 0 
L 697 3053 
L 147 3053 
L 147 3500 
L 697 3500 
L 697 3744 
Q 697 4328 969 4595 
Q 1241 4863 1831 4863 
L 2375 4863 
z
" transform="scale(0.015625)"/>
       <path id="DejaVuSans-77" d="M 269 3500 
L 844 3500 
L 1563 769 
L 2278 3500 
L 2956 3500 
L 3675 769 
L 4391 3500 
L 4966 3500 
L 4050 0 
L 3372 0 
L 2619 2869 
L 1863 0 
L 1184 0 
L 269 3500 
z
" transform="scale(0.015625)"/>
       <path id="DejaVuSans-64" d="M 2906 2969 
L 2906 4863 
L 3481 4863 
L 3481 0 
L 2906 0 
L 2906 525 
Q 2725 213 2448 61 
Q 2172 -91 1784 -91 
Q 1150 -91 751 415 
Q 353 922 353 1747 
Q 353 2572 751 3078 
Q 1150 3584 1784 3584 
Q 2172 3584 2448 3432 
Q 2725 3281 2906 2969 
z
M 947 1747 
Q 947 1113 1208 752 
Q 1469 391 1925 391 
Q 2381 391 2643 752 
Q 2906 1113 2906 1747 
Q 2906 2381 2643 2742 
Q 2381 3103 1925 3103 
Q 1469 3103 1208 2742 
Q 947 2381 947 1747 
z
" transform="scale(0.015625)"/>
       <path id="DejaVuSans-61" d="M 2194 1759 
Q 1497 1759 1228 1600 
Q 959 1441 959 1056 
Q 959 750 1161 570 
Q 1363 391 1709 391 
Q 2188 391 2477 730 
Q 2766 1069 2766 1631 
L 2766 1759 
L 2194 1759 
z
M 3341 1997 
L 3341 0 
L 2766 0 
L 2766 531 
Q 2569 213 2275 61 
Q 1981 -91 1556 -91 
Q 1019 -91 701 211 
Q 384 513 384 1019 
Q 384 1609 779 1909 
Q 1175 2209 1959 2209 
L 2766 2209 
L 2766 2266 
Q 2766 2663 2505 2880 
Q 2244 3097 1772 3097 
Q 1472 3097 1187 3025 
Q 903 2953 641 2809 
L 641 3341 
Q 956 3463 1253 3523 
Q 1550 3584 1831 3584 
Q 2591 3584 2966 3190 
Q 3341 2797 3341 1997 
z
" transform="scale(0.015625)"/>
       <path id="DejaVuSans-Oblique-6b" d="M 1172 4863 
L 1747 4863 
L 1197 2028 
L 3169 3500 
L 3916 3500 
L 1716 1825 
L 3322 0 
L 2625 0 
L 1131 1709 
L 800 0 
L 225 0 
L 1172 4863 
z
" transform="scale(0.015625)"/>
       <path id="DejaVuSans-Oblique-77" d="M 544 3500 
L 1113 3500 
L 1259 684 
L 2566 3500 
L 3231 3500 
L 3425 684 
L 4666 3500 
L 5241 3500 
L 3641 0 
L 2969 0 
L 2797 2900 
L 1459 0 
L 781 0 
L 544 3500 
z
" transform="scale(0.015625)"/>
       <path id="DejaVuSans-Oblique-66" d="M 3059 4863 
L 2969 4384 
L 2419 4384 
Q 2106 4384 1964 4261 
Q 1822 4138 1753 3809 
L 1691 3500 
L 2638 3500 
L 2553 3053 
L 1606 3053 
L 1013 0 
L 434 0 
L 1031 3053 
L 481 3053 
L 563 3500 
L 1113 3500 
L 1159 3744 
Q 1278 4363 1576 4613 
Q 1875 4863 2516 4863 
L 3059 4863 
z
" transform="scale(0.015625)"/>
      </defs>
      <use xlink:href="#DejaVuSans-62" transform="translate(0 0.529687)"/>
      <use xlink:href="#DejaVuSans-65" transform="translate(63.476562 0.529687)"/>
      <use xlink:href="#DejaVuSans-7a" transform="translate(125 0.529687)"/>
      <use xlink:href="#DejaVuSans-6f" transform="translate(177.490234 0.529687)"/>
      <use xlink:href="#DejaVuSans-67" transform="translate(238.671875 0.529687)"/>
      <use xlink:href="#DejaVuSans-65" transform="translate(302.148438 0.529687)"/>
      <use xlink:href="#DejaVuSans-6e" transform="translate(363.671875 0.529687)"/>
      <use xlink:href="#DejaVuSans-65" transform="translate(427.050781 0.529687)"/>
      <use xlink:href="#DejaVuSans-72" transform="translate(488.574219 0.529687)"/>
      <use xlink:href="#DejaVuSans-20" transform="translate(529.6875 0.529687)"/>
      <use xlink:href="#DejaVuSans-55" transform="translate(561.474609 0.529687)"/>
      <use xlink:href="#DejaVuSans-6d" transform="translate(631.042969 0.529687)"/>
      <use xlink:href="#DejaVuSans-66" transform="translate(728.455078 0.529687)"/>
      <use xlink:href="#DejaVuSans-6f" transform="translate(763.660156 0.529687)"/>
      <use xlink:href="#DejaVuSans-72" transform="translate(824.841797 0.529687)"/>
      <use xlink:href="#DejaVuSans-6d" transform="translate(865.955078 0.529687)"/>
      <use xlink:href="#DejaVuSans-77" transform="translate(963.367188 0.529687)"/>
      <use xlink:href="#DejaVuSans-69" transform="translate(1045.154297 0.529687)"/>
      <use xlink:href="#DejaVuSans-64" transform="translate(1072.9375 0.529687)"/>
      <use xlink:href="#DejaVuSans-65" transform="translate(1136.414062 0.529687)"/>
      <use xlink:href="#DejaVuSans-72" transform="translate(1197.9375 0.529687)"/>
      <use xlink:href="#DejaVuSans-73" transform="translate(1239.050781 0.529687)"/>
      <use xlink:href="#DejaVuSans-74" transform="translate(1291.150391 0.529687)"/>
      <use xlink:href="#DejaVuSans-61" transform="translate(1330.359375 0.529687)"/>
      <use xlink:href="#DejaVuSans-6e" transform="translate(1391.638672 0.529687)"/>
      <use xlink:href="#DejaVuSans-64" transform="translate(1455.017578 0.529687)"/>
      <use xlink:href="#DejaVuSans-20" transform="translate(1518.494141 0.529687)"/>
      <use xlink:href="#DejaVuSans-Oblique-6b" transform="translate(1550.28125 55.810938) scale(0.7)"/>
      <use xlink:href="#DejaVuSans-Oblique-77" transform="translate(1590.818359 44.326562) scale(0.49)"/>
      <use xlink:href="#DejaVuSans-Oblique-6d" transform="translate(1630.894043 44.326562) scale(0.49)"/>
      <use xlink:href="#DejaVuSans-Oblique-6b" transform="translate(1551.28125 -40.1125) scale(0.7)"/>
      <use xlink:href="#DejaVuSans-Oblique-66" transform="translate(1591.818359 -51.596875) scale(0.49)"/>
      <use xlink:href="#DejaVuSans-Oblique-6d" transform="translate(1610.98291 -40.1125) scale(0.7)"/>
      <path d="M 1550.28125 19.326562 
L 1550.28125 25.576562 
L 1680.540039 25.576562 
L 1680.540039 19.326562 
L 1550.28125 19.326562 
z
"/>
     </g>
    </g>
   </g>
   <g id="line2d_18">
    <path d="M 95.751818 67.54319 
L 100.003448 68.120387 
L 104.255078 70.201219 
L 108.506708 73.734226 
L 112.758338 78.635763 
L 117.009968 84.79308 
L 121.261598 92.068389 
L 125.513229 100.303753 
L 129.764859 109.326511 
L 134.016489 118.955018 
L 138.268119 129.004411 
L 142.519749 139.292154 
L 146.771379 149.643146 
L 151.023009 159.894187 
L 155.274639 169.897666 
L 159.526269 179.524374 
L 163.777899 188.665413 
L 168.029529 197.233177 
L 172.281159 205.161499 
L 176.532789 212.405009 
L 180.784419 218.937856 
L 185.036049 224.751896 
L 189.287679 229.854519 
L 193.539309 234.266227 
L 197.790939 238.018122 
L 202.042569 241.149403 
L 206.294199 243.704991 
L 210.545829 245.733337 
L 214.797459 247.284495 
L 219.04909 248.408477 
L 223.30072 249.153908 
L 227.55235 249.566989 
L 231.80398 249.690734 
L 236.05561 249.564478 
L 240.30724 249.2236 
L 244.55887 248.699441 
L 248.8105 248.019371 
L 253.06213 247.206975 
L 257.31376 246.282318 
L 261.56539 245.262259 
L 265.81702 244.160803 
L 270.06865 242.989449 
L 274.32028 241.757534 
L 278.57191 240.47256 
L 282.82354 239.140491 
L 287.07517 237.766021 
L 291.3268 236.352804 
L 295.57843 234.903661 
L 299.83006 233.420746 
L 304.08169 231.905686 
L 308.333321 230.359704 
L 312.584951 228.783705 
L 316.836581 227.178357 
L 321.088211 225.544144 
L 325.339841 223.881419 
L 329.591471 222.190431 
L 333.843101 220.47136 
L 338.094731 218.724331 
L 342.346361 216.94943 
L 346.597991 215.146718 
L 350.849621 213.316237 
L 355.101251 211.458015 
L 359.352881 209.57207 
L 363.604511 207.658415 
L 367.856141 205.717058 
L 372.107771 203.748006 
L 376.359401 201.751261 
L 380.611031 199.726826 
L 384.862661 197.674702 
L 389.114291 195.59489 
L 393.365921 193.487391 
L 397.617551 191.352206 
L 401.869182 189.189333 
L 406.120812 186.998774 
L 410.372442 184.780529 
L 414.624072 182.534598 
L 418.875702 180.26098 
L 423.127332 177.959676 
L 427.378962 175.630686 
L 431.630592 173.274009 
L 435.882222 170.889646 
L 440.133852 168.477597 
L 444.385482 166.037862 
L 448.637112 163.57044 
L 452.888742 161.075333 
L 457.140372 158.552538 
L 461.392002 156.002058 
L 465.643632 153.423892 
L 469.895262 150.818039 
L 474.146892 148.1845 
L 478.398522 145.523274 
L 482.650152 142.834363 
L 486.901782 140.117765 
L 491.153413 137.373481 
L 495.405043 134.601511 
L 499.656673 131.801854 
L 503.908303 128.974511 
L 508.159933 126.119482 
L 512.411563 123.236767 
L 516.663193 120.326365 
" clip-path="url(#p55e2d4584c)" style="fill: none; stroke-dasharray: 5.55,2.4; stroke-dashoffset: 0; stroke: #000000; stroke-width: 1.5"/>
   </g>
   <g id="line2d_19">
    <path d="M 95.751818 63.461829 
L 100.003448 82.869268 
L 104.255078 102.322743 
L 108.506708 121.582338 
L 112.758338 140.227433 
L 117.009968 157.783696 
L 121.261598 173.841313 
L 125.513229 188.134793 
L 129.764859 200.571604 
L 134.016489 211.214914 
L 138.268119 220.237606 
L 142.519749 227.867851 
L 146.771379 234.34219 
L 151.023009 239.874292 
L 155.274639 244.640196 
L 159.526269 248.776235 
L 163.777899 252.384321 
L 168.029529 255.539954 
L 172.281159 258.299982 
L 176.532789 260.70874 
L 180.784419 262.802316 
L 185.036049 264.611258 
L 189.287679 266.162189 
L 193.539309 267.47874 
L 197.790939 268.582105 
L 202.042569 269.491392 
L 206.294199 270.223872 
L 210.545829 270.79517 
L 214.797459 271.219427 
L 219.04909 271.509448 
L 223.30072 271.676821 
L 227.55235 271.732042 
L 231.80398 271.684611 
L 236.05561 271.543129 
L 240.30724 271.315382 
L 244.55887 271.008422 
L 248.8105 270.628631 
L 253.06213 270.181788 
L 257.31376 269.673124 
L 261.56539 269.107376 
L 265.81702 268.488833 
L 270.06865 267.821377 
L 274.32028 267.108523 
L 278.57191 266.353453 
L 282.82354 265.559048 
L 287.07517 264.727917 
L 291.3268 263.862421 
L 295.57843 262.964699 
L 299.83006 262.036686 
L 304.08169 261.080134 
L 308.333321 260.09663 
L 312.584951 259.08761 
L 316.836581 258.054375 
L 321.088211 256.998103 
L 325.339841 255.919859 
L 329.591471 254.820608 
L 333.843101 253.701225 
L 338.094731 252.562499 
L 342.346361 251.405148 
L 346.597991 250.229819 
L 350.849621 249.0371 
L 355.101251 247.827522 
L 359.352881 246.601566 
L 363.604511 245.359669 
L 367.856141 244.102223 
L 372.107771 242.829586 
L 376.359401 241.542083 
L 380.611031 240.240004 
L 384.862661 238.923616 
L 389.114291 237.593157 
L 393.365921 236.248846 
L 397.617551 234.890879 
L 401.869182 233.519434 
L 406.120812 232.134671 
L 410.372442 230.736738 
L 414.624072 229.325766 
L 418.875702 227.901874 
L 423.127332 226.465172 
L 427.378962 225.015756 
L 431.630592 223.553716 
L 435.882222 222.079133 
L 440.133852 220.592078 
L 444.385482 219.092618 
L 448.637112 217.580812 
L 452.888742 216.056714 
L 457.140372 214.520374 
L 461.392002 212.971835 
L 465.643632 211.411138 
L 469.895262 209.838319 
L 474.146892 208.25341 
L 478.398522 206.656441 
L 482.650152 205.04744 
L 486.901782 203.42643 
L 491.153413 201.793434 
L 495.405043 200.148472 
L 499.656673 198.491562 
L 503.908303 196.822719 
L 508.159933 195.14196 
L 512.411563 193.449297 
L 516.663193 191.744742 
" clip-path="url(#p55e2d4584c)" style="fill: none; stroke: #ff0000; stroke-width: 1.5; stroke-linecap: square"/>
   </g>
   <g id="line2d_20">
    <path d="M 95.751818 130.351189 
L 100.003448 141.458178 
L 104.255078 151.987559 
L 108.506708 162.100385 
L 112.758338 171.907657 
L 117.009968 181.476834 
L 121.261598 190.838661 
L 125.513229 199.994141 
L 129.764859 208.921489 
L 134.016489 217.582846 
L 138.268119 225.930544 
L 142.519749 233.912743 
L 146.771379 241.478275 
L 151.023009 248.580597 
L 155.274639 255.180788 
L 159.526269 261.249594 
L 163.777899 266.76856 
L 168.029529 271.730349 
L 172.281159 276.138358 
L 176.532789 280.005777 
L 180.784419 283.35425 
L 185.036049 286.212279 
L 189.287679 288.613505 
L 193.539309 290.595005 
L 197.790939 292.195683 
L 202.042569 293.454834 
L 206.294199 294.410936 
L 210.545829 295.100682 
L 214.797459 295.558255 
L 219.04909 295.814854 
L 223.30072 295.898417 
L 227.55235 295.83353 
L 231.80398 295.641486 
L 236.05561 295.340451 
L 240.30724 294.9457 
L 244.55887 294.469912 
L 248.8105 293.923478 
L 253.06213 293.314813 
L 257.31376 292.650662 
L 261.56539 291.936371 
L 265.81702 291.176143 
L 270.06865 290.373253 
L 274.32028 289.530237 
L 278.57191 288.649044 
L 282.82354 287.731168 
L 287.07517 286.777751 
L 291.3268 285.789662 
L 295.57843 284.767569 
L 299.83006 283.711981 
L 304.08169 282.623291 
L 308.333321 281.501804 
L 312.584951 280.347759 
L 316.836581 279.161345 
L 321.088211 277.942712 
L 325.339841 276.691982 
L 329.591471 275.409255 
L 333.843101 274.094614 
L 338.094731 272.748125 
L 342.346361 271.369846 
L 346.597991 269.959827 
L 350.849621 268.518106 
L 355.101251 267.04472 
L 359.352881 265.539698 
L 363.604511 264.003065 
L 367.856141 262.434843 
L 372.107771 260.835052 
L 376.359401 259.203706 
L 380.611031 257.54082 
L 384.862661 255.846406 
L 389.114291 254.120473 
L 393.365921 252.363032 
L 397.617551 250.574088 
L 401.869182 248.75365 
L 406.120812 246.901722 
L 410.372442 245.018309 
L 414.624072 243.103416 
L 418.875702 241.157046 
L 423.127332 239.179202 
L 427.378962 237.169887 
L 431.630592 235.129103 
L 435.882222 233.056852 
L 440.133852 230.953136 
L 444.385482 228.817956 
L 448.637112 226.651313 
L 452.888742 224.45321 
L 457.140372 222.223645 
L 461.392002 219.962621 
L 465.643632 217.670138 
L 469.895262 215.346197 
L 474.146892 212.990798 
L 478.398522 210.603941 
L 482.650152 208.185627 
L 486.901782 205.735857 
L 491.153413 203.25463 
L 495.405043 200.741947 
L 499.656673 198.197808 
L 503.908303 195.622213 
L 508.159933 193.015163 
L 512.411563 190.376657 
L 516.663193 187.706695 
" clip-path="url(#p55e2d4584c)" style="fill: none; stroke-dasharray: 5.55,2.4; stroke-dashoffset: 0; stroke: #000000; stroke-width: 1.5"/>
   </g>
   <g id="patch_3">
    <path d="M 74.7 307.520246 
L 74.7 51.84 
" style="fill: none; stroke: #000000; stroke-width: 0.8; stroke-linejoin: miter; stroke-linecap: square"/>
   </g>
   <g id="patch_4">
    <path d="M 537.84 307.520246 
L 537.84 51.84 
" style="fill: none; stroke: #000000; stroke-width: 0.8; stroke-linejoin: miter; stroke-linecap: square"/>
   </g>
   <g id="patch_5">
    <path d="M 74.7 307.520246 
L 537.84 307.520246 
" style="fill: none; stroke: #000000; stroke-width: 0.8; stroke-linejoin: miter; stroke-linecap: square"/>
   </g>
   <g id="patch_6">
    <path d="M 74.7 51.84 
L 537.84 51.84 
" style="fill: none; stroke: #000000; stroke-width: 0.8; stroke-linejoin: miter; stroke-linecap: square"/>
   </g>
   <g id="text_20">
    <g id="patch_7">
     <path d="M 385.0038 111.923782 
L 493.4838 111.923782 
Q 497.0838 111.923782 497.0838 108.323782 
L 497.0838 58.646032 
Q 497.0838 55.046032 493.4838 55.046032 
L 385.0038 55.046032 
Q 381.4038 55.046032 381.4038 58.646032 
L 381.4038 108.323782 
Q 381.4038 111.923782 385.0038 111.923782 
z
" style="fill: #ffffff; opacity: 0.5; stroke: #000000; stroke-linejoin: miter"/>
    </g>
    <!-- $v_w=0.1...10 \frac{m}{s}$ -->
    <g transform="translate(385.0038 69.470407) scale(0.12 -0.12)">
     <defs>
      <path id="DejaVuSans-Oblique-76" d="M 459 3500 
L 1069 3500 
L 1581 525 
L 3256 3500 
L 3866 3500 
L 1875 0 
L 1100 0 
L 459 3500 
z
" transform="scale(0.015625)"/>
      <path id="DejaVuSans-3d" d="M 678 2906 
L 4684 2906 
L 4684 2381 
L 678 2381 
L 678 2906 
z
M 678 1631 
L 4684 1631 
L 4684 1100 
L 678 1100 
L 678 1631 
z
" transform="scale(0.015625)"/>
      <path id="DejaVuSans-Oblique-73" d="M 3200 3397 
L 3091 2853 
Q 2863 2978 2609 3040 
Q 2356 3103 2088 3103 
Q 1634 3103 1373 2948 
Q 1113 2794 1113 2528 
Q 1113 2219 1719 2053 
Q 1766 2041 1788 2034 
L 1972 1978 
Q 2547 1819 2739 1644 
Q 2931 1469 2931 1166 
Q 2931 609 2489 259 
Q 2047 -91 1331 -91 
Q 1053 -91 747 -37 
Q 441 16 72 128 
L 184 722 
Q 500 559 806 475 
Q 1113 391 1394 391 
Q 1816 391 2080 572 
Q 2344 753 2344 1031 
Q 2344 1331 1650 1516 
L 1591 1531 
L 1394 1581 
Q 956 1697 753 1886 
Q 550 2075 550 2369 
Q 550 2928 970 3256 
Q 1391 3584 2113 3584 
Q 2397 3584 2667 3537 
Q 2938 3491 3200 3397 
z
" transform="scale(0.015625)"/>
     </defs>
     <use xlink:href="#DejaVuSans-Oblique-76" transform="translate(0 0.003125)"/>
     <use xlink:href="#DejaVuSans-Oblique-77" transform="translate(59.179688 -16.403125) scale(0.7)"/>
     <use xlink:href="#DejaVuSans-3d" transform="translate(138.647461 0.003125)"/>
     <use xlink:href="#DejaVuSans-30" transform="translate(241.918945 0.003125)"/>
     <use xlink:href="#DejaVuSans-2e" transform="translate(305.541992 0.003125)"/>
     <use xlink:href="#DejaVuSans-31" transform="translate(337.329102 0.003125)"/>
     <use xlink:href="#DejaVuSans-2e" transform="translate(400.952148 0.003125)"/>
     <use xlink:href="#DejaVuSans-2e" transform="translate(452.22168 0.003125)"/>
     <use xlink:href="#DejaVuSans-2e" transform="translate(503.491211 0.003125)"/>
     <use xlink:href="#DejaVuSans-31" transform="translate(554.760742 0.003125)"/>
     <use xlink:href="#DejaVuSans-30" transform="translate(618.383789 0.003125)"/>
     <use xlink:href="#DejaVuSans-Oblique-6d" transform="translate(682.006836 43.8) scale(0.7)"/>
     <use xlink:href="#DejaVuSans-Oblique-73" transform="translate(698.006836 -26.65) scale(0.7)"/>
     <path d="M 682.006836 18.8 
L 682.006836 25.05 
L 750.195312 25.05 
L 750.195312 18.8 
L 682.006836 18.8 
z
"/>
    </g>
    <!-- $\frac{b_k}{h_k}=1.25...4.4$ -->
    <g transform="translate(385.0038 88.526407) scale(0.12 -0.12)">
     <defs>
      <path id="DejaVuSans-Oblique-62" d="M 3169 2138 
Q 3169 2591 2961 2847 
Q 2753 3103 2388 3103 
Q 2122 3103 1889 2973 
Q 1656 2844 1484 2597 
Q 1303 2338 1198 1995 
Q 1094 1653 1094 1313 
Q 1094 881 1298 636 
Q 1503 391 1863 391 
Q 2134 391 2365 517 
Q 2597 644 2772 891 
Q 2950 1147 3059 1487 
Q 3169 1828 3169 2138 
z
M 1381 2969 
Q 1594 3256 1914 3420 
Q 2234 3584 2584 3584 
Q 3122 3584 3439 3221 
Q 3756 2859 3756 2241 
Q 3756 1734 3570 1259 
Q 3384 784 3041 416 
Q 2816 172 2522 40 
Q 2228 -91 1906 -91 
Q 1566 -91 1316 65 
Q 1066 222 909 531 
L 806 0 
L 231 0 
L 1178 4863 
L 1753 4863 
L 1381 2969 
z
" transform="scale(0.015625)"/>
      <path id="DejaVuSans-Oblique-68" d="M 3566 2113 
L 3156 0 
L 2578 0 
L 2988 2091 
Q 3016 2238 3031 2350 
Q 3047 2463 3047 2528 
Q 3047 2791 2881 2937 
Q 2716 3084 2419 3084 
Q 1956 3084 1617 2771 
Q 1278 2459 1178 1941 
L 800 0 
L 225 0 
L 1172 4863 
L 1747 4863 
L 1375 2950 
Q 1594 3244 1934 3414 
Q 2275 3584 2650 3584 
Q 3113 3584 3367 3334 
Q 3622 3084 3622 2631 
Q 3622 2519 3608 2391 
Q 3594 2263 3566 2113 
z
" transform="scale(0.015625)"/>
     </defs>
     <use xlink:href="#DejaVuSans-Oblique-62" transform="translate(0 55.810938) scale(0.7)"/>
     <use xlink:href="#DejaVuSans-Oblique-6b" transform="translate(44.433594 44.326562) scale(0.49)"/>
     <use xlink:href="#DejaVuSans-Oblique-68" transform="translate(0 -40.1125) scale(0.7)"/>
     <use xlink:href="#DejaVuSans-Oblique-6b" transform="translate(44.365234 -51.596875) scale(0.49)"/>
     <use xlink:href="#DejaVuSans-3d" transform="translate(106.706055 0.529687)"/>
     <use xlink:href="#DejaVuSans-31" transform="translate(209.977539 0.529687)"/>
     <use xlink:href="#DejaVuSans-2e" transform="translate(273.600586 0.529687)"/>
     <use xlink:href="#DejaVuSans-32" transform="translate(299.887695 0.529687)"/>
     <use xlink:href="#DejaVuSans-35" transform="translate(363.510742 0.529687)"/>
     <use xlink:href="#DejaVuSans-2e" transform="translate(427.133789 0.529687)"/>
     <use xlink:href="#DejaVuSans-2e" transform="translate(478.40332 0.529687)"/>
     <use xlink:href="#DejaVuSans-2e" transform="translate(529.672852 0.529687)"/>
     <use xlink:href="#DejaVuSans-34" transform="translate(580.942383 0.529687)"/>
     <use xlink:href="#DejaVuSans-2e" transform="translate(644.56543 0.529687)"/>
     <use xlink:href="#DejaVuSans-34" transform="translate(676.352539 0.529687)"/>
     <path d="M 0 19.326562 
L 0 25.576562 
L 74.723633 25.576562 
L 74.723633 19.326562 
L 0 19.326562 
z
"/>
    </g>
    <!-- $\vartheta=800...1200°C$ -->
    <g transform="translate(385.0038 105.828157) scale(0.12 -0.12)">
     <defs>
      <path id="DejaVuSans-Oblique-3d1" d="M 3009 2750 
Q 3178 3519 3081 3913 
Q 2950 4444 2513 4444 
Q 2253 4444 2009 4222 
Q 1794 4016 1741 3734 
Q 1647 3256 1959 2922 
Q 2150 2719 3009 2750 
z
M 2913 2219 
Q 1944 2191 1581 2422 
Q 994 2797 1175 3719 
Q 1272 4219 1663 4563 
Q 2056 4913 2603 4913 
Q 3256 4913 3550 4250 
Q 3828 3625 3566 2422 
Q 3303 1213 2781 594 
Q 2225 -72 1475 -72 
Q 734 -72 425 594 
Q 97 1297 419 2753 
L 1028 2750 
Q 694 1556 928 884 
Q 1100 400 1566 400 
Q 2016 400 2391 888 
Q 2788 1406 2913 2219 
z
" transform="scale(0.015625)"/>
      <path id="DejaVuSans-38" d="M 2034 2216 
Q 1584 2216 1326 1975 
Q 1069 1734 1069 1313 
Q 1069 891 1326 650 
Q 1584 409 2034 409 
Q 2484 409 2743 651 
Q 3003 894 3003 1313 
Q 3003 1734 2745 1975 
Q 2488 2216 2034 2216 
z
M 1403 2484 
Q 997 2584 770 2862 
Q 544 3141 544 3541 
Q 544 4100 942 4425 
Q 1341 4750 2034 4750 
Q 2731 4750 3128 4425 
Q 3525 4100 3525 3541 
Q 3525 3141 3298 2862 
Q 3072 2584 2669 2484 
Q 3125 2378 3379 2068 
Q 3634 1759 3634 1313 
Q 3634 634 3220 271 
Q 2806 -91 2034 -91 
Q 1263 -91 848 271 
Q 434 634 434 1313 
Q 434 1759 690 2068 
Q 947 2378 1403 2484 
z
M 1172 3481 
Q 1172 3119 1398 2916 
Q 1625 2713 2034 2713 
Q 2441 2713 2670 2916 
Q 2900 3119 2900 3481 
Q 2900 3844 2670 4047 
Q 2441 4250 2034 4250 
Q 1625 4250 1398 4047 
Q 1172 3844 1172 3481 
z
" transform="scale(0.015625)"/>
      <path id="DejaVuSans-b0" d="M 1600 4347 
Q 1350 4347 1178 4173 
Q 1006 4000 1006 3750 
Q 1006 3503 1178 3333 
Q 1350 3163 1600 3163 
Q 1850 3163 2022 3333 
Q 2194 3503 2194 3750 
Q 2194 3997 2020 4172 
Q 1847 4347 1600 4347 
z
M 1600 4750 
Q 1800 4750 1984 4673 
Q 2169 4597 2303 4453 
Q 2447 4313 2519 4134 
Q 2591 3956 2591 3750 
Q 2591 3338 2302 3052 
Q 2013 2766 1594 2766 
Q 1172 2766 890 3047 
Q 609 3328 609 3750 
Q 609 4169 896 4459 
Q 1184 4750 1600 4750 
z
" transform="scale(0.015625)"/>
      <path id="DejaVuSans-Oblique-43" d="M 4447 4306 
L 4319 3641 
Q 4019 3944 3683 4091 
Q 3347 4238 2956 4238 
Q 2422 4238 2017 3981 
Q 1613 3725 1319 3200 
Q 1131 2863 1032 2486 
Q 934 2109 934 1728 
Q 934 1091 1264 756 
Q 1594 422 2222 422 
Q 2656 422 3056 561 
Q 3456 700 3834 978 
L 3688 231 
Q 3316 72 2936 -9 
Q 2556 -91 2175 -91 
Q 1278 -91 773 396 
Q 269 884 269 1753 
Q 269 2309 461 2846 
Q 653 3384 1013 3828 
Q 1394 4300 1883 4525 
Q 2372 4750 3022 4750 
Q 3422 4750 3780 4639 
Q 4138 4528 4447 4306 
z
" transform="scale(0.015625)"/>
     </defs>
     <use xlink:href="#DejaVuSans-Oblique-3d1" transform="translate(0 0.234375)"/>
     <use xlink:href="#DejaVuSans-3d" transform="translate(81.396484 0.234375)"/>
     <use xlink:href="#DejaVuSans-38" transform="translate(184.667969 0.234375)"/>
     <use xlink:href="#DejaVuSans-30" transform="translate(248.291016 0.234375)"/>
     <use xlink:href="#DejaVuSans-30" transform="translate(311.914062 0.234375)"/>
     <use xlink:href="#DejaVuSans-2e" transform="translate(375.537109 0.234375)"/>
     <use xlink:href="#DejaVuSans-2e" transform="translate(426.806641 0.234375)"/>
     <use xlink:href="#DejaVuSans-2e" transform="translate(478.076172 0.234375)"/>
     <use xlink:href="#DejaVuSans-31" transform="translate(529.345703 0.234375)"/>
     <use xlink:href="#DejaVuSans-32" transform="translate(592.96875 0.234375)"/>
     <use xlink:href="#DejaVuSans-30" transform="translate(656.591797 0.234375)"/>
     <use xlink:href="#DejaVuSans-30" transform="translate(720.214844 0.234375)"/>
     <use xlink:href="#DejaVuSans-b0" transform="translate(783.837891 0.234375)"/>
     <use xlink:href="#DejaVuSans-Oblique-43" transform="translate(833.837891 0.234375)"/>
    </g>
   </g>
  </g>
  <g id="legend_1">
   <g id="patch_8">
    <path d="M 69.1 396.76 
L 528.5 396.76 
Q 530.5 396.76 530.5 394.76 
L 530.5 351.680313 
Q 530.5 349.680313 528.5 349.680313 
L 69.1 349.680313 
Q 67.1 349.680313 67.1 351.680313 
L 67.1 394.76 
Q 67.1 396.76 69.1 396.76 
z
" style="fill: #ffffff; opacity: 0.8; stroke: #cccccc; stroke-linejoin: miter"/>
   </g>
   <g id="line2d_21">
    <defs>
     <path id="me1443407ad" d="M -3 3 
L 3 3 
L 3 -3 
L -3 -3 
z
" style="stroke: #000000; stroke-linejoin: miter"/>
    </defs>
    <g>
     <use xlink:href="#me1443407ad" x="81.1" y="357.780312" style="stroke: #000000; stroke-linejoin: miter"/>
    </g>
   </g>
   <g id="text_21">
    <!-- box $\rightarrow$ box -->
    <g transform="translate(99.1 361.280312) scale(0.1 -0.1)">
     <defs>
      <path id="DejaVuSans-78" d="M 3513 3500 
L 2247 1797 
L 3578 0 
L 2900 0 
L 1881 1375 
L 863 0 
L 184 0 
L 1544 1831 
L 300 3500 
L 978 3500 
L 1906 2253 
L 2834 3500 
L 3513 3500 
z
" transform="scale(0.015625)"/>
      <path id="DejaVuSans-2192" d="M 5050 2147 
L 5050 1866 
L 3822 638 
L 3447 1013 
L 4175 1741 
L 366 1741 
L 366 2272 
L 4175 2272 
L 3447 3000 
L 3822 3375 
L 5050 2147 
z
" transform="scale(0.015625)"/>
     </defs>
     <use xlink:href="#DejaVuSans-62" transform="translate(0 0.015625)"/>
     <use xlink:href="#DejaVuSans-6f" transform="translate(63.476562 0.015625)"/>
     <use xlink:href="#DejaVuSans-78" transform="translate(124.658203 0.015625)"/>
     <use xlink:href="#DejaVuSans-20" transform="translate(183.837891 0.015625)"/>
     <use xlink:href="#DejaVuSans-2192" transform="translate(235.107422 0.015625)"/>
     <use xlink:href="#DejaVuSans-20" transform="translate(338.378906 0.015625)"/>
     <use xlink:href="#DejaVuSans-62" transform="translate(370.166016 0.015625)"/>
     <use xlink:href="#DejaVuSans-6f" transform="translate(433.642578 0.015625)"/>
     <use xlink:href="#DejaVuSans-78" transform="translate(494.824219 0.015625)"/>
    </g>
   </g>
   <g id="line2d_22">
    <defs>
     <path id="m1a41329d47" d="M -3 3 
L 3 -3 
M -3 -3 
L 3 3 
" style="stroke: #000000"/>
    </defs>
    <g>
     <use xlink:href="#m1a41329d47" x="81.1" y="372.46" style="stroke: #000000"/>
    </g>
   </g>
   <g id="text_22">
    <!-- diamond $\rightarrow$ square -->
    <g transform="translate(99.1 375.96) scale(0.1 -0.1)">
     <defs>
      <path id="DejaVuSans-71" d="M 947 1747 
Q 947 1113 1208 752 
Q 1469 391 1925 391 
Q 2381 391 2643 752 
Q 2906 1113 2906 1747 
Q 2906 2381 2643 2742 
Q 2381 3103 1925 3103 
Q 1469 3103 1208 2742 
Q 947 2381 947 1747 
z
M 2906 525 
Q 2725 213 2448 61 
Q 2172 -91 1784 -91 
Q 1150 -91 751 415 
Q 353 922 353 1747 
Q 353 2572 751 3078 
Q 1150 3584 1784 3584 
Q 2172 3584 2448 3432 
Q 2725 3281 2906 2969 
L 2906 3500 
L 3481 3500 
L 3481 -1331 
L 2906 -1331 
L 2906 525 
z
" transform="scale(0.015625)"/>
      <path id="DejaVuSans-75" d="M 544 1381 
L 544 3500 
L 1119 3500 
L 1119 1403 
Q 1119 906 1312 657 
Q 1506 409 1894 409 
Q 2359 409 2629 706 
Q 2900 1003 2900 1516 
L 2900 3500 
L 3475 3500 
L 3475 0 
L 2900 0 
L 2900 538 
Q 2691 219 2414 64 
Q 2138 -91 1772 -91 
Q 1169 -91 856 284 
Q 544 659 544 1381 
z
M 1991 3584 
L 1991 3584 
z
" transform="scale(0.015625)"/>
     </defs>
     <use xlink:href="#DejaVuSans-64" transform="translate(0 0.015625)"/>
     <use xlink:href="#DejaVuSans-69" transform="translate(63.476562 0.015625)"/>
     <use xlink:href="#DejaVuSans-61" transform="translate(91.259766 0.015625)"/>
     <use xlink:href="#DejaVuSans-6d" transform="translate(152.539062 0.015625)"/>
     <use xlink:href="#DejaVuSans-6f" transform="translate(249.951172 0.015625)"/>
     <use xlink:href="#DejaVuSans-6e" transform="translate(311.132812 0.015625)"/>
     <use xlink:href="#DejaVuSans-64" transform="translate(374.511719 0.015625)"/>
     <use xlink:href="#DejaVuSans-20" transform="translate(437.988281 0.015625)"/>
     <use xlink:href="#DejaVuSans-2192" transform="translate(489.257812 0.015625)"/>
     <use xlink:href="#DejaVuSans-20" transform="translate(592.529297 0.015625)"/>
     <use xlink:href="#DejaVuSans-73" transform="translate(624.316406 0.015625)"/>
     <use xlink:href="#DejaVuSans-71" transform="translate(676.416016 0.015625)"/>
     <use xlink:href="#DejaVuSans-75" transform="translate(739.892578 0.015625)"/>
     <use xlink:href="#DejaVuSans-61" transform="translate(803.271484 0.015625)"/>
     <use xlink:href="#DejaVuSans-72" transform="translate(864.550781 0.015625)"/>
     <use xlink:href="#DejaVuSans-65" transform="translate(905.664062 0.015625)"/>
    </g>
   </g>
   <g id="line2d_23">
    <defs>
     <path id="ma985102f6c" d="M 0 0 
L 0 3 
M 0 0 
L 2.4 -1.5 
M 0 0 
L -2.4 -1.5 
" style="stroke: #000000"/>
    </defs>
    <g>
     <use xlink:href="#ma985102f6c" x="81.1" y="387.16" style="stroke: #000000"/>
    </g>
   </g>
   <g id="text_23">
    <!-- swedish oval $\rightarrow$ square -->
    <g transform="translate(99.1 390.66) scale(0.1 -0.1)">
     <use xlink:href="#DejaVuSans-73" transform="translate(0 0.015625)"/>
     <use xlink:href="#DejaVuSans-77" transform="translate(52.099609 0.015625)"/>
     <use xlink:href="#DejaVuSans-65" transform="translate(133.886719 0.015625)"/>
     <use xlink:href="#DejaVuSans-64" transform="translate(195.410156 0.015625)"/>
     <use xlink:href="#DejaVuSans-69" transform="translate(258.886719 0.015625)"/>
     <use xlink:href="#DejaVuSans-73" transform="translate(286.669922 0.015625)"/>
     <use xlink:href="#DejaVuSans-68" transform="translate(338.769531 0.015625)"/>
     <use xlink:href="#DejaVuSans-20" transform="translate(402.148438 0.015625)"/>
     <use xlink:href="#DejaVuSans-6f" transform="translate(433.935547 0.015625)"/>
     <use xlink:href="#DejaVuSans-76" transform="translate(495.117188 0.015625)"/>
     <use xlink:href="#DejaVuSans-61" transform="translate(554.296875 0.015625)"/>
     <use xlink:href="#DejaVuSans-6c" transform="translate(615.576172 0.015625)"/>
     <use xlink:href="#DejaVuSans-20" transform="translate(643.359375 0.015625)"/>
     <use xlink:href="#DejaVuSans-2192" transform="translate(694.628906 0.015625)"/>
     <use xlink:href="#DejaVuSans-20" transform="translate(797.900391 0.015625)"/>
     <use xlink:href="#DejaVuSans-73" transform="translate(829.6875 0.015625)"/>
     <use xlink:href="#DejaVuSans-71" transform="translate(881.787109 0.015625)"/>
     <use xlink:href="#DejaVuSans-75" transform="translate(945.263672 0.015625)"/>
     <use xlink:href="#DejaVuSans-61" transform="translate(1008.642578 0.015625)"/>
     <use xlink:href="#DejaVuSans-72" transform="translate(1069.921875 0.015625)"/>
     <use xlink:href="#DejaVuSans-65" transform="translate(1111.035156 0.015625)"/>
    </g>
   </g>
   <g id="line2d_24">
    <defs>
     <path id="m967b57e1f5" d="M 0 0 
L 0 -3 
M 0 0 
L -2.4 1.5 
M 0 0 
L 2.4 1.5 
" style="stroke: #000000"/>
    </defs>
    <g>
     <use xlink:href="#m967b57e1f5" x="246.4" y="357.780312" style="stroke: #000000"/>
    </g>
   </g>
   <g id="text_24">
    <!-- oval $\rightarrow$ round -->
    <g transform="translate(264.4 361.280312) scale(0.1 -0.1)">
     <use xlink:href="#DejaVuSans-6f" transform="translate(0 0.015625)"/>
     <use xlink:href="#DejaVuSans-76" transform="translate(61.181641 0.015625)"/>
     <use xlink:href="#DejaVuSans-61" transform="translate(120.361328 0.015625)"/>
     <use xlink:href="#DejaVuSans-6c" transform="translate(181.640625 0.015625)"/>
     <use xlink:href="#DejaVuSans-20" transform="translate(209.423828 0.015625)"/>
     <use xlink:href="#DejaVuSans-2192" transform="translate(260.693359 0.015625)"/>
     <use xlink:href="#DejaVuSans-20" transform="translate(363.964844 0.015625)"/>
     <use xlink:href="#DejaVuSans-72" transform="translate(395.751953 0.015625)"/>
     <use xlink:href="#DejaVuSans-6f" transform="translate(436.865234 0.015625)"/>
     <use xlink:href="#DejaVuSans-75" transform="translate(498.046875 0.015625)"/>
     <use xlink:href="#DejaVuSans-6e" transform="translate(561.425781 0.015625)"/>
     <use xlink:href="#DejaVuSans-64" transform="translate(624.804688 0.015625)"/>
    </g>
   </g>
   <g id="line2d_25">
    <g>
     <use xlink:href="#m166f82e738" x="246.4" y="372.46" style="stroke: #000000"/>
    </g>
   </g>
   <g id="text_25">
    <!-- oval  $\rightarrow$ square -->
    <g transform="translate(264.4 375.96) scale(0.1 -0.1)">
     <use xlink:href="#DejaVuSans-6f" transform="translate(0 0.015625)"/>
     <use xlink:href="#DejaVuSans-76" transform="translate(61.181641 0.015625)"/>
     <use xlink:href="#DejaVuSans-61" transform="translate(120.361328 0.015625)"/>
     <use xlink:href="#DejaVuSans-6c" transform="translate(181.640625 0.015625)"/>
     <use xlink:href="#DejaVuSans-20" transform="translate(209.423828 0.015625)"/>
     <use xlink:href="#DejaVuSans-20" transform="translate(241.210938 0.015625)"/>
     <use xlink:href="#DejaVuSans-2192" transform="translate(292.480469 0.015625)"/>
     <use xlink:href="#DejaVuSans-20" transform="translate(395.751953 0.015625)"/>
     <use xlink:href="#DejaVuSans-73" transform="translate(427.539062 0.015625)"/>
     <use xlink:href="#DejaVuSans-71" transform="translate(479.638672 0.015625)"/>
     <use xlink:href="#DejaVuSans-75" transform="translate(543.115234 0.015625)"/>
     <use xlink:href="#DejaVuSans-61" transform="translate(606.494141 0.015625)"/>
     <use xlink:href="#DejaVuSans-72" transform="translate(667.773438 0.015625)"/>
     <use xlink:href="#DejaVuSans-65" transform="translate(708.886719 0.015625)"/>
    </g>
   </g>
   <g id="line2d_26">
    <defs>
     <path id="mefbcbcb813" d="M -3 0 
L 3 0 
M 0 3 
L 0 -3 
" style="stroke: #000000"/>
    </defs>
    <g>
     <use xlink:href="#mefbcbcb813" x="246.4" y="387.16" style="stroke: #000000"/>
    </g>
   </g>
   <g id="text_26">
    <!-- square $\rightarrow$ diamond -->
    <g transform="translate(264.4 390.66) scale(0.1 -0.1)">
     <use xlink:href="#DejaVuSans-73" transform="translate(0 0.015625)"/>
     <use xlink:href="#DejaVuSans-71" transform="translate(52.099609 0.015625)"/>
     <use xlink:href="#DejaVuSans-75" transform="translate(115.576172 0.015625)"/>
     <use xlink:href="#DejaVuSans-61" transform="translate(178.955078 0.015625)"/>
     <use xlink:href="#DejaVuSans-72" transform="translate(240.234375 0.015625)"/>
     <use xlink:href="#DejaVuSans-65" transform="translate(281.347656 0.015625)"/>
     <use xlink:href="#DejaVuSans-20" transform="translate(342.871094 0.015625)"/>
     <use xlink:href="#DejaVuSans-2192" transform="translate(394.140625 0.015625)"/>
     <use xlink:href="#DejaVuSans-20" transform="translate(497.412109 0.015625)"/>
     <use xlink:href="#DejaVuSans-64" transform="translate(529.199219 0.015625)"/>
     <use xlink:href="#DejaVuSans-69" transform="translate(592.675781 0.015625)"/>
     <use xlink:href="#DejaVuSans-61" transform="translate(620.458984 0.015625)"/>
     <use xlink:href="#DejaVuSans-6d" transform="translate(681.738281 0.015625)"/>
     <use xlink:href="#DejaVuSans-6f" transform="translate(779.150391 0.015625)"/>
     <use xlink:href="#DejaVuSans-6e" transform="translate(840.332031 0.015625)"/>
     <use xlink:href="#DejaVuSans-64" transform="translate(903.710938 0.015625)"/>
    </g>
   </g>
   <g id="line2d_27">
    <defs>
     <path id="m54d1b089f7" d="M -0 3 
L 3 -3 
L -3 -3 
z
" style="stroke: #000000; stroke-linejoin: miter"/>
    </defs>
    <g>
     <use xlink:href="#m54d1b089f7" x="391.2" y="357.780312" style="stroke: #000000; stroke-linejoin: miter"/>
    </g>
   </g>
   <g id="text_27">
    <!-- square $\rightarrow$ swedish oval -->
    <g transform="translate(409.2 361.280312) scale(0.1 -0.1)">
     <use xlink:href="#DejaVuSans-73" transform="translate(0 0.015625)"/>
     <use xlink:href="#DejaVuSans-71" transform="translate(52.099609 0.015625)"/>
     <use xlink:href="#DejaVuSans-75" transform="translate(115.576172 0.015625)"/>
     <use xlink:href="#DejaVuSans-61" transform="translate(178.955078 0.015625)"/>
     <use xlink:href="#DejaVuSans-72" transform="translate(240.234375 0.015625)"/>
     <use xlink:href="#DejaVuSans-65" transform="translate(281.347656 0.015625)"/>
     <use xlink:href="#DejaVuSans-20" transform="translate(342.871094 0.015625)"/>
     <use xlink:href="#DejaVuSans-2192" transform="translate(394.140625 0.015625)"/>
     <use xlink:href="#DejaVuSans-20" transform="translate(497.412109 0.015625)"/>
     <use xlink:href="#DejaVuSans-73" transform="translate(529.199219 0.015625)"/>
     <use xlink:href="#DejaVuSans-77" transform="translate(581.298828 0.015625)"/>
     <use xlink:href="#DejaVuSans-65" transform="translate(663.085938 0.015625)"/>
     <use xlink:href="#DejaVuSans-64" transform="translate(724.609375 0.015625)"/>
     <use xlink:href="#DejaVuSans-69" transform="translate(788.085938 0.015625)"/>
     <use xlink:href="#DejaVuSans-73" transform="translate(815.869141 0.015625)"/>
     <use xlink:href="#DejaVuSans-68" transform="translate(867.96875 0.015625)"/>
     <use xlink:href="#DejaVuSans-20" transform="translate(931.347656 0.015625)"/>
     <use xlink:href="#DejaVuSans-6f" transform="translate(963.134766 0.015625)"/>
     <use xlink:href="#DejaVuSans-76" transform="translate(1024.316406 0.015625)"/>
     <use xlink:href="#DejaVuSans-61" transform="translate(1083.496094 0.015625)"/>
     <use xlink:href="#DejaVuSans-6c" transform="translate(1144.775391 0.015625)"/>
    </g>
   </g>
   <g id="line2d_28">
    <defs>
     <path id="m482f0f016b" d="M 0 -3 
L -0.673542 -0.927051 
L -2.85317 -0.927051 
L -1.089814 0.354102 
L -1.763356 2.427051 
L -0 1.145898 
L 1.763356 2.427051 
L 1.089814 0.354102 
L 2.85317 -0.927051 
L 0.673542 -0.927051 
z
" style="stroke: #000000; stroke-linejoin: bevel"/>
    </defs>
    <g>
     <use xlink:href="#m482f0f016b" x="391.2" y="372.480312" style="stroke: #000000; stroke-linejoin: bevel"/>
    </g>
   </g>
   <g id="text_28">
    <!-- square $\rightarrow$ oval -->
    <g transform="translate(409.2 375.980312) scale(0.1 -0.1)">
     <use xlink:href="#DejaVuSans-73" transform="translate(0 0.015625)"/>
     <use xlink:href="#DejaVuSans-71" transform="translate(52.099609 0.015625)"/>
     <use xlink:href="#DejaVuSans-75" transform="translate(115.576172 0.015625)"/>
     <use xlink:href="#DejaVuSans-61" transform="translate(178.955078 0.015625)"/>
     <use xlink:href="#DejaVuSans-72" transform="translate(240.234375 0.015625)"/>
     <use xlink:href="#DejaVuSans-65" transform="translate(281.347656 0.015625)"/>
     <use xlink:href="#DejaVuSans-20" transform="translate(342.871094 0.015625)"/>
     <use xlink:href="#DejaVuSans-2192" transform="translate(394.140625 0.015625)"/>
     <use xlink:href="#DejaVuSans-20" transform="translate(497.412109 0.015625)"/>
     <use xlink:href="#DejaVuSans-6f" transform="translate(529.199219 0.015625)"/>
     <use xlink:href="#DejaVuSans-76" transform="translate(590.380859 0.015625)"/>
     <use xlink:href="#DejaVuSans-61" transform="translate(649.560547 0.015625)"/>
     <use xlink:href="#DejaVuSans-6c" transform="translate(710.839844 0.015625)"/>
    </g>
   </g>
   <g id="line2d_29">
    <path d="M 381.2 387.17875 
L 391.2 387.17875 
L 401.2 387.17875 
" style="fill: none; stroke: #ff0000; stroke-width: 1.5; stroke-linecap: square"/>
   </g>
   <g id="text_29">
    <!-- mean -->
    <g transform="translate(409.2 390.67875) scale(0.1 -0.1)">
     <use xlink:href="#DejaVuSans-6d"/>
     <use xlink:href="#DejaVuSans-65" x="97.412109"/>
     <use xlink:href="#DejaVuSans-61" x="158.935547"/>
     <use xlink:href="#DejaVuSans-6e" x="220.214844"/>
    </g>
   </g>
  </g>
 </g>
 <defs>
  <clipPath id="p55e2d4584c">
   <rect x="74.7" y="51.84" width="463.14" height="255.680246"/>
  </clipPath>
 </defs>
</svg>
