<?xml version="1.0" encoding="utf-8" standalone="no"?>
<!DOCTYPE svg PUBLIC "-//W3C//DTD SVG 1.1//EN"
  "http://www.w3.org/Graphics/SVG/1.1/DTD/svg11.dtd">
<svg xmlns:xlink="http://www.w3.org/1999/xlink" width="597.6pt" height="432pt" viewBox="0 0 597.6 432" xmlns="http://www.w3.org/2000/svg" version="1.1">
 <metadata>
  <rdf:RDF xmlns:dc="http://purl.org/dc/elements/1.1/" xmlns:cc="http://creativecommons.org/ns#" xmlns:rdf="http://www.w3.org/1999/02/22-rdf-syntax-ns#">
   <cc:Work>
    <dc:type rdf:resource="http://purl.org/dc/dcmitype/StillImage"/>
    <dc:date>2023-02-24T18:18:29.606131</dc:date>
    <dc:format>image/svg+xml</dc:format>
    <dc:creator>
     <cc:Agent>
      <dc:title>Matplotlib v3.7.0, https://matplotlib.org/</dc:title>
     </cc:Agent>
    </dc:creator>
   </cc:Work>
  </rdf:RDF>
 </metadata>
 <defs>
  <style type="text/css">*{stroke-linejoin: round; stroke-linecap: butt}</style>
 </defs>
 <g id="figure_1">
  <g id="patch_1">
   <path d="M 0 432 
L 597.6 432 
L 597.6 0 
L 0 0 
z
" style="fill: #ffffff"/>
  </g>
  <g id="axes_1">
   <g id="patch_2">
    <path d="M 74.7 307.520246 
L 537.84 307.520246 
L 537.84 51.84 
L 74.7 51.84 
z
" style="fill: #ffffff"/>
   </g>
   <g id="PathCollection_1">
    <defs>
     <path id="m1dec2dd125" d="M -3 3 
L 3 3 
L 3 -3 
L -3 -3 
z
" style="stroke: #000000"/>
    </defs>
    <g clip-path="url(#p5bfe4ac257)">
     <use xlink:href="#m1dec2dd125" x="126.950074" y="225.34669" style="stroke: #000000"/>
     <use xlink:href="#m1dec2dd125" x="127.70328" y="236.315815" style="stroke: #000000"/>
     <use xlink:href="#m1dec2dd125" x="142.279711" y="231.522219" style="stroke: #000000"/>
     <use xlink:href="#m1dec2dd125" x="141.539173" y="210.381386" style="stroke: #000000"/>
    </g>
   </g>
   <g id="PathCollection_2">
    <defs>
     <path id="m1c31c9bc80" d="M -3 3 
L 3 -3 
M -3 -3 
L 3 3 
" style="stroke: #000000; stroke-width: 1.5"/>
    </defs>
    <g clip-path="url(#p5bfe4ac257)">
     <use xlink:href="#m1c31c9bc80" x="117.194782" y="176.686704" style="stroke: #000000; stroke-width: 1.5"/>
     <use xlink:href="#m1c31c9bc80" x="113.963012" y="185.463822" style="stroke: #000000; stroke-width: 1.5"/>
     <use xlink:href="#m1c31c9bc80" x="112.421827" y="191.447907" style="stroke: #000000; stroke-width: 1.5"/>
     <use xlink:href="#m1c31c9bc80" x="116.403077" y="196.631592" style="stroke: #000000; stroke-width: 1.5"/>
     <use xlink:href="#m1c31c9bc80" x="120.69629" y="197.626782" style="stroke: #000000; stroke-width: 1.5"/>
     <use xlink:href="#m1c31c9bc80" x="117.927373" y="204.209785" style="stroke: #000000; stroke-width: 1.5"/>
     <use xlink:href="#m1c31c9bc80" x="160.36386" y="242.68257" style="stroke: #000000; stroke-width: 1.5"/>
     <use xlink:href="#m1c31c9bc80" x="166.962393" y="239.887209" style="stroke: #000000; stroke-width: 1.5"/>
     <use xlink:href="#m1c31c9bc80" x="172.01353" y="248.062064" style="stroke: #000000; stroke-width: 1.5"/>
     <use xlink:href="#m1c31c9bc80" x="168.322883" y="255.842174" style="stroke: #000000; stroke-width: 1.5"/>
     <use xlink:href="#m1c31c9bc80" x="166.939045" y="258.635063" style="stroke: #000000; stroke-width: 1.5"/>
     <use xlink:href="#m1c31c9bc80" x="157.573086" y="266.816755" style="stroke: #000000; stroke-width: 1.5"/>
     <use xlink:href="#m1c31c9bc80" x="164.317292" y="270.204124" style="stroke: #000000; stroke-width: 1.5"/>
     <use xlink:href="#m1c31c9bc80" x="169.988381" y="273.193111" style="stroke: #000000; stroke-width: 1.5"/>
     <use xlink:href="#m1c31c9bc80" x="179.800303" y="276.37958" style="stroke: #000000; stroke-width: 1.5"/>
     <use xlink:href="#m1c31c9bc80" x="184.259556" y="267.202989" style="stroke: #000000; stroke-width: 1.5"/>
     <use xlink:href="#m1c31c9bc80" x="187.940269" y="267.400689" style="stroke: #000000; stroke-width: 1.5"/>
     <use xlink:href="#m1c31c9bc80" x="187.644451" y="258.625243" style="stroke: #000000; stroke-width: 1.5"/>
     <use xlink:href="#m1c31c9bc80" x="183.195629" y="259.425133" style="stroke: #000000; stroke-width: 1.5"/>
     <use xlink:href="#m1c31c9bc80" x="182.280853" y="255.037774" style="stroke: #000000; stroke-width: 1.5"/>
     <use xlink:href="#m1c31c9bc80" x="177.679404" y="255.239402" style="stroke: #000000; stroke-width: 1.5"/>
     <use xlink:href="#m1c31c9bc80" x="175.682569" y="257.63369" style="stroke: #000000; stroke-width: 1.5"/>
     <use xlink:href="#m1c31c9bc80" x="177.98168" y="258.829271" style="stroke: #000000; stroke-width: 1.5"/>
     <use xlink:href="#m1c31c9bc80" x="187.052318" y="241.473242" style="stroke: #000000; stroke-width: 1.5"/>
     <use xlink:href="#m1c31c9bc80" x="189.210722" y="232.497188" style="stroke: #000000; stroke-width: 1.5"/>
     <use xlink:href="#m1c31c9bc80" x="205.275434" y="264.201345" style="stroke: #000000; stroke-width: 1.5"/>
     <use xlink:href="#m1c31c9bc80" x="207.106725" y="271.579947" style="stroke: #000000; stroke-width: 1.5"/>
     <use xlink:href="#m1c31c9bc80" x="206.021189" y="281.153828" style="stroke: #000000; stroke-width: 1.5"/>
     <use xlink:href="#m1c31c9bc80" x="210.310676" y="285.140696" style="stroke: #000000; stroke-width: 1.5"/>
     <use xlink:href="#m1c31c9bc80" x="219.23564" y="261.601938" style="stroke: #000000; stroke-width: 1.5"/>
    </g>
   </g>
   <g id="PathCollection_3">
    <defs>
     <path id="m6d918fcbba" d="M 0 0 
L 0 3 
M 0 0 
L 2.4 -1.5 
M 0 0 
L -2.4 -1.5 
" style="stroke: #000000; stroke-width: 1.5"/>
    </defs>
    <g clip-path="url(#p5bfe4ac257)">
     <use xlink:href="#m6d918fcbba" x="269.840408" y="268.359073" style="stroke: #000000; stroke-width: 1.5"/>
     <use xlink:href="#m6d918fcbba" x="270.751459" y="275.738111" style="stroke: #000000; stroke-width: 1.5"/>
     <use xlink:href="#m6d918fcbba" x="266.29767" y="280.526907" style="stroke: #000000; stroke-width: 1.5"/>
     <use xlink:href="#m6d918fcbba" x="265.675732" y="287.308336" style="stroke: #000000; stroke-width: 1.5"/>
     <use xlink:href="#m6d918fcbba" x="252.955925" y="279.137118" style="stroke: #000000; stroke-width: 1.5"/>
     <use xlink:href="#m6d918fcbba" x="273.960377" y="285.309956" style="stroke: #000000; stroke-width: 1.5"/>
     <use xlink:href="#m6d918fcbba" x="277.336579" y="283.712793" style="stroke: #000000; stroke-width: 1.5"/>
     <use xlink:href="#m6d918fcbba" x="274.873415" y="291.093432" style="stroke: #000000; stroke-width: 1.5"/>
     <use xlink:href="#m6d918fcbba" x="281.322299" y="285.306464" style="stroke: #000000; stroke-width: 1.5"/>
     <use xlink:href="#m6d918fcbba" x="280.547484" y="291.689076" style="stroke: #000000; stroke-width: 1.5"/>
     <use xlink:href="#m6d918fcbba" x="285.460648" y="287.498398" style="stroke: #000000; stroke-width: 1.5"/>
     <use xlink:href="#m6d918fcbba" x="285.913317" y="293.481538" style="stroke: #000000; stroke-width: 1.5"/>
     <use xlink:href="#m6d918fcbba" x="290.367851" y="288.094406" style="stroke: #000000; stroke-width: 1.5"/>
     <use xlink:href="#m6d918fcbba" x="293.27822" y="291.084703" style="stroke: #000000; stroke-width: 1.5"/>
     <use xlink:href="#m6d918fcbba" x="295.125655" y="285.499363" style="stroke: #000000; stroke-width: 1.5"/>
     <use xlink:href="#m6d918fcbba" x="295.592729" y="279.914678" style="stroke: #000000; stroke-width: 1.5"/>
     <use xlink:href="#m6d918fcbba" x="291.604525" y="280.31546" style="stroke: #000000; stroke-width: 1.5"/>
     <use xlink:href="#m6d918fcbba" x="287.006304" y="277.924299" style="stroke: #000000; stroke-width: 1.5"/>
     <use xlink:href="#m6d918fcbba" x="290.847842" y="272.138568" style="stroke: #000000; stroke-width: 1.5"/>
     <use xlink:href="#m6d918fcbba" x="295.294427" y="273.133685" style="stroke: #000000; stroke-width: 1.5"/>
    </g>
   </g>
   <g id="PathCollection_4">
    <defs>
     <path id="m215b396c0b" d="M -3 0 
L 3 0 
M 0 3 
L 0 -3 
" style="stroke: #000000; stroke-width: 1.5"/>
    </defs>
    <g clip-path="url(#p5bfe4ac257)">
     <use xlink:href="#m215b396c0b" x="124.697162" y="187.054293" style="stroke: #000000; stroke-width: 1.5"/>
     <use xlink:href="#m215b396c0b" x="121.810141" y="165.316142" style="stroke: #000000; stroke-width: 1.5"/>
     <use xlink:href="#m215b396c0b" x="103.107779" y="157.945542" style="stroke: #000000; stroke-width: 1.5"/>
     <use xlink:href="#m215b396c0b" x="105.872225" y="154.952554" style="stroke: #000000; stroke-width: 1.5"/>
     <use xlink:href="#m215b396c0b" x="110.019019" y="150.363349" style="stroke: #000000; stroke-width: 1.5"/>
     <use xlink:href="#m215b396c0b" x="108.808922" y="136.801654" style="stroke: #000000; stroke-width: 1.5"/>
     <use xlink:href="#m215b396c0b" x="106.51155" y="134.209957" style="stroke: #000000; stroke-width: 1.5"/>
     <use xlink:href="#m215b396c0b" x="112.038704" y="129.620097" style="stroke: #000000; stroke-width: 1.5"/>
     <use xlink:href="#m215b396c0b" x="128.117574" y="149.955876" style="stroke: #000000; stroke-width: 1.5"/>
     <use xlink:href="#m215b396c0b" x="135.658949" y="129.01056" style="stroke: #000000; stroke-width: 1.5"/>
     <use xlink:href="#m215b396c0b" x="134.240587" y="159.526338" style="stroke: #000000; stroke-width: 1.5"/>
     <use xlink:href="#m215b396c0b" x="133.469249" y="163.116716" style="stroke: #000000; stroke-width: 1.5"/>
     <use xlink:href="#m215b396c0b" x="145.265835" y="173.681714" style="stroke: #000000; stroke-width: 1.5"/>
     <use xlink:href="#m215b396c0b" x="141.721606" y="187.046219" style="stroke: #000000; stroke-width: 1.5"/>
     <use xlink:href="#m215b396c0b" x="139.105814" y="193.828594" style="stroke: #000000; stroke-width: 1.5"/>
     <use xlink:href="#m215b396c0b" x="142.319949" y="199.212088" style="stroke: #000000; stroke-width: 1.5"/>
     <use xlink:href="#m215b396c0b" x="147.992528" y="201.004404" style="stroke: #000000; stroke-width: 1.5"/>
     <use xlink:href="#m215b396c0b" x="151.962601" y="215.163126" style="stroke: #000000; stroke-width: 1.5"/>
     <use xlink:href="#m215b396c0b" x="131.395666" y="227.139588" style="stroke: #000000; stroke-width: 1.5"/>
     <use xlink:href="#m215b396c0b" x="131.697694" y="230.928902" style="stroke: #000000; stroke-width: 1.5"/>
     <use xlink:href="#m215b396c0b" x="125.142131" y="199.220235" style="stroke: #000000; stroke-width: 1.5"/>
     <use xlink:href="#m215b396c0b" x="189.308707" y="276.973406" style="stroke: #000000; stroke-width: 1.5"/>
     <use xlink:href="#m215b396c0b" x="183.471329" y="284.355644" style="stroke: #000000; stroke-width: 1.5"/>
     <use xlink:href="#m215b396c0b" x="194.048876" y="288.538976" style="stroke: #000000; stroke-width: 1.5"/>
     <use xlink:href="#m215b396c0b" x="193.123668" y="292.528317" style="stroke: #000000; stroke-width: 1.5"/>
     <use xlink:href="#m215b396c0b" x="200.658585" y="276.768578" style="stroke: #000000; stroke-width: 1.5"/>
     <use xlink:href="#m215b396c0b" x="196.983337" y="272.183083" style="stroke: #000000; stroke-width: 1.5"/>
     <use xlink:href="#m215b396c0b" x="208.35383" y="255.424299" style="stroke: #000000; stroke-width: 1.5"/>
     <use xlink:href="#m215b396c0b" x="210.797372" y="263.799836" style="stroke: #000000; stroke-width: 1.5"/>
     <use xlink:href="#m215b396c0b" x="215.255135" y="255.819917" style="stroke: #000000; stroke-width: 1.5"/>
     <use xlink:href="#m215b396c0b" x="216.338187" y="248.240488" style="stroke: #000000; stroke-width: 1.5"/>
     <use xlink:href="#m215b396c0b" x="236.236737" y="280.341718" style="stroke: #000000; stroke-width: 1.5"/>
     <use xlink:href="#m215b396c0b" x="240.996031" y="276.550003" style="stroke: #000000; stroke-width: 1.5"/>
     <use xlink:href="#m215b396c0b" x="245.290485" y="276.547966" style="stroke: #000000; stroke-width: 1.5"/>
     <use xlink:href="#m215b396c0b" x="253.251246" y="288.311454" style="stroke: #000000; stroke-width: 1.5"/>
     <use xlink:href="#m215b396c0b" x="245.11749" y="292.304214" style="stroke: #000000; stroke-width: 1.5"/>
    </g>
   </g>
   <g id="PathCollection_5">
    <defs>
     <path id="mad5ae1f1d1" d="M -0 3 
L 3 -3 
L -3 -3 
z
" style="stroke: #000000"/>
    </defs>
    <g clip-path="url(#p5bfe4ac257)">
     <use xlink:href="#mad5ae1f1d1" x="242.58714" y="230.477423" style="stroke: #000000"/>
     <use xlink:href="#mad5ae1f1d1" x="224.94945" y="230.286342" style="stroke: #000000"/>
     <use xlink:href="#mad5ae1f1d1" x="218.508762" y="229.491616" style="stroke: #000000"/>
     <use xlink:href="#mad5ae1f1d1" x="209.298163" y="236.077674" style="stroke: #000000"/>
     <use xlink:href="#mad5ae1f1d1" x="209.289967" y="242.659367" style="stroke: #000000"/>
     <use xlink:href="#mad5ae1f1d1" x="204.998989" y="239.86917" style="stroke: #000000"/>
     <use xlink:href="#mad5ae1f1d1" x="204.377796" y="246.052264" style="stroke: #000000"/>
     <use xlink:href="#mad5ae1f1d1" x="222.448533" y="267.982658" style="stroke: #000000"/>
     <use xlink:href="#mad5ae1f1d1" x="225.981088" y="263.992081" style="stroke: #000000"/>
     <use xlink:href="#mad5ae1f1d1" x="244.529579" y="271.761644" style="stroke: #000000"/>
     <use xlink:href="#mad5ae1f1d1" x="237.653112" y="251.421502" style="stroke: #000000"/>
     <use xlink:href="#mad5ae1f1d1" x="241.329354" y="255.209216" style="stroke: #000000"/>
     <use xlink:href="#mad5ae1f1d1" x="244.701581" y="256.803178" style="stroke: #000000"/>
     <use xlink:href="#mad5ae1f1d1" x="249.45392" y="258.59593" style="stroke: #000000"/>
     <use xlink:href="#mad5ae1f1d1" x="256.486741" y="276.542657" style="stroke: #000000"/>
     <use xlink:href="#mad5ae1f1d1" x="256.935436" y="285.71692" style="stroke: #000000"/>
     <use xlink:href="#mad5ae1f1d1" x="248.031336" y="292.502277" style="stroke: #000000"/>
     <use xlink:href="#mad5ae1f1d1" x="255.902308" y="253.207853" style="stroke: #000000"/>
     <use xlink:href="#mad5ae1f1d1" x="252.379937" y="249.021176" style="stroke: #000000"/>
     <use xlink:href="#mad5ae1f1d1" x="247.471989" y="249.023503" style="stroke: #000000"/>
     <use xlink:href="#mad5ae1f1d1" x="244.411476" y="243.440491" style="stroke: #000000"/>
     <use xlink:href="#mad5ae1f1d1" x="255.311665" y="234.859181" style="stroke: #000000"/>
     <use xlink:href="#mad5ae1f1d1" x="261.740432" y="245.227279" style="stroke: #000000"/>
     <use xlink:href="#mad5ae1f1d1" x="268.030478" y="243.82818" style="stroke: #000000"/>
     <use xlink:href="#mad5ae1f1d1" x="275.53112" y="255.591886" style="stroke: #000000"/>
    </g>
   </g>
   <g id="PathCollection_6">
    <defs>
     <path id="mc781934e77" d="M 0 -3 
L -0.673542 -0.927051 
L -2.85317 -0.927051 
L -1.089814 0.354102 
L -1.763356 2.427051 
L -0 1.145898 
L 1.763356 2.427051 
L 1.089814 0.354102 
L 2.85317 -0.927051 
L 0.673542 -0.927051 
z
" style="stroke: #000000"/>
    </defs>
    <g clip-path="url(#p5bfe4ac257)">
     <use xlink:href="#mc781934e77" x="170.807656" y="231.109799" style="stroke: #000000"/>
     <use xlink:href="#mc781934e77" x="174.178641" y="233.700987" style="stroke: #000000"/>
     <use xlink:href="#mc781934e77" x="177.087767" y="237.68851" style="stroke: #000000"/>
     <use xlink:href="#mc781934e77" x="179.088824" y="231.903653" style="stroke: #000000"/>
     <use xlink:href="#mc781934e77" x="221.567785" y="236.2713" style="stroke: #000000"/>
     <use xlink:href="#mc781934e77" x="294.235965" y="260.968034" style="stroke: #000000"/>
     <use xlink:href="#mc781934e77" x="290.25695" y="253.989341" style="stroke: #000000"/>
     <use xlink:href="#mc781934e77" x="287.196189" y="248.605774" style="stroke: #000000"/>
     <use xlink:href="#mc781934e77" x="290.416533" y="249.003137" style="stroke: #000000"/>
     <use xlink:href="#mc781934e77" x="228.456671" y="246.63918" style="stroke: #000000"/>
    </g>
   </g>
   <g id="matplotlib.axis_1">
    <g id="xtick_1">
     <g id="line2d_1">
      <defs>
       <path id="mb536796958" d="M 0 0 
L 0 3.5 
" style="stroke: #000000; stroke-width: 0.8"/>
      </defs>
      <g>
       <use xlink:href="#mb536796958" x="79.974723" y="307.520246" style="stroke: #000000; stroke-width: 0.8"/>
      </g>
     </g>
     <g id="text_1">
      <!-- 0.5 -->
      <g transform="translate(72.023161 322.118683) scale(0.1 -0.1)">
       <defs>
        <path id="DejaVuSans-30" d="M 2034 4250 
Q 1547 4250 1301 3770 
Q 1056 3291 1056 2328 
Q 1056 1369 1301 889 
Q 1547 409 2034 409 
Q 2525 409 2770 889 
Q 3016 1369 3016 2328 
Q 3016 3291 2770 3770 
Q 2525 4250 2034 4250 
z
M 2034 4750 
Q 2819 4750 3233 4129 
Q 3647 3509 3647 2328 
Q 3647 1150 3233 529 
Q 2819 -91 2034 -91 
Q 1250 -91 836 529 
Q 422 1150 422 2328 
Q 422 3509 836 4129 
Q 1250 4750 2034 4750 
z
" transform="scale(0.015625)"/>
        <path id="DejaVuSans-2e" d="M 684 794 
L 1344 794 
L 1344 0 
L 684 0 
L 684 794 
z
" transform="scale(0.015625)"/>
        <path id="DejaVuSans-35" d="M 691 4666 
L 3169 4666 
L 3169 4134 
L 1269 4134 
L 1269 2991 
Q 1406 3038 1543 3061 
Q 1681 3084 1819 3084 
Q 2600 3084 3056 2656 
Q 3513 2228 3513 1497 
Q 3513 744 3044 326 
Q 2575 -91 1722 -91 
Q 1428 -91 1123 -41 
Q 819 9 494 109 
L 494 744 
Q 775 591 1075 516 
Q 1375 441 1709 441 
Q 2250 441 2565 725 
Q 2881 1009 2881 1497 
Q 2881 1984 2565 2268 
Q 2250 2553 1709 2553 
Q 1456 2553 1204 2497 
Q 953 2441 691 2322 
L 691 4666 
z
" transform="scale(0.015625)"/>
       </defs>
       <use xlink:href="#DejaVuSans-30"/>
       <use xlink:href="#DejaVuSans-2e" x="63.623047"/>
       <use xlink:href="#DejaVuSans-35" x="95.410156"/>
      </g>
     </g>
    </g>
    <g id="xtick_2">
     <g id="line2d_2">
      <g>
       <use xlink:href="#mb536796958" x="142.278359" y="307.520246" style="stroke: #000000; stroke-width: 0.8"/>
      </g>
     </g>
     <g id="text_2">
      <!-- 1.0 -->
      <g transform="translate(134.326797 322.118683) scale(0.1 -0.1)">
       <defs>
        <path id="DejaVuSans-31" d="M 794 531 
L 1825 531 
L 1825 4091 
L 703 3866 
L 703 4441 
L 1819 4666 
L 2450 4666 
L 2450 531 
L 3481 531 
L 3481 0 
L 794 0 
L 794 531 
z
" transform="scale(0.015625)"/>
       </defs>
       <use xlink:href="#DejaVuSans-31"/>
       <use xlink:href="#DejaVuSans-2e" x="63.623047"/>
       <use xlink:href="#DejaVuSans-30" x="95.410156"/>
      </g>
     </g>
    </g>
    <g id="xtick_3">
     <g id="line2d_3">
      <g>
       <use xlink:href="#mb536796958" x="204.581995" y="307.520246" style="stroke: #000000; stroke-width: 0.8"/>
      </g>
     </g>
     <g id="text_3">
      <!-- 1.5 -->
      <g transform="translate(196.630433 322.118683) scale(0.1 -0.1)">
       <use xlink:href="#DejaVuSans-31"/>
       <use xlink:href="#DejaVuSans-2e" x="63.623047"/>
       <use xlink:href="#DejaVuSans-35" x="95.410156"/>
      </g>
     </g>
    </g>
    <g id="xtick_4">
     <g id="line2d_4">
      <g>
       <use xlink:href="#mb536796958" x="266.885631" y="307.520246" style="stroke: #000000; stroke-width: 0.8"/>
      </g>
     </g>
     <g id="text_4">
      <!-- 2.0 -->
      <g transform="translate(258.934069 322.118683) scale(0.1 -0.1)">
       <defs>
        <path id="DejaVuSans-32" d="M 1228 531 
L 3431 531 
L 3431 0 
L 469 0 
L 469 531 
Q 828 903 1448 1529 
Q 2069 2156 2228 2338 
Q 2531 2678 2651 2914 
Q 2772 3150 2772 3378 
Q 2772 3750 2511 3984 
Q 2250 4219 1831 4219 
Q 1534 4219 1204 4116 
Q 875 4013 500 3803 
L 500 4441 
Q 881 4594 1212 4672 
Q 1544 4750 1819 4750 
Q 2544 4750 2975 4387 
Q 3406 4025 3406 3419 
Q 3406 3131 3298 2873 
Q 3191 2616 2906 2266 
Q 2828 2175 2409 1742 
Q 1991 1309 1228 531 
z
" transform="scale(0.015625)"/>
       </defs>
       <use xlink:href="#DejaVuSans-32"/>
       <use xlink:href="#DejaVuSans-2e" x="63.623047"/>
       <use xlink:href="#DejaVuSans-30" x="95.410156"/>
      </g>
     </g>
    </g>
    <g id="xtick_5">
     <g id="line2d_5">
      <g>
       <use xlink:href="#mb536796958" x="329.189267" y="307.520246" style="stroke: #000000; stroke-width: 0.8"/>
      </g>
     </g>
     <g id="text_5">
      <!-- 2.5 -->
      <g transform="translate(321.237704 322.118683) scale(0.1 -0.1)">
       <use xlink:href="#DejaVuSans-32"/>
       <use xlink:href="#DejaVuSans-2e" x="63.623047"/>
       <use xlink:href="#DejaVuSans-35" x="95.410156"/>
      </g>
     </g>
    </g>
    <g id="xtick_6">
     <g id="line2d_6">
      <g>
       <use xlink:href="#mb536796958" x="391.492903" y="307.520246" style="stroke: #000000; stroke-width: 0.8"/>
      </g>
     </g>
     <g id="text_6">
      <!-- 3.0 -->
      <g transform="translate(383.54134 322.118683) scale(0.1 -0.1)">
       <defs>
        <path id="DejaVuSans-33" d="M 2597 2516 
Q 3050 2419 3304 2112 
Q 3559 1806 3559 1356 
Q 3559 666 3084 287 
Q 2609 -91 1734 -91 
Q 1441 -91 1130 -33 
Q 819 25 488 141 
L 488 750 
Q 750 597 1062 519 
Q 1375 441 1716 441 
Q 2309 441 2620 675 
Q 2931 909 2931 1356 
Q 2931 1769 2642 2001 
Q 2353 2234 1838 2234 
L 1294 2234 
L 1294 2753 
L 1863 2753 
Q 2328 2753 2575 2939 
Q 2822 3125 2822 3475 
Q 2822 3834 2567 4026 
Q 2313 4219 1838 4219 
Q 1578 4219 1281 4162 
Q 984 4106 628 3988 
L 628 4550 
Q 988 4650 1302 4700 
Q 1616 4750 1894 4750 
Q 2613 4750 3031 4423 
Q 3450 4097 3450 3541 
Q 3450 3153 3228 2886 
Q 3006 2619 2597 2516 
z
" transform="scale(0.015625)"/>
       </defs>
       <use xlink:href="#DejaVuSans-33"/>
       <use xlink:href="#DejaVuSans-2e" x="63.623047"/>
       <use xlink:href="#DejaVuSans-30" x="95.410156"/>
      </g>
     </g>
    </g>
    <g id="xtick_7">
     <g id="line2d_7">
      <g>
       <use xlink:href="#mb536796958" x="453.796539" y="307.520246" style="stroke: #000000; stroke-width: 0.8"/>
      </g>
     </g>
     <g id="text_7">
      <!-- 3.5 -->
      <g transform="translate(445.844976 322.118683) scale(0.1 -0.1)">
       <use xlink:href="#DejaVuSans-33"/>
       <use xlink:href="#DejaVuSans-2e" x="63.623047"/>
       <use xlink:href="#DejaVuSans-35" x="95.410156"/>
      </g>
     </g>
    </g>
    <g id="xtick_8">
     <g id="line2d_8">
      <g>
       <use xlink:href="#mb536796958" x="516.100175" y="307.520246" style="stroke: #000000; stroke-width: 0.8"/>
      </g>
     </g>
     <g id="text_8">
      <!-- 4.0 -->
      <g transform="translate(508.148612 322.118683) scale(0.1 -0.1)">
       <defs>
        <path id="DejaVuSans-34" d="M 2419 4116 
L 825 1625 
L 2419 1625 
L 2419 4116 
z
M 2253 4666 
L 3047 4666 
L 3047 1625 
L 3713 1625 
L 3713 1100 
L 3047 1100 
L 3047 0 
L 2419 0 
L 2419 1100 
L 313 1100 
L 313 1709 
L 2253 4666 
z
" transform="scale(0.015625)"/>
       </defs>
       <use xlink:href="#DejaVuSans-34"/>
       <use xlink:href="#DejaVuSans-2e" x="63.623047"/>
       <use xlink:href="#DejaVuSans-30" x="95.410156"/>
      </g>
     </g>
    </g>
    <g id="text_9">
     <!-- cross section ratio $\frac{A_d}{A_{dm}}$ -->
     <g transform="translate(251.82 338.998371) scale(0.1 -0.1)">
      <defs>
       <path id="DejaVuSans-63" d="M 3122 3366 
L 3122 2828 
Q 2878 2963 2633 3030 
Q 2388 3097 2138 3097 
Q 1578 3097 1268 2742 
Q 959 2388 959 1747 
Q 959 1106 1268 751 
Q 1578 397 2138 397 
Q 2388 397 2633 464 
Q 2878 531 3122 666 
L 3122 134 
Q 2881 22 2623 -34 
Q 2366 -91 2075 -91 
Q 1284 -91 818 406 
Q 353 903 353 1747 
Q 353 2603 823 3093 
Q 1294 3584 2113 3584 
Q 2378 3584 2631 3529 
Q 2884 3475 3122 3366 
z
" transform="scale(0.015625)"/>
       <path id="DejaVuSans-72" d="M 2631 2963 
Q 2534 3019 2420 3045 
Q 2306 3072 2169 3072 
Q 1681 3072 1420 2755 
Q 1159 2438 1159 1844 
L 1159 0 
L 581 0 
L 581 3500 
L 1159 3500 
L 1159 2956 
Q 1341 3275 1631 3429 
Q 1922 3584 2338 3584 
Q 2397 3584 2469 3576 
Q 2541 3569 2628 3553 
L 2631 2963 
z
" transform="scale(0.015625)"/>
       <path id="DejaVuSans-6f" d="M 1959 3097 
Q 1497 3097 1228 2736 
Q 959 2375 959 1747 
Q 959 1119 1226 758 
Q 1494 397 1959 397 
Q 2419 397 2687 759 
Q 2956 1122 2956 1747 
Q 2956 2369 2687 2733 
Q 2419 3097 1959 3097 
z
M 1959 3584 
Q 2709 3584 3137 3096 
Q 3566 2609 3566 1747 
Q 3566 888 3137 398 
Q 2709 -91 1959 -91 
Q 1206 -91 779 398 
Q 353 888 353 1747 
Q 353 2609 779 3096 
Q 1206 3584 1959 3584 
z
" transform="scale(0.015625)"/>
       <path id="DejaVuSans-73" d="M 2834 3397 
L 2834 2853 
Q 2591 2978 2328 3040 
Q 2066 3103 1784 3103 
Q 1356 3103 1142 2972 
Q 928 2841 928 2578 
Q 928 2378 1081 2264 
Q 1234 2150 1697 2047 
L 1894 2003 
Q 2506 1872 2764 1633 
Q 3022 1394 3022 966 
Q 3022 478 2636 193 
Q 2250 -91 1575 -91 
Q 1294 -91 989 -36 
Q 684 19 347 128 
L 347 722 
Q 666 556 975 473 
Q 1284 391 1588 391 
Q 1994 391 2212 530 
Q 2431 669 2431 922 
Q 2431 1156 2273 1281 
Q 2116 1406 1581 1522 
L 1381 1569 
Q 847 1681 609 1914 
Q 372 2147 372 2553 
Q 372 3047 722 3315 
Q 1072 3584 1716 3584 
Q 2034 3584 2315 3537 
Q 2597 3491 2834 3397 
z
" transform="scale(0.015625)"/>
       <path id="DejaVuSans-20" transform="scale(0.015625)"/>
       <path id="DejaVuSans-65" d="M 3597 1894 
L 3597 1613 
L 953 1613 
Q 991 1019 1311 708 
Q 1631 397 2203 397 
Q 2534 397 2845 478 
Q 3156 559 3463 722 
L 3463 178 
Q 3153 47 2828 -22 
Q 2503 -91 2169 -91 
Q 1331 -91 842 396 
Q 353 884 353 1716 
Q 353 2575 817 3079 
Q 1281 3584 2069 3584 
Q 2775 3584 3186 3129 
Q 3597 2675 3597 1894 
z
M 3022 2063 
Q 3016 2534 2758 2815 
Q 2500 3097 2075 3097 
Q 1594 3097 1305 2825 
Q 1016 2553 972 2059 
L 3022 2063 
z
" transform="scale(0.015625)"/>
       <path id="DejaVuSans-74" d="M 1172 4494 
L 1172 3500 
L 2356 3500 
L 2356 3053 
L 1172 3053 
L 1172 1153 
Q 1172 725 1289 603 
Q 1406 481 1766 481 
L 2356 481 
L 2356 0 
L 1766 0 
Q 1100 0 847 248 
Q 594 497 594 1153 
L 594 3053 
L 172 3053 
L 172 3500 
L 594 3500 
L 594 4494 
L 1172 4494 
z
" transform="scale(0.015625)"/>
       <path id="DejaVuSans-69" d="M 603 3500 
L 1178 3500 
L 1178 0 
L 603 0 
L 603 3500 
z
M 603 4863 
L 1178 4863 
L 1178 4134 
L 603 4134 
L 603 4863 
z
" transform="scale(0.015625)"/>
       <path id="DejaVuSans-6e" d="M 3513 2113 
L 3513 0 
L 2938 0 
L 2938 2094 
Q 2938 2591 2744 2837 
Q 2550 3084 2163 3084 
Q 1697 3084 1428 2787 
Q 1159 2491 1159 1978 
L 1159 0 
L 581 0 
L 581 3500 
L 1159 3500 
L 1159 2956 
Q 1366 3272 1645 3428 
Q 1925 3584 2291 3584 
Q 2894 3584 3203 3211 
Q 3513 2838 3513 2113 
z
" transform="scale(0.015625)"/>
       <path id="DejaVuSans-61" d="M 2194 1759 
Q 1497 1759 1228 1600 
Q 959 1441 959 1056 
Q 959 750 1161 570 
Q 1363 391 1709 391 
Q 2188 391 2477 730 
Q 2766 1069 2766 1631 
L 2766 1759 
L 2194 1759 
z
M 3341 1997 
L 3341 0 
L 2766 0 
L 2766 531 
Q 2569 213 2275 61 
Q 1981 -91 1556 -91 
Q 1019 -91 701 211 
Q 384 513 384 1019 
Q 384 1609 779 1909 
Q 1175 2209 1959 2209 
L 2766 2209 
L 2766 2266 
Q 2766 2663 2505 2880 
Q 2244 3097 1772 3097 
Q 1472 3097 1187 3025 
Q 903 2953 641 2809 
L 641 3341 
Q 956 3463 1253 3523 
Q 1550 3584 1831 3584 
Q 2591 3584 2966 3190 
Q 3341 2797 3341 1997 
z
" transform="scale(0.015625)"/>
       <path id="DejaVuSans-Oblique-41" d="M 2356 4666 
L 3072 4666 
L 3938 0 
L 3278 0 
L 3084 1197 
L 984 1197 
L 325 0 
L -341 0 
L 2356 4666 
z
M 2584 4044 
L 1275 1722 
L 2988 1722 
L 2584 4044 
z
" transform="scale(0.015625)"/>
       <path id="DejaVuSans-Oblique-64" d="M 2675 525 
Q 2444 222 2128 65 
Q 1813 -91 1428 -91 
Q 903 -91 598 267 
Q 294 625 294 1247 
Q 294 1766 478 2236 
Q 663 2706 1013 3078 
Q 1244 3325 1534 3454 
Q 1825 3584 2144 3584 
Q 2481 3584 2739 3421 
Q 2997 3259 3138 2956 
L 3513 4863 
L 4091 4863 
L 3144 0 
L 2566 0 
L 2675 525 
z
M 891 1350 
Q 891 897 1095 644 
Q 1300 391 1663 391 
Q 1931 391 2161 520 
Q 2391 650 2566 903 
Q 2750 1166 2856 1509 
Q 2963 1853 2963 2188 
Q 2963 2622 2758 2865 
Q 2553 3109 2194 3109 
Q 1922 3109 1687 2981 
Q 1453 2853 1288 2613 
Q 1106 2353 998 2009 
Q 891 1666 891 1350 
z
" transform="scale(0.015625)"/>
       <path id="DejaVuSans-Oblique-6d" d="M 5747 2113 
L 5338 0 
L 4763 0 
L 5166 2094 
Q 5191 2228 5203 2325 
Q 5216 2422 5216 2491 
Q 5216 2772 5059 2928 
Q 4903 3084 4622 3084 
Q 4203 3084 3875 2770 
Q 3547 2456 3450 1953 
L 3066 0 
L 2491 0 
L 2900 2094 
Q 2925 2209 2937 2307 
Q 2950 2406 2950 2484 
Q 2950 2769 2794 2926 
Q 2638 3084 2363 3084 
Q 1938 3084 1609 2770 
Q 1281 2456 1184 1953 
L 800 0 
L 225 0 
L 909 3500 
L 1484 3500 
L 1375 2956 
Q 1609 3263 1923 3423 
Q 2238 3584 2597 3584 
Q 2978 3584 3223 3384 
Q 3469 3184 3519 2828 
Q 3781 3197 4126 3390 
Q 4472 3584 4856 3584 
Q 5306 3584 5551 3325 
Q 5797 3066 5797 2591 
Q 5797 2488 5784 2364 
Q 5772 2241 5747 2113 
z
" transform="scale(0.015625)"/>
      </defs>
      <use xlink:href="#DejaVuSans-63" transform="translate(0 0.987656)"/>
      <use xlink:href="#DejaVuSans-72" transform="translate(54.980469 0.987656)"/>
      <use xlink:href="#DejaVuSans-6f" transform="translate(96.09375 0.987656)"/>
      <use xlink:href="#DejaVuSans-73" transform="translate(157.275391 0.987656)"/>
      <use xlink:href="#DejaVuSans-73" transform="translate(209.375 0.987656)"/>
      <use xlink:href="#DejaVuSans-20" transform="translate(261.474609 0.987656)"/>
      <use xlink:href="#DejaVuSans-73" transform="translate(293.261719 0.987656)"/>
      <use xlink:href="#DejaVuSans-65" transform="translate(345.361328 0.987656)"/>
      <use xlink:href="#DejaVuSans-63" transform="translate(406.884766 0.987656)"/>
      <use xlink:href="#DejaVuSans-74" transform="translate(461.865234 0.987656)"/>
      <use xlink:href="#DejaVuSans-69" transform="translate(501.074219 0.987656)"/>
      <use xlink:href="#DejaVuSans-6f" transform="translate(528.857422 0.987656)"/>
      <use xlink:href="#DejaVuSans-6e" transform="translate(590.039062 0.987656)"/>
      <use xlink:href="#DejaVuSans-20" transform="translate(653.417969 0.987656)"/>
      <use xlink:href="#DejaVuSans-72" transform="translate(685.205078 0.987656)"/>
      <use xlink:href="#DejaVuSans-61" transform="translate(726.318359 0.987656)"/>
      <use xlink:href="#DejaVuSans-74" transform="translate(787.597656 0.987656)"/>
      <use xlink:href="#DejaVuSans-69" transform="translate(826.806641 0.987656)"/>
      <use xlink:href="#DejaVuSans-6f" transform="translate(854.589844 0.987656)"/>
      <use xlink:href="#DejaVuSans-20" transform="translate(915.771484 0.987656)"/>
      <use xlink:href="#DejaVuSans-Oblique-41" transform="translate(971.558594 56.965625) scale(0.7)"/>
      <use xlink:href="#DejaVuSans-Oblique-64" transform="translate(1019.444336 45.48125) scale(0.49)"/>
      <use xlink:href="#DejaVuSans-Oblique-41" transform="translate(947.558594 -37.499844) scale(0.7)"/>
      <use xlink:href="#DejaVuSans-Oblique-64" transform="translate(995.444336 -48.984219) scale(0.49)"/>
      <use xlink:href="#DejaVuSans-Oblique-6d" transform="translate(1026.547852 -48.984219) scale(0.49)"/>
      <path d="M 947.558594 19.784531 
L 947.558594 26.034531 
L 1076.193848 26.034531 
L 1076.193848 19.784531 
L 947.558594 19.784531 
z
"/>
     </g>
    </g>
   </g>
   <g id="matplotlib.axis_2">
    <g id="ytick_1">
     <g id="line2d_9">
      <defs>
       <path id="mc33e11f330" d="M 0 0 
L -3.5 0 
" style="stroke: #000000; stroke-width: 0.8"/>
      </defs>
      <g>
       <use xlink:href="#mc33e11f330" x="74.7" y="273.660544" style="stroke: #000000; stroke-width: 0.8"/>
      </g>
     </g>
     <g id="text_10">
      <!-- 0.4 -->
      <g transform="translate(51.796875 277.459763) scale(0.1 -0.1)">
       <use xlink:href="#DejaVuSans-30"/>
       <use xlink:href="#DejaVuSans-2e" x="63.623047"/>
       <use xlink:href="#DejaVuSans-34" x="95.410156"/>
      </g>
     </g>
    </g>
    <g id="ytick_2">
     <g id="line2d_10">
      <g>
       <use xlink:href="#mc33e11f330" x="74.7" y="232.608088" style="stroke: #000000; stroke-width: 0.8"/>
      </g>
     </g>
     <g id="text_11">
      <!-- 0.5 -->
      <g transform="translate(51.796875 236.407306) scale(0.1 -0.1)">
       <use xlink:href="#DejaVuSans-30"/>
       <use xlink:href="#DejaVuSans-2e" x="63.623047"/>
       <use xlink:href="#DejaVuSans-35" x="95.410156"/>
      </g>
     </g>
    </g>
    <g id="ytick_3">
     <g id="line2d_11">
      <g>
       <use xlink:href="#mc33e11f330" x="74.7" y="191.555631" style="stroke: #000000; stroke-width: 0.8"/>
      </g>
     </g>
     <g id="text_12">
      <!-- 0.6 -->
      <g transform="translate(51.796875 195.35485) scale(0.1 -0.1)">
       <defs>
        <path id="DejaVuSans-36" d="M 2113 2584 
Q 1688 2584 1439 2293 
Q 1191 2003 1191 1497 
Q 1191 994 1439 701 
Q 1688 409 2113 409 
Q 2538 409 2786 701 
Q 3034 994 3034 1497 
Q 3034 2003 2786 2293 
Q 2538 2584 2113 2584 
z
M 3366 4563 
L 3366 3988 
Q 3128 4100 2886 4159 
Q 2644 4219 2406 4219 
Q 1781 4219 1451 3797 
Q 1122 3375 1075 2522 
Q 1259 2794 1537 2939 
Q 1816 3084 2150 3084 
Q 2853 3084 3261 2657 
Q 3669 2231 3669 1497 
Q 3669 778 3244 343 
Q 2819 -91 2113 -91 
Q 1303 -91 875 529 
Q 447 1150 447 2328 
Q 447 3434 972 4092 
Q 1497 4750 2381 4750 
Q 2619 4750 2861 4703 
Q 3103 4656 3366 4563 
z
" transform="scale(0.015625)"/>
       </defs>
       <use xlink:href="#DejaVuSans-30"/>
       <use xlink:href="#DejaVuSans-2e" x="63.623047"/>
       <use xlink:href="#DejaVuSans-36" x="95.410156"/>
      </g>
     </g>
    </g>
    <g id="ytick_4">
     <g id="line2d_12">
      <g>
       <use xlink:href="#mc33e11f330" x="74.7" y="150.503174" style="stroke: #000000; stroke-width: 0.8"/>
      </g>
     </g>
     <g id="text_13">
      <!-- 0.7 -->
      <g transform="translate(51.796875 154.302393) scale(0.1 -0.1)">
       <defs>
        <path id="DejaVuSans-37" d="M 525 4666 
L 3525 4666 
L 3525 4397 
L 1831 0 
L 1172 0 
L 2766 4134 
L 525 4134 
L 525 4666 
z
" transform="scale(0.015625)"/>
       </defs>
       <use xlink:href="#DejaVuSans-30"/>
       <use xlink:href="#DejaVuSans-2e" x="63.623047"/>
       <use xlink:href="#DejaVuSans-37" x="95.410156"/>
      </g>
     </g>
    </g>
    <g id="ytick_5">
     <g id="line2d_13">
      <g>
       <use xlink:href="#mc33e11f330" x="74.7" y="109.450717" style="stroke: #000000; stroke-width: 0.8"/>
      </g>
     </g>
     <g id="text_14">
      <!-- 0.8 -->
      <g transform="translate(51.796875 113.249936) scale(0.1 -0.1)">
       <defs>
        <path id="DejaVuSans-38" d="M 2034 2216 
Q 1584 2216 1326 1975 
Q 1069 1734 1069 1313 
Q 1069 891 1326 650 
Q 1584 409 2034 409 
Q 2484 409 2743 651 
Q 3003 894 3003 1313 
Q 3003 1734 2745 1975 
Q 2488 2216 2034 2216 
z
M 1403 2484 
Q 997 2584 770 2862 
Q 544 3141 544 3541 
Q 544 4100 942 4425 
Q 1341 4750 2034 4750 
Q 2731 4750 3128 4425 
Q 3525 4100 3525 3541 
Q 3525 3141 3298 2862 
Q 3072 2584 2669 2484 
Q 3125 2378 3379 2068 
Q 3634 1759 3634 1313 
Q 3634 634 3220 271 
Q 2806 -91 2034 -91 
Q 1263 -91 848 271 
Q 434 634 434 1313 
Q 434 1759 690 2068 
Q 947 2378 1403 2484 
z
M 1172 3481 
Q 1172 3119 1398 2916 
Q 1625 2713 2034 2713 
Q 2441 2713 2670 2916 
Q 2900 3119 2900 3481 
Q 2900 3844 2670 4047 
Q 2441 4250 2034 4250 
Q 1625 4250 1398 4047 
Q 1172 3844 1172 3481 
z
" transform="scale(0.015625)"/>
       </defs>
       <use xlink:href="#DejaVuSans-30"/>
       <use xlink:href="#DejaVuSans-2e" x="63.623047"/>
       <use xlink:href="#DejaVuSans-38" x="95.410156"/>
      </g>
     </g>
    </g>
    <g id="ytick_6">
     <g id="line2d_14">
      <g>
       <use xlink:href="#mc33e11f330" x="74.7" y="68.398261" style="stroke: #000000; stroke-width: 0.8"/>
      </g>
     </g>
     <g id="text_15">
      <!-- 0.9 -->
      <g transform="translate(51.796875 72.197479) scale(0.1 -0.1)">
       <defs>
        <path id="DejaVuSans-39" d="M 703 97 
L 703 672 
Q 941 559 1184 500 
Q 1428 441 1663 441 
Q 2288 441 2617 861 
Q 2947 1281 2994 2138 
Q 2813 1869 2534 1725 
Q 2256 1581 1919 1581 
Q 1219 1581 811 2004 
Q 403 2428 403 3163 
Q 403 3881 828 4315 
Q 1253 4750 1959 4750 
Q 2769 4750 3195 4129 
Q 3622 3509 3622 2328 
Q 3622 1225 3098 567 
Q 2575 -91 1691 -91 
Q 1453 -91 1209 -44 
Q 966 3 703 97 
z
M 1959 2075 
Q 2384 2075 2632 2365 
Q 2881 2656 2881 3163 
Q 2881 3666 2632 3958 
Q 2384 4250 1959 4250 
Q 1534 4250 1286 3958 
Q 1038 3666 1038 3163 
Q 1038 2656 1286 2365 
Q 1534 2075 1959 2075 
z
" transform="scale(0.015625)"/>
       </defs>
       <use xlink:href="#DejaVuSans-30"/>
       <use xlink:href="#DejaVuSans-2e" x="63.623047"/>
       <use xlink:href="#DejaVuSans-39" x="95.410156"/>
      </g>
     </g>
    </g>
    <g id="text_16">
     <!-- lever arm coefficient  $m$ -->
     <g transform="translate(45.717187 239.630123) rotate(-90) scale(0.1 -0.1)">
      <defs>
       <path id="DejaVuSans-6c" d="M 603 4863 
L 1178 4863 
L 1178 0 
L 603 0 
L 603 4863 
z
" transform="scale(0.015625)"/>
       <path id="DejaVuSans-76" d="M 191 3500 
L 800 3500 
L 1894 563 
L 2988 3500 
L 3597 3500 
L 2284 0 
L 1503 0 
L 191 3500 
z
" transform="scale(0.015625)"/>
       <path id="DejaVuSans-6d" d="M 3328 2828 
Q 3544 3216 3844 3400 
Q 4144 3584 4550 3584 
Q 5097 3584 5394 3201 
Q 5691 2819 5691 2113 
L 5691 0 
L 5113 0 
L 5113 2094 
Q 5113 2597 4934 2840 
Q 4756 3084 4391 3084 
Q 3944 3084 3684 2787 
Q 3425 2491 3425 1978 
L 3425 0 
L 2847 0 
L 2847 2094 
Q 2847 2600 2669 2842 
Q 2491 3084 2119 3084 
Q 1678 3084 1418 2786 
Q 1159 2488 1159 1978 
L 1159 0 
L 581 0 
L 581 3500 
L 1159 3500 
L 1159 2956 
Q 1356 3278 1631 3431 
Q 1906 3584 2284 3584 
Q 2666 3584 2933 3390 
Q 3200 3197 3328 2828 
z
" transform="scale(0.015625)"/>
       <path id="DejaVuSans-66" d="M 2375 4863 
L 2375 4384 
L 1825 4384 
Q 1516 4384 1395 4259 
Q 1275 4134 1275 3809 
L 1275 3500 
L 2222 3500 
L 2222 3053 
L 1275 3053 
L 1275 0 
L 697 0 
L 697 3053 
L 147 3053 
L 147 3500 
L 697 3500 
L 697 3744 
Q 697 4328 969 4595 
Q 1241 4863 1831 4863 
L 2375 4863 
z
" transform="scale(0.015625)"/>
      </defs>
      <use xlink:href="#DejaVuSans-6c" transform="translate(0 0.015625)"/>
      <use xlink:href="#DejaVuSans-65" transform="translate(27.783203 0.015625)"/>
      <use xlink:href="#DejaVuSans-76" transform="translate(89.306641 0.015625)"/>
      <use xlink:href="#DejaVuSans-65" transform="translate(148.486328 0.015625)"/>
      <use xlink:href="#DejaVuSans-72" transform="translate(210.009766 0.015625)"/>
      <use xlink:href="#DejaVuSans-20" transform="translate(251.123047 0.015625)"/>
      <use xlink:href="#DejaVuSans-61" transform="translate(282.910156 0.015625)"/>
      <use xlink:href="#DejaVuSans-72" transform="translate(344.189453 0.015625)"/>
      <use xlink:href="#DejaVuSans-6d" transform="translate(385.302734 0.015625)"/>
      <use xlink:href="#DejaVuSans-20" transform="translate(482.714844 0.015625)"/>
      <use xlink:href="#DejaVuSans-63" transform="translate(514.501953 0.015625)"/>
      <use xlink:href="#DejaVuSans-6f" transform="translate(569.482422 0.015625)"/>
      <use xlink:href="#DejaVuSans-65" transform="translate(630.664062 0.015625)"/>
      <use xlink:href="#DejaVuSans-66" transform="translate(692.1875 0.015625)"/>
      <use xlink:href="#DejaVuSans-66" transform="translate(727.392578 0.015625)"/>
      <use xlink:href="#DejaVuSans-69" transform="translate(762.597656 0.015625)"/>
      <use xlink:href="#DejaVuSans-63" transform="translate(790.380859 0.015625)"/>
      <use xlink:href="#DejaVuSans-69" transform="translate(845.361328 0.015625)"/>
      <use xlink:href="#DejaVuSans-65" transform="translate(873.144531 0.015625)"/>
      <use xlink:href="#DejaVuSans-6e" transform="translate(934.667969 0.015625)"/>
      <use xlink:href="#DejaVuSans-74" transform="translate(998.046875 0.015625)"/>
      <use xlink:href="#DejaVuSans-20" transform="translate(1037.255859 0.015625)"/>
      <use xlink:href="#DejaVuSans-20" transform="translate(1069.042969 0.015625)"/>
      <use xlink:href="#DejaVuSans-Oblique-6d" transform="translate(1100.830078 0.015625)"/>
     </g>
    </g>
   </g>
   <g id="line2d_15">
    <path d="M 123.275943 97.03379 
L 123.425094 100.251973 
L 124.032378 104.732314 
L 124.485792 110.137357 
L 125.244462 116.186736 
L 126.310625 122.650075 
L 127.683037 129.340505 
L 128.903069 136.108776 
L 130.122108 142.837917 
L 132.107269 149.438423 
L 134.398183 155.843942 
L 136.845451 162.007415 
L 140.210226 167.89766 
L 143.424113 173.496351 
L 146.638744 178.795379 
L 150.160122 183.794566 
L 153.836116 188.499689 
L 157.511612 192.920812 
L 161.035226 197.070878 
L 164.558591 200.964557 
L 169.614696 204.617306 
L 176.050417 208.044639 
L 179.574776 211.261561 
L 186.471858 214.282172 
L 192.449943 217.119395 
L 198.428027 219.784831 
L 201.800503 222.288703 
L 206.552345 224.639886 
L 211.458306 226.846006 
L 217.130885 228.913578 
L 222.035356 230.848188 
L 228.781549 232.654697 
L 236.906115 234.33745 
L 242.578943 235.900493 
L 247.638029 237.347771 
L 252.391859 238.680322 
L 258.218805 239.911409 
L 262.512266 241.036701 
L 266.652602 242.064309 
L 270.946063 242.999871 
L 276.619636 243.849555 
L 283.060572 244.620029 
L 287.81465 245.318386 
L 292.41461 245.952039 
L 296.708567 246.528565 
L 301.922517 247.055534 
L 306.67585 247.5403 
L 312.963661 247.989782 
L 320.018588 248.410236 
L 327.992761 248.80703 
L 335.814307 249.184433 
L 342.102118 249.545437 
L 349.617414 249.891622 
L 356.978591 250.223084 
L 366.02762 250.538443 
L 374.002538 250.834957 
L 385.965413 251.108755 
L 394.247078 251.355224 
L 401.14888 251.569565 
L 410.044784 251.747557 
L 423.847891 251.886543 
L 432.130053 251.986688 
L 443.326061 252.052527 
L 451.91497 252.094845 
L 463.417477 252.13292 
L 474.46036 252.197182 
L 481.82253 252.332309 
L 491.944179 252.600813 
L 501.452831 253.087169 
L 508.046893 253.902514 
L 516.788182 255.189983 
" clip-path="url(#p5bfe4ac257)" style="fill: none; stroke-dasharray: 5.55,2.4; stroke-dashoffset: 0; stroke: #000000; stroke-width: 1.5"/>
   </g>
   <g id="line2d_16">
    <path d="M 101.719062 63.461829 
L 102.037571 75.860904 
L 103.342513 87.527621 
L 103.660164 98.529847 
L 105.620154 108.926252 
L 106.597573 118.767393 
L 107.903803 128.096705 
L 110.196467 136.951411 
L 112.16032 145.363347 
L 114.781796 153.359702 
L 116.747795 160.9637 
L 118.384553 168.195201 
L 121.336986 175.071247 
L 122.975891 181.606544 
L 126.91347 187.813891 
L 128.881615 193.704558 
L 131.506954 199.288618 
L 133.146717 204.575233 
L 136.757202 209.572898 
L 139.055876 214.289655 
L 141.682502 218.733265 
L 145.951467 222.911356 
L 148.906476 226.831539 
L 152.847918 230.501502 
L 156.461407 233.929073 
L 160.403708 237.122279 
L 163.360433 240.089367 
L 169.603983 242.838828 
L 174.533146 245.379391 
L 177.491159 247.720021 
L 181.763988 249.86989 
L 186.036388 251.838355 
L 191.623603 253.634921 
L 194.581616 255.269198 
L 199.184114 256.750858 
L 202.142127 258.089588 
L 206.744197 259.295038 
L 209.703068 260.376774 
L 213.976756 261.344227 
L 216.606816 262.206644 
L 222.523701 262.973041 
L 224.824521 263.652159 
L 228.770255 264.252425 
L 233.373183 264.78191 
L 237.64687 265.248299 
L 241.263365 265.658858 
L 245.20867 266.020415 
L 248.167971 266.339334 
L 254.414525 266.621502 
L 259.017024 266.87232 
L 263.29157 267.096698 
L 266.579682 267.299053 
L 278.087645 267.57391 
L 283.020672 267.692537 
L 285.320633 267.776622 
L 290.25366 267.943114 
L 292.555338 268.102942 
L 295.514639 268.257182 
L 300.775619 268.406561 
L 305.049306 268.5515 
L 311.62596 268.692176 
L 313.598398 268.828568 
L 317.543703 268.960518 
L 320.174193 269.087776 
L 323.462305 269.210058 
L 326.421606 269.327088 
L 329.052095 269.438645 
L 332.011396 269.544602 
L 335.956702 269.644961 
L 339.244814 269.739884 
L 342.204544 269.829712 
L 345.162986 269.914984 
L 348.122287 269.996445 
L 352.068451 270.075048 
L 354.698512 270.151951 
L 359.301869 270.228499 
L 362.589551 270.306206 
L 367.522149 270.386727 
L 371.138643 270.471824 
L 374.097944 270.563324 
L 377.714438 270.663072 
L 381.331361 270.772881 
L 385.606336 270.894477 
L 390.866457 271.029445 
L 394.154569 271.179166 
L 401.717227 271.344763 
L 406.978207 271.527049 
L 410.923083 271.726477 
L 415.526869 271.943098 
L 420.458608 272.176533 
L 428.021266 272.425953 
L 436.241117 272.690077 
L 442.8182 272.967195 
L 449.392707 273.255207 
L 453.338871 273.551693 
L 457.941369 273.85402 
L 462.544726 274.159476 
L 466.489603 274.465456 
L 472.407775 274.769689 
L 479.31324 275.070525 
L 484.902172 275.36727 
L 490.491533 275.6606 
L 494.766508 275.953041 
L 499.699106 276.249529 
L 504.629557 276.558057 
L 509.561725 276.890427 
" clip-path="url(#p5bfe4ac257)" style="fill: none; stroke: #ff0000; stroke-width: 1.5; stroke-linecap: square"/>
   </g>
   <g id="line2d_17">
    <path d="M 95.751818 153.762516 
L 97.584599 158.277982 
L 98.345505 163.725127 
L 99.259287 169.862736 
L 100.937701 176.486095 
L 102.463238 183.42226 
L 104.602021 190.525914 
L 107.505435 197.675746 
L 110.104834 204.771307 
L 112.856116 211.730266 
L 116.068512 218.486035 
L 119.281405 224.985709 
L 123.260916 231.188278 
L 127.087551 237.06308 
L 130.455804 242.58845 
L 134.285668 247.750547 
L 138.266917 252.542325 
L 142.862406 256.962622 
L 147.153135 261.015355 
L 153.589601 264.708794 
L 160.944816 268.054907 
L 167.382524 271.068759 
L 173.668348 273.767957 
L 182.405912 276.172133 
L 187.158499 278.302453 
L 191.451463 280.181164 
L 196.511046 281.831153 
L 202.643994 283.27554 
L 207.091077 284.537283 
L 212.917775 285.63882 
L 216.59799 286.601727 
L 222.424688 287.44641 
L 227.945136 288.191831 
L 233.006209 288.858824 
L 239.293524 289.452106 
L 241.286881 289.995703 
L 256.008241 290.497259 
L 261.222936 290.965773 
L 264.903152 291.408035 
L 270.57747 291.828682 
L 278.093014 292.230304 
L 283.15359 292.613616 
L 290.361393 292.977679 
L 299.410919 293.320181 
L 306.618474 293.637757 
L 314.593641 293.926366 
L 321.341076 294.181693 
L 329.77686 294.39958 
L 340.97262 294.57647 
L 352.322249 294.709853 
L 362.905757 294.79868 
L 373.488023 294.843753 
L 383.303671 294.848039 
L 392.199823 294.816898 
L 400.788484 294.758189 
L 410.297633 294.682227 
L 418.733665 294.601534 
L 429.315931 294.530376 
L 440.511691 294.483999 
L 451.401449 294.477554 
L 460.143483 294.524629 
L 470.113001 294.635333 
L 477.781669 294.813889 
L 487.751187 295.055634 
L 498.333701 295.343379 
L 506.921368 295.643032 
L 516.583394 295.898417 
" clip-path="url(#p5bfe4ac257)" style="fill: none; stroke-dasharray: 5.55,2.4; stroke-dashoffset: 0; stroke: #000000; stroke-width: 1.5"/>
   </g>
   <g id="patch_3">
    <path d="M 74.7 307.520246 
L 74.7 51.84 
" style="fill: none; stroke: #000000; stroke-width: 0.8; stroke-linejoin: miter; stroke-linecap: square"/>
   </g>
   <g id="patch_4">
    <path d="M 537.84 307.520246 
L 537.84 51.84 
" style="fill: none; stroke: #000000; stroke-width: 0.8; stroke-linejoin: miter; stroke-linecap: square"/>
   </g>
   <g id="patch_5">
    <path d="M 74.7 307.520246 
L 537.84 307.520246 
" style="fill: none; stroke: #000000; stroke-width: 0.8; stroke-linejoin: miter; stroke-linecap: square"/>
   </g>
   <g id="patch_6">
    <path d="M 74.7 51.84 
L 537.84 51.84 
" style="fill: none; stroke: #000000; stroke-width: 0.8; stroke-linejoin: miter; stroke-linecap: square"/>
   </g>
   <g id="text_17">
    <g id="patch_7">
     <path d="M 385.0038 111.923782 
L 493.4838 111.923782 
Q 497.0838 111.923782 497.0838 108.323782 
L 497.0838 58.646032 
Q 497.0838 55.046032 493.4838 55.046032 
L 385.0038 55.046032 
Q 381.4038 55.046032 381.4038 58.646032 
L 381.4038 108.323782 
Q 381.4038 111.923782 385.0038 111.923782 
z
" style="fill: #ffffff; opacity: 0.5; stroke: #000000; stroke-linejoin: miter"/>
    </g>
    <!-- $v_w=0.1...2 \frac{m}{s}$ -->
    <g transform="translate(385.0038 69.470407) scale(0.12 -0.12)">
     <defs>
      <path id="DejaVuSans-Oblique-76" d="M 459 3500 
L 1069 3500 
L 1581 525 
L 3256 3500 
L 3866 3500 
L 1875 0 
L 1100 0 
L 459 3500 
z
" transform="scale(0.015625)"/>
      <path id="DejaVuSans-Oblique-77" d="M 544 3500 
L 1113 3500 
L 1259 684 
L 2566 3500 
L 3231 3500 
L 3425 684 
L 4666 3500 
L 5241 3500 
L 3641 0 
L 2969 0 
L 2797 2900 
L 1459 0 
L 781 0 
L 544 3500 
z
" transform="scale(0.015625)"/>
      <path id="DejaVuSans-3d" d="M 678 2906 
L 4684 2906 
L 4684 2381 
L 678 2381 
L 678 2906 
z
M 678 1631 
L 4684 1631 
L 4684 1100 
L 678 1100 
L 678 1631 
z
" transform="scale(0.015625)"/>
      <path id="DejaVuSans-Oblique-73" d="M 3200 3397 
L 3091 2853 
Q 2863 2978 2609 3040 
Q 2356 3103 2088 3103 
Q 1634 3103 1373 2948 
Q 1113 2794 1113 2528 
Q 1113 2219 1719 2053 
Q 1766 2041 1788 2034 
L 1972 1978 
Q 2547 1819 2739 1644 
Q 2931 1469 2931 1166 
Q 2931 609 2489 259 
Q 2047 -91 1331 -91 
Q 1053 -91 747 -37 
Q 441 16 72 128 
L 184 722 
Q 500 559 806 475 
Q 1113 391 1394 391 
Q 1816 391 2080 572 
Q 2344 753 2344 1031 
Q 2344 1331 1650 1516 
L 1591 1531 
L 1394 1581 
Q 956 1697 753 1886 
Q 550 2075 550 2369 
Q 550 2928 970 3256 
Q 1391 3584 2113 3584 
Q 2397 3584 2667 3537 
Q 2938 3491 3200 3397 
z
" transform="scale(0.015625)"/>
     </defs>
     <use xlink:href="#DejaVuSans-Oblique-76" transform="translate(0 0.003125)"/>
     <use xlink:href="#DejaVuSans-Oblique-77" transform="translate(59.179688 -16.403125) scale(0.7)"/>
     <use xlink:href="#DejaVuSans-3d" transform="translate(138.647461 0.003125)"/>
     <use xlink:href="#DejaVuSans-30" transform="translate(241.918945 0.003125)"/>
     <use xlink:href="#DejaVuSans-2e" transform="translate(305.541992 0.003125)"/>
     <use xlink:href="#DejaVuSans-31" transform="translate(337.329102 0.003125)"/>
     <use xlink:href="#DejaVuSans-2e" transform="translate(400.952148 0.003125)"/>
     <use xlink:href="#DejaVuSans-2e" transform="translate(452.22168 0.003125)"/>
     <use xlink:href="#DejaVuSans-2e" transform="translate(503.491211 0.003125)"/>
     <use xlink:href="#DejaVuSans-32" transform="translate(554.760742 0.003125)"/>
     <use xlink:href="#DejaVuSans-Oblique-6d" transform="translate(618.383789 43.8) scale(0.7)"/>
     <use xlink:href="#DejaVuSans-Oblique-73" transform="translate(634.383789 -26.65) scale(0.7)"/>
     <path d="M 618.383789 18.8 
L 618.383789 25.05 
L 686.572266 25.05 
L 686.572266 18.8 
L 618.383789 18.8 
z
"/>
    </g>
    <!-- $\frac{b_k}{h_k}=1.25...4.4$ -->
    <g transform="translate(385.0038 88.526407) scale(0.12 -0.12)">
     <defs>
      <path id="DejaVuSans-Oblique-62" d="M 3169 2138 
Q 3169 2591 2961 2847 
Q 2753 3103 2388 3103 
Q 2122 3103 1889 2973 
Q 1656 2844 1484 2597 
Q 1303 2338 1198 1995 
Q 1094 1653 1094 1313 
Q 1094 881 1298 636 
Q 1503 391 1863 391 
Q 2134 391 2365 517 
Q 2597 644 2772 891 
Q 2950 1147 3059 1487 
Q 3169 1828 3169 2138 
z
M 1381 2969 
Q 1594 3256 1914 3420 
Q 2234 3584 2584 3584 
Q 3122 3584 3439 3221 
Q 3756 2859 3756 2241 
Q 3756 1734 3570 1259 
Q 3384 784 3041 416 
Q 2816 172 2522 40 
Q 2228 -91 1906 -91 
Q 1566 -91 1316 65 
Q 1066 222 909 531 
L 806 0 
L 231 0 
L 1178 4863 
L 1753 4863 
L 1381 2969 
z
" transform="scale(0.015625)"/>
      <path id="DejaVuSans-Oblique-6b" d="M 1172 4863 
L 1747 4863 
L 1197 2028 
L 3169 3500 
L 3916 3500 
L 1716 1825 
L 3322 0 
L 2625 0 
L 1131 1709 
L 800 0 
L 225 0 
L 1172 4863 
z
" transform="scale(0.015625)"/>
      <path id="DejaVuSans-Oblique-68" d="M 3566 2113 
L 3156 0 
L 2578 0 
L 2988 2091 
Q 3016 2238 3031 2350 
Q 3047 2463 3047 2528 
Q 3047 2791 2881 2937 
Q 2716 3084 2419 3084 
Q 1956 3084 1617 2771 
Q 1278 2459 1178 1941 
L 800 0 
L 225 0 
L 1172 4863 
L 1747 4863 
L 1375 2950 
Q 1594 3244 1934 3414 
Q 2275 3584 2650 3584 
Q 3113 3584 3367 3334 
Q 3622 3084 3622 2631 
Q 3622 2519 3608 2391 
Q 3594 2263 3566 2113 
z
" transform="scale(0.015625)"/>
     </defs>
     <use xlink:href="#DejaVuSans-Oblique-62" transform="translate(0 55.810938) scale(0.7)"/>
     <use xlink:href="#DejaVuSans-Oblique-6b" transform="translate(44.433594 44.326562) scale(0.49)"/>
     <use xlink:href="#DejaVuSans-Oblique-68" transform="translate(0 -40.1125) scale(0.7)"/>
     <use xlink:href="#DejaVuSans-Oblique-6b" transform="translate(44.365234 -51.596875) scale(0.49)"/>
     <use xlink:href="#DejaVuSans-3d" transform="translate(106.706055 0.529687)"/>
     <use xlink:href="#DejaVuSans-31" transform="translate(209.977539 0.529687)"/>
     <use xlink:href="#DejaVuSans-2e" transform="translate(273.600586 0.529687)"/>
     <use xlink:href="#DejaVuSans-32" transform="translate(299.887695 0.529687)"/>
     <use xlink:href="#DejaVuSans-35" transform="translate(363.510742 0.529687)"/>
     <use xlink:href="#DejaVuSans-2e" transform="translate(427.133789 0.529687)"/>
     <use xlink:href="#DejaVuSans-2e" transform="translate(478.40332 0.529687)"/>
     <use xlink:href="#DejaVuSans-2e" transform="translate(529.672852 0.529687)"/>
     <use xlink:href="#DejaVuSans-34" transform="translate(580.942383 0.529687)"/>
     <use xlink:href="#DejaVuSans-2e" transform="translate(644.56543 0.529687)"/>
     <use xlink:href="#DejaVuSans-34" transform="translate(676.352539 0.529687)"/>
     <path d="M 0 19.326562 
L 0 25.576562 
L 74.723633 25.576562 
L 74.723633 19.326562 
L 0 19.326562 
z
"/>
    </g>
    <!-- $\vartheta=900...1000C$ -->
    <g transform="translate(385.0038 105.828157) scale(0.12 -0.12)">
     <defs>
      <path id="DejaVuSans-Oblique-3d1" d="M 3009 2750 
Q 3178 3519 3081 3913 
Q 2950 4444 2513 4444 
Q 2253 4444 2009 4222 
Q 1794 4016 1741 3734 
Q 1647 3256 1959 2922 
Q 2150 2719 3009 2750 
z
M 2913 2219 
Q 1944 2191 1581 2422 
Q 994 2797 1175 3719 
Q 1272 4219 1663 4563 
Q 2056 4913 2603 4913 
Q 3256 4913 3550 4250 
Q 3828 3625 3566 2422 
Q 3303 1213 2781 594 
Q 2225 -72 1475 -72 
Q 734 -72 425 594 
Q 97 1297 419 2753 
L 1028 2750 
Q 694 1556 928 884 
Q 1100 400 1566 400 
Q 2016 400 2391 888 
Q 2788 1406 2913 2219 
z
" transform="scale(0.015625)"/>
      <path id="DejaVuSans-b0" d="M 1600 4347 
Q 1350 4347 1178 4173 
Q 1006 4000 1006 3750 
Q 1006 3503 1178 3333 
Q 1350 3163 1600 3163 
Q 1850 3163 2022 3333 
Q 2194 3503 2194 3750 
Q 2194 3997 2020 4172 
Q 1847 4347 1600 4347 
z
M 1600 4750 
Q 1800 4750 1984 4673 
Q 2169 4597 2303 4453 
Q 2447 4313 2519 4134 
Q 2591 3956 2591 3750 
Q 2591 3338 2302 3052 
Q 2013 2766 1594 2766 
Q 1172 2766 890 3047 
Q 609 3328 609 3750 
Q 609 4169 896 4459 
Q 1184 4750 1600 4750 
z
" transform="scale(0.015625)"/>
      <path id="DejaVuSans-Oblique-43" d="M 4447 4306 
L 4319 3641 
Q 4019 3944 3683 4091 
Q 3347 4238 2956 4238 
Q 2422 4238 2017 3981 
Q 1613 3725 1319 3200 
Q 1131 2863 1032 2486 
Q 934 2109 934 1728 
Q 934 1091 1264 756 
Q 1594 422 2222 422 
Q 2656 422 3056 561 
Q 3456 700 3834 978 
L 3688 231 
Q 3316 72 2936 -9 
Q 2556 -91 2175 -91 
Q 1278 -91 773 396 
Q 269 884 269 1753 
Q 269 2309 461 2846 
Q 653 3384 1013 3828 
Q 1394 4300 1883 4525 
Q 2372 4750 3022 4750 
Q 3422 4750 3780 4639 
Q 4138 4528 4447 4306 
z
" transform="scale(0.015625)"/>
     </defs>
     <use xlink:href="#DejaVuSans-Oblique-3d1" transform="translate(0 0.234375)"/>
     <use xlink:href="#DejaVuSans-3d" transform="translate(81.396484 0.234375)"/>
     <use xlink:href="#DejaVuSans-39" transform="translate(184.667969 0.234375)"/>
     <use xlink:href="#DejaVuSans-30" transform="translate(248.291016 0.234375)"/>
     <use xlink:href="#DejaVuSans-30" transform="translate(311.914062 0.234375)"/>
     <use xlink:href="#DejaVuSans-2e" transform="translate(375.537109 0.234375)"/>
     <use xlink:href="#DejaVuSans-2e" transform="translate(426.806641 0.234375)"/>
     <use xlink:href="#DejaVuSans-2e" transform="translate(478.076172 0.234375)"/>
     <use xlink:href="#DejaVuSans-31" transform="translate(529.345703 0.234375)"/>
     <use xlink:href="#DejaVuSans-30" transform="translate(592.96875 0.234375)"/>
     <use xlink:href="#DejaVuSans-30" transform="translate(656.591797 0.234375)"/>
     <use xlink:href="#DejaVuSans-30" transform="translate(720.214844 0.234375)"/>
     <use xlink:href="#DejaVuSans-b0" transform="translate(783.837891 0.234375)"/>
     <use xlink:href="#DejaVuSans-Oblique-43" transform="translate(833.837891 0.234375)"/>
    </g>
   </g>
  </g>
  <g id="legend_1">
   <g id="patch_8">
    <path d="M 69.1 396.76 
L 528.5 396.76 
Q 530.5 396.76 530.5 394.76 
L 530.5 351.680313 
Q 530.5 349.680313 528.5 349.680313 
L 69.1 349.680313 
Q 67.1 349.680313 67.1 351.680313 
L 67.1 394.76 
Q 67.1 396.76 69.1 396.76 
z
" style="fill: #ffffff; opacity: 0.8; stroke: #cccccc; stroke-linejoin: miter"/>
   </g>
   <g id="line2d_18">
    <defs>
     <path id="mb22d682299" d="M -3 3 
L 3 3 
L 3 -3 
L -3 -3 
z
" style="stroke: #000000; stroke-linejoin: miter"/>
    </defs>
    <g>
     <use xlink:href="#mb22d682299" x="81.1" y="357.780312" style="stroke: #000000; stroke-linejoin: miter"/>
    </g>
   </g>
   <g id="text_18">
    <!-- box $\rightarrow$ box -->
    <g transform="translate(99.1 361.280312) scale(0.1 -0.1)">
     <defs>
      <path id="DejaVuSans-62" d="M 3116 1747 
Q 3116 2381 2855 2742 
Q 2594 3103 2138 3103 
Q 1681 3103 1420 2742 
Q 1159 2381 1159 1747 
Q 1159 1113 1420 752 
Q 1681 391 2138 391 
Q 2594 391 2855 752 
Q 3116 1113 3116 1747 
z
M 1159 2969 
Q 1341 3281 1617 3432 
Q 1894 3584 2278 3584 
Q 2916 3584 3314 3078 
Q 3713 2572 3713 1747 
Q 3713 922 3314 415 
Q 2916 -91 2278 -91 
Q 1894 -91 1617 61 
Q 1341 213 1159 525 
L 1159 0 
L 581 0 
L 581 4863 
L 1159 4863 
L 1159 2969 
z
" transform="scale(0.015625)"/>
      <path id="DejaVuSans-78" d="M 3513 3500 
L 2247 1797 
L 3578 0 
L 2900 0 
L 1881 1375 
L 863 0 
L 184 0 
L 1544 1831 
L 300 3500 
L 978 3500 
L 1906 2253 
L 2834 3500 
L 3513 3500 
z
" transform="scale(0.015625)"/>
      <path id="DejaVuSans-2192" d="M 5050 2147 
L 5050 1866 
L 3822 638 
L 3447 1013 
L 4175 1741 
L 366 1741 
L 366 2272 
L 4175 2272 
L 3447 3000 
L 3822 3375 
L 5050 2147 
z
" transform="scale(0.015625)"/>
     </defs>
     <use xlink:href="#DejaVuSans-62" transform="translate(0 0.015625)"/>
     <use xlink:href="#DejaVuSans-6f" transform="translate(63.476562 0.015625)"/>
     <use xlink:href="#DejaVuSans-78" transform="translate(124.658203 0.015625)"/>
     <use xlink:href="#DejaVuSans-20" transform="translate(183.837891 0.015625)"/>
     <use xlink:href="#DejaVuSans-2192" transform="translate(235.107422 0.015625)"/>
     <use xlink:href="#DejaVuSans-20" transform="translate(338.378906 0.015625)"/>
     <use xlink:href="#DejaVuSans-62" transform="translate(370.166016 0.015625)"/>
     <use xlink:href="#DejaVuSans-6f" transform="translate(433.642578 0.015625)"/>
     <use xlink:href="#DejaVuSans-78" transform="translate(494.824219 0.015625)"/>
    </g>
   </g>
   <g id="line2d_19">
    <defs>
     <path id="md38ad6f2d6" d="M -3 3 
L 3 -3 
M -3 -3 
L 3 3 
" style="stroke: #000000"/>
    </defs>
    <g>
     <use xlink:href="#md38ad6f2d6" x="81.1" y="372.46" style="stroke: #000000"/>
    </g>
   </g>
   <g id="text_19">
    <!-- diamond $\rightarrow$ square -->
    <g transform="translate(99.1 375.96) scale(0.1 -0.1)">
     <defs>
      <path id="DejaVuSans-64" d="M 2906 2969 
L 2906 4863 
L 3481 4863 
L 3481 0 
L 2906 0 
L 2906 525 
Q 2725 213 2448 61 
Q 2172 -91 1784 -91 
Q 1150 -91 751 415 
Q 353 922 353 1747 
Q 353 2572 751 3078 
Q 1150 3584 1784 3584 
Q 2172 3584 2448 3432 
Q 2725 3281 2906 2969 
z
M 947 1747 
Q 947 1113 1208 752 
Q 1469 391 1925 391 
Q 2381 391 2643 752 
Q 2906 1113 2906 1747 
Q 2906 2381 2643 2742 
Q 2381 3103 1925 3103 
Q 1469 3103 1208 2742 
Q 947 2381 947 1747 
z
" transform="scale(0.015625)"/>
      <path id="DejaVuSans-71" d="M 947 1747 
Q 947 1113 1208 752 
Q 1469 391 1925 391 
Q 2381 391 2643 752 
Q 2906 1113 2906 1747 
Q 2906 2381 2643 2742 
Q 2381 3103 1925 3103 
Q 1469 3103 1208 2742 
Q 947 2381 947 1747 
z
M 2906 525 
Q 2725 213 2448 61 
Q 2172 -91 1784 -91 
Q 1150 -91 751 415 
Q 353 922 353 1747 
Q 353 2572 751 3078 
Q 1150 3584 1784 3584 
Q 2172 3584 2448 3432 
Q 2725 3281 2906 2969 
L 2906 3500 
L 3481 3500 
L 3481 -1331 
L 2906 -1331 
L 2906 525 
z
" transform="scale(0.015625)"/>
      <path id="DejaVuSans-75" d="M 544 1381 
L 544 3500 
L 1119 3500 
L 1119 1403 
Q 1119 906 1312 657 
Q 1506 409 1894 409 
Q 2359 409 2629 706 
Q 2900 1003 2900 1516 
L 2900 3500 
L 3475 3500 
L 3475 0 
L 2900 0 
L 2900 538 
Q 2691 219 2414 64 
Q 2138 -91 1772 -91 
Q 1169 -91 856 284 
Q 544 659 544 1381 
z
M 1991 3584 
L 1991 3584 
z
" transform="scale(0.015625)"/>
     </defs>
     <use xlink:href="#DejaVuSans-64" transform="translate(0 0.015625)"/>
     <use xlink:href="#DejaVuSans-69" transform="translate(63.476562 0.015625)"/>
     <use xlink:href="#DejaVuSans-61" transform="translate(91.259766 0.015625)"/>
     <use xlink:href="#DejaVuSans-6d" transform="translate(152.539062 0.015625)"/>
     <use xlink:href="#DejaVuSans-6f" transform="translate(249.951172 0.015625)"/>
     <use xlink:href="#DejaVuSans-6e" transform="translate(311.132812 0.015625)"/>
     <use xlink:href="#DejaVuSans-64" transform="translate(374.511719 0.015625)"/>
     <use xlink:href="#DejaVuSans-20" transform="translate(437.988281 0.015625)"/>
     <use xlink:href="#DejaVuSans-2192" transform="translate(489.257812 0.015625)"/>
     <use xlink:href="#DejaVuSans-20" transform="translate(592.529297 0.015625)"/>
     <use xlink:href="#DejaVuSans-73" transform="translate(624.316406 0.015625)"/>
     <use xlink:href="#DejaVuSans-71" transform="translate(676.416016 0.015625)"/>
     <use xlink:href="#DejaVuSans-75" transform="translate(739.892578 0.015625)"/>
     <use xlink:href="#DejaVuSans-61" transform="translate(803.271484 0.015625)"/>
     <use xlink:href="#DejaVuSans-72" transform="translate(864.550781 0.015625)"/>
     <use xlink:href="#DejaVuSans-65" transform="translate(905.664062 0.015625)"/>
    </g>
   </g>
   <g id="line2d_20">
    <defs>
     <path id="m207b3f1243" d="M 0 0 
L 0 3 
M 0 0 
L 2.4 -1.5 
M 0 0 
L -2.4 -1.5 
" style="stroke: #000000"/>
    </defs>
    <g>
     <use xlink:href="#m207b3f1243" x="81.1" y="387.16" style="stroke: #000000"/>
    </g>
   </g>
   <g id="text_20">
    <!-- swedish oval $\rightarrow$ square -->
    <g transform="translate(99.1 390.66) scale(0.1 -0.1)">
     <defs>
      <path id="DejaVuSans-77" d="M 269 3500 
L 844 3500 
L 1563 769 
L 2278 3500 
L 2956 3500 
L 3675 769 
L 4391 3500 
L 4966 3500 
L 4050 0 
L 3372 0 
L 2619 2869 
L 1863 0 
L 1184 0 
L 269 3500 
z
" transform="scale(0.015625)"/>
      <path id="DejaVuSans-68" d="M 3513 2113 
L 3513 0 
L 2938 0 
L 2938 2094 
Q 2938 2591 2744 2837 
Q 2550 3084 2163 3084 
Q 1697 3084 1428 2787 
Q 1159 2491 1159 1978 
L 1159 0 
L 581 0 
L 581 4863 
L 1159 4863 
L 1159 2956 
Q 1366 3272 1645 3428 
Q 1925 3584 2291 3584 
Q 2894 3584 3203 3211 
Q 3513 2838 3513 2113 
z
" transform="scale(0.015625)"/>
     </defs>
     <use xlink:href="#DejaVuSans-73" transform="translate(0 0.015625)"/>
     <use xlink:href="#DejaVuSans-77" transform="translate(52.099609 0.015625)"/>
     <use xlink:href="#DejaVuSans-65" transform="translate(133.886719 0.015625)"/>
     <use xlink:href="#DejaVuSans-64" transform="translate(195.410156 0.015625)"/>
     <use xlink:href="#DejaVuSans-69" transform="translate(258.886719 0.015625)"/>
     <use xlink:href="#DejaVuSans-73" transform="translate(286.669922 0.015625)"/>
     <use xlink:href="#DejaVuSans-68" transform="translate(338.769531 0.015625)"/>
     <use xlink:href="#DejaVuSans-20" transform="translate(402.148438 0.015625)"/>
     <use xlink:href="#DejaVuSans-6f" transform="translate(433.935547 0.015625)"/>
     <use xlink:href="#DejaVuSans-76" transform="translate(495.117188 0.015625)"/>
     <use xlink:href="#DejaVuSans-61" transform="translate(554.296875 0.015625)"/>
     <use xlink:href="#DejaVuSans-6c" transform="translate(615.576172 0.015625)"/>
     <use xlink:href="#DejaVuSans-20" transform="translate(643.359375 0.015625)"/>
     <use xlink:href="#DejaVuSans-2192" transform="translate(694.628906 0.015625)"/>
     <use xlink:href="#DejaVuSans-20" transform="translate(797.900391 0.015625)"/>
     <use xlink:href="#DejaVuSans-73" transform="translate(829.6875 0.015625)"/>
     <use xlink:href="#DejaVuSans-71" transform="translate(881.787109 0.015625)"/>
     <use xlink:href="#DejaVuSans-75" transform="translate(945.263672 0.015625)"/>
     <use xlink:href="#DejaVuSans-61" transform="translate(1008.642578 0.015625)"/>
     <use xlink:href="#DejaVuSans-72" transform="translate(1069.921875 0.015625)"/>
     <use xlink:href="#DejaVuSans-65" transform="translate(1111.035156 0.015625)"/>
    </g>
   </g>
   <g id="line2d_21">
    <defs>
     <path id="m7f473daec9" d="M 0 0 
L 0 -3 
M 0 0 
L -2.4 1.5 
M 0 0 
L 2.4 1.5 
" style="stroke: #000000"/>
    </defs>
    <g>
     <use xlink:href="#m7f473daec9" x="246.4" y="357.780312" style="stroke: #000000"/>
    </g>
   </g>
   <g id="text_21">
    <!-- oval $\rightarrow$ round -->
    <g transform="translate(264.4 361.280312) scale(0.1 -0.1)">
     <use xlink:href="#DejaVuSans-6f" transform="translate(0 0.015625)"/>
     <use xlink:href="#DejaVuSans-76" transform="translate(61.181641 0.015625)"/>
     <use xlink:href="#DejaVuSans-61" transform="translate(120.361328 0.015625)"/>
     <use xlink:href="#DejaVuSans-6c" transform="translate(181.640625 0.015625)"/>
     <use xlink:href="#DejaVuSans-20" transform="translate(209.423828 0.015625)"/>
     <use xlink:href="#DejaVuSans-2192" transform="translate(260.693359 0.015625)"/>
     <use xlink:href="#DejaVuSans-20" transform="translate(363.964844 0.015625)"/>
     <use xlink:href="#DejaVuSans-72" transform="translate(395.751953 0.015625)"/>
     <use xlink:href="#DejaVuSans-6f" transform="translate(436.865234 0.015625)"/>
     <use xlink:href="#DejaVuSans-75" transform="translate(498.046875 0.015625)"/>
     <use xlink:href="#DejaVuSans-6e" transform="translate(561.425781 0.015625)"/>
     <use xlink:href="#DejaVuSans-64" transform="translate(624.804688 0.015625)"/>
    </g>
   </g>
   <g id="line2d_22">
    <defs>
     <path id="m36029222a4" d="M 0 1.5 
C 0.397805 1.5 0.77937 1.341951 1.06066 1.06066 
C 1.341951 0.77937 1.5 0.397805 1.5 0 
C 1.5 -0.397805 1.341951 -0.77937 1.06066 -1.06066 
C 0.77937 -1.341951 0.397805 -1.5 0 -1.5 
C -0.397805 -1.5 -0.77937 -1.341951 -1.06066 -1.06066 
C -1.341951 -0.77937 -1.5 -0.397805 -1.5 0 
C -1.5 0.397805 -1.341951 0.77937 -1.06066 1.06066 
C -0.77937 1.341951 -0.397805 1.5 0 1.5 
z
" style="stroke: #000000"/>
    </defs>
    <g>
     <use xlink:href="#m36029222a4" x="246.4" y="372.46" style="stroke: #000000"/>
    </g>
   </g>
   <g id="text_22">
    <!-- oval  $\rightarrow$ square -->
    <g transform="translate(264.4 375.96) scale(0.1 -0.1)">
     <use xlink:href="#DejaVuSans-6f" transform="translate(0 0.015625)"/>
     <use xlink:href="#DejaVuSans-76" transform="translate(61.181641 0.015625)"/>
     <use xlink:href="#DejaVuSans-61" transform="translate(120.361328 0.015625)"/>
     <use xlink:href="#DejaVuSans-6c" transform="translate(181.640625 0.015625)"/>
     <use xlink:href="#DejaVuSans-20" transform="translate(209.423828 0.015625)"/>
     <use xlink:href="#DejaVuSans-20" transform="translate(241.210938 0.015625)"/>
     <use xlink:href="#DejaVuSans-2192" transform="translate(292.480469 0.015625)"/>
     <use xlink:href="#DejaVuSans-20" transform="translate(395.751953 0.015625)"/>
     <use xlink:href="#DejaVuSans-73" transform="translate(427.539062 0.015625)"/>
     <use xlink:href="#DejaVuSans-71" transform="translate(479.638672 0.015625)"/>
     <use xlink:href="#DejaVuSans-75" transform="translate(543.115234 0.015625)"/>
     <use xlink:href="#DejaVuSans-61" transform="translate(606.494141 0.015625)"/>
     <use xlink:href="#DejaVuSans-72" transform="translate(667.773438 0.015625)"/>
     <use xlink:href="#DejaVuSans-65" transform="translate(708.886719 0.015625)"/>
    </g>
   </g>
   <g id="line2d_23">
    <defs>
     <path id="m291a382518" d="M -3 0 
L 3 0 
M 0 3 
L 0 -3 
" style="stroke: #000000"/>
    </defs>
    <g>
     <use xlink:href="#m291a382518" x="246.4" y="387.16" style="stroke: #000000"/>
    </g>
   </g>
   <g id="text_23">
    <!-- square $\rightarrow$ diamond -->
    <g transform="translate(264.4 390.66) scale(0.1 -0.1)">
     <use xlink:href="#DejaVuSans-73" transform="translate(0 0.015625)"/>
     <use xlink:href="#DejaVuSans-71" transform="translate(52.099609 0.015625)"/>
     <use xlink:href="#DejaVuSans-75" transform="translate(115.576172 0.015625)"/>
     <use xlink:href="#DejaVuSans-61" transform="translate(178.955078 0.015625)"/>
     <use xlink:href="#DejaVuSans-72" transform="translate(240.234375 0.015625)"/>
     <use xlink:href="#DejaVuSans-65" transform="translate(281.347656 0.015625)"/>
     <use xlink:href="#DejaVuSans-20" transform="translate(342.871094 0.015625)"/>
     <use xlink:href="#DejaVuSans-2192" transform="translate(394.140625 0.015625)"/>
     <use xlink:href="#DejaVuSans-20" transform="translate(497.412109 0.015625)"/>
     <use xlink:href="#DejaVuSans-64" transform="translate(529.199219 0.015625)"/>
     <use xlink:href="#DejaVuSans-69" transform="translate(592.675781 0.015625)"/>
     <use xlink:href="#DejaVuSans-61" transform="translate(620.458984 0.015625)"/>
     <use xlink:href="#DejaVuSans-6d" transform="translate(681.738281 0.015625)"/>
     <use xlink:href="#DejaVuSans-6f" transform="translate(779.150391 0.015625)"/>
     <use xlink:href="#DejaVuSans-6e" transform="translate(840.332031 0.015625)"/>
     <use xlink:href="#DejaVuSans-64" transform="translate(903.710938 0.015625)"/>
    </g>
   </g>
   <g id="line2d_24">
    <defs>
     <path id="mfb50958d77" d="M -0 3 
L 3 -3 
L -3 -3 
z
" style="stroke: #000000; stroke-linejoin: miter"/>
    </defs>
    <g>
     <use xlink:href="#mfb50958d77" x="391.2" y="357.780312" style="stroke: #000000; stroke-linejoin: miter"/>
    </g>
   </g>
   <g id="text_24">
    <!-- square $\rightarrow$ swedish oval -->
    <g transform="translate(409.2 361.280312) scale(0.1 -0.1)">
     <use xlink:href="#DejaVuSans-73" transform="translate(0 0.015625)"/>
     <use xlink:href="#DejaVuSans-71" transform="translate(52.099609 0.015625)"/>
     <use xlink:href="#DejaVuSans-75" transform="translate(115.576172 0.015625)"/>
     <use xlink:href="#DejaVuSans-61" transform="translate(178.955078 0.015625)"/>
     <use xlink:href="#DejaVuSans-72" transform="translate(240.234375 0.015625)"/>
     <use xlink:href="#DejaVuSans-65" transform="translate(281.347656 0.015625)"/>
     <use xlink:href="#DejaVuSans-20" transform="translate(342.871094 0.015625)"/>
     <use xlink:href="#DejaVuSans-2192" transform="translate(394.140625 0.015625)"/>
     <use xlink:href="#DejaVuSans-20" transform="translate(497.412109 0.015625)"/>
     <use xlink:href="#DejaVuSans-73" transform="translate(529.199219 0.015625)"/>
     <use xlink:href="#DejaVuSans-77" transform="translate(581.298828 0.015625)"/>
     <use xlink:href="#DejaVuSans-65" transform="translate(663.085938 0.015625)"/>
     <use xlink:href="#DejaVuSans-64" transform="translate(724.609375 0.015625)"/>
     <use xlink:href="#DejaVuSans-69" transform="translate(788.085938 0.015625)"/>
     <use xlink:href="#DejaVuSans-73" transform="translate(815.869141 0.015625)"/>
     <use xlink:href="#DejaVuSans-68" transform="translate(867.96875 0.015625)"/>
     <use xlink:href="#DejaVuSans-20" transform="translate(931.347656 0.015625)"/>
     <use xlink:href="#DejaVuSans-6f" transform="translate(963.134766 0.015625)"/>
     <use xlink:href="#DejaVuSans-76" transform="translate(1024.316406 0.015625)"/>
     <use xlink:href="#DejaVuSans-61" transform="translate(1083.496094 0.015625)"/>
     <use xlink:href="#DejaVuSans-6c" transform="translate(1144.775391 0.015625)"/>
    </g>
   </g>
   <g id="line2d_25">
    <defs>
     <path id="m75efa18984" d="M 0 -3 
L -0.673542 -0.927051 
L -2.85317 -0.927051 
L -1.089814 0.354102 
L -1.763356 2.427051 
L -0 1.145898 
L 1.763356 2.427051 
L 1.089814 0.354102 
L 2.85317 -0.927051 
L 0.673542 -0.927051 
z
" style="stroke: #000000; stroke-linejoin: bevel"/>
    </defs>
    <g>
     <use xlink:href="#m75efa18984" x="391.2" y="372.480312" style="stroke: #000000; stroke-linejoin: bevel"/>
    </g>
   </g>
   <g id="text_25">
    <!-- square $\rightarrow$ oval -->
    <g transform="translate(409.2 375.980312) scale(0.1 -0.1)">
     <use xlink:href="#DejaVuSans-73" transform="translate(0 0.015625)"/>
     <use xlink:href="#DejaVuSans-71" transform="translate(52.099609 0.015625)"/>
     <use xlink:href="#DejaVuSans-75" transform="translate(115.576172 0.015625)"/>
     <use xlink:href="#DejaVuSans-61" transform="translate(178.955078 0.015625)"/>
     <use xlink:href="#DejaVuSans-72" transform="translate(240.234375 0.015625)"/>
     <use xlink:href="#DejaVuSans-65" transform="translate(281.347656 0.015625)"/>
     <use xlink:href="#DejaVuSans-20" transform="translate(342.871094 0.015625)"/>
     <use xlink:href="#DejaVuSans-2192" transform="translate(394.140625 0.015625)"/>
     <use xlink:href="#DejaVuSans-20" transform="translate(497.412109 0.015625)"/>
     <use xlink:href="#DejaVuSans-6f" transform="translate(529.199219 0.015625)"/>
     <use xlink:href="#DejaVuSans-76" transform="translate(590.380859 0.015625)"/>
     <use xlink:href="#DejaVuSans-61" transform="translate(649.560547 0.015625)"/>
     <use xlink:href="#DejaVuSans-6c" transform="translate(710.839844 0.015625)"/>
    </g>
   </g>
   <g id="line2d_26">
    <path d="M 381.2 387.17875 
L 391.2 387.17875 
L 401.2 387.17875 
" style="fill: none; stroke: #ff0000; stroke-width: 1.5; stroke-linecap: square"/>
   </g>
   <g id="text_26">
    <!-- mean -->
    <g transform="translate(409.2 390.67875) scale(0.1 -0.1)">
     <use xlink:href="#DejaVuSans-6d"/>
     <use xlink:href="#DejaVuSans-65" x="97.412109"/>
     <use xlink:href="#DejaVuSans-61" x="158.935547"/>
     <use xlink:href="#DejaVuSans-6e" x="220.214844"/>
    </g>
   </g>
  </g>
 </g>
 <defs>
  <clipPath id="p5bfe4ac257">
   <rect x="74.7" y="51.84" width="463.14" height="255.680246"/>
  </clipPath>
 </defs>
</svg>
